<?xml version="1.0" encoding="UTF-8" standalone="no"?>
<!DOCTYPE svg PUBLIC "-//W3C//DTD SVG 1.1//EN"
 "http://www.w3.org/Graphics/SVG/1.1/DTD/svg11.dtd">
<!-- Generated by graphviz version 2.43.0 (0)
 -->
<!-- Title: classes_scludam Pages: 1 -->
<svg width="7931pt" height="1159pt"
 viewBox="0.00 0.00 7931.00 1159.00" xmlns="http://www.w3.org/2000/svg" xmlns:xlink="http://www.w3.org/1999/xlink">
<g id="graph0" class="graph" transform="scale(1 1) rotate(0) translate(4 1155)">
<title>classes_scludam</title>
<polygon fill="white" stroke="transparent" points="-4,4 -4,-1155 7927,-1155 7927,4 -4,4"/>
<!-- scludam.detection.CountPeakDetector -->
<g id="node1" class="node">
<title>scludam.detection.CountPeakDetector</title>
<polygon fill="none" stroke="black" points="0,-766.5 0,-1150.5 628,-1150.5 628,-766.5 0,-766.5"/>
<text text-anchor="middle" x="314" y="-1135.3" font-family="Times,serif" font-size="14.00">scludam.detection.CountPeakDetector</text>
<polyline fill="none" stroke="black" points="0,-1127.5 628,-1127.5 "/>
<text text-anchor="start" x="8" y="-1112.3" font-family="Times,serif" font-size="14.00">_data</text>
<text text-anchor="start" x="8" y="-1097.3" font-family="Times,serif" font-size="14.00">_data : Optional[Numeric2DArray]</text>
<text text-anchor="start" x="8" y="-1082.3" font-family="Times,serif" font-size="14.00">_last_result</text>
<text text-anchor="start" x="8" y="-1067.3" font-family="Times,serif" font-size="14.00">_last_result : Optional[DetectionResult]</text>
<text text-anchor="start" x="8" y="-1052.3" font-family="Times,serif" font-size="14.00">_offsets : _SpecialForm</text>
<text text-anchor="start" x="8" y="-1037.3" font-family="Times,serif" font-size="14.00">_offsets : list</text>
<text text-anchor="start" x="8" y="-1022.3" font-family="Times,serif" font-size="14.00">bin_shape : _SpecialForm</text>
<text text-anchor="start" x="8" y="-1007.3" font-family="Times,serif" font-size="14.00">bin_shape : ndarray</text>
<text text-anchor="start" x="8" y="-992.3" font-family="Times,serif" font-size="14.00">mask : _SpecialForm</text>
<text text-anchor="start" x="8" y="-977.3" font-family="Times,serif" font-size="14.00">mask : ndarray</text>
<text text-anchor="start" x="8" y="-962.3" font-family="Times,serif" font-size="14.00">max_num_peaks : int</text>
<text text-anchor="start" x="8" y="-947.3" font-family="Times,serif" font-size="14.00">min_count : Number</text>
<text text-anchor="start" x="8" y="-932.3" font-family="Times,serif" font-size="14.00">min_dif : Number</text>
<text text-anchor="start" x="8" y="-917.3" font-family="Times,serif" font-size="14.00">min_interpeak_dist : int</text>
<text text-anchor="start" x="8" y="-902.3" font-family="Times,serif" font-size="14.00">min_score : Number</text>
<text text-anchor="start" x="8" y="-887.3" font-family="Times,serif" font-size="14.00">min_sigma_dif : Number</text>
<text text-anchor="start" x="8" y="-872.3" font-family="Times,serif" font-size="14.00">norm_mode : str</text>
<text text-anchor="start" x="8" y="-857.3" font-family="Times,serif" font-size="14.00">nyquist_offset : bool</text>
<text text-anchor="start" x="8" y="-842.3" font-family="Times,serif" font-size="14.00">remove_low_density_regions : bool</text>
<polyline fill="none" stroke="black" points="0,-834.5 628,-834.5 "/>
<text text-anchor="start" x="8" y="-819.3" font-family="Times,serif" font-size="14.00">_remove_low_density_regions(data: Numeric2DArray)</text>
<text text-anchor="start" x="8" y="-804.3" font-family="Times,serif" font-size="14.00">_set_nyquist_offsets()</text>
<text text-anchor="start" x="8" y="-789.3" font-family="Times,serif" font-size="14.00">detect(data: Numeric2DArray)</text>
<text text-anchor="start" x="8" y="-774.3" font-family="Times,serif" font-size="14.00">plot(peak: int, x: int, y: int, mode: str, labels: Union[List[str], None], cut_label_prec: int, center_label_prec: int)</text>
</g>
<!-- scludam.detection.DetectionResult -->
<g id="node2" class="node">
<title>scludam.detection.DetectionResult</title>
<polygon fill="none" stroke="black" points="211,-278 211,-437 417,-437 417,-278 211,-278"/>
<text text-anchor="middle" x="314" y="-421.8" font-family="Times,serif" font-size="14.00">scludam.detection.DetectionResult</text>
<polyline fill="none" stroke="black" points="211,-414 417,-414 "/>
<text text-anchor="start" x="219" y="-398.8" font-family="Times,serif" font-size="14.00">centers</text>
<text text-anchor="start" x="219" y="-383.8" font-family="Times,serif" font-size="14.00">counts : NDArray[np.number]</text>
<text text-anchor="start" x="219" y="-368.8" font-family="Times,serif" font-size="14.00">edges</text>
<text text-anchor="start" x="219" y="-353.8" font-family="Times,serif" font-size="14.00">indices</text>
<text text-anchor="start" x="219" y="-338.8" font-family="Times,serif" font-size="14.00">offsets</text>
<text text-anchor="start" x="219" y="-323.8" font-family="Times,serif" font-size="14.00">scores : NDArray[np.number]</text>
<text text-anchor="start" x="219" y="-308.8" font-family="Times,serif" font-size="14.00">sigmas : NDArray[np.number]</text>
<polyline fill="none" stroke="black" points="211,-301 417,-301 "/>
<text text-anchor="middle" x="314" y="-285.8" font-family="Times,serif" font-size="14.00"> </text>
</g>
<!-- scludam.detection.DetectionResult&#45;&gt;scludam.detection.CountPeakDetector -->
<g id="edge11" class="edge">
<title>scludam.detection.DetectionResult&#45;&gt;scludam.detection.CountPeakDetector</title>
<path fill="none" stroke="black" d="M295.95,-437.16C280.17,-515.81 261.3,-640.22 272,-748 272.21,-750.09 272.43,-752.2 272.66,-754.31"/>
<polygon fill="black" stroke="black" points="272.69,-754.57 277.36,-760.07 274.09,-766.49 269.42,-761 272.69,-754.57"/>
<text text-anchor="middle" x="303.5" y="-736.8" font-family="Times,serif" font-size="14.00" fill="green">_last_result</text>
</g>
<!-- scludam.detection.DetectionResult&#45;&gt;scludam.detection.CountPeakDetector -->
<g id="edge12" class="edge">
<title>scludam.detection.DetectionResult&#45;&gt;scludam.detection.CountPeakDetector</title>
<path fill="none" stroke="black" d="M323.04,-437.19C330.94,-515.86 340.38,-640.29 335,-748 334.9,-750.07 334.79,-752.15 334.67,-754.24"/>
<polygon fill="black" stroke="black" points="334.67,-754.34 338.31,-760.56 333.96,-766.32 330.32,-760.09 334.67,-754.34"/>
<text text-anchor="middle" x="367.5" y="-736.8" font-family="Times,serif" font-size="14.00" fill="green">_last_result</text>
</g>
<!-- scludam.fetcher.Config -->
<g id="node3" class="node">
<title>scludam.fetcher.Config</title>
<polygon fill="none" stroke="black" points="435.5,-270.5 435.5,-444.5 788.5,-444.5 788.5,-270.5 435.5,-270.5"/>
<text text-anchor="middle" x="612" y="-429.3" font-family="Times,serif" font-size="14.00">scludam.fetcher.Config</text>
<polyline fill="none" stroke="black" points="435.5,-421.5 788.5,-421.5 "/>
<text text-anchor="start" x="443.5" y="-406.3" font-family="Times,serif" font-size="14.00">MAIN_GAIA_ASTROMETRIC_EXCESS_NOISE : str</text>
<text text-anchor="start" x="443.5" y="-391.3" font-family="Times,serif" font-size="14.00">MAIN_GAIA_ASTROMETRIC_EXCESS_NOISE_SIG : str</text>
<text text-anchor="start" x="443.5" y="-376.3" font-family="Times,serif" font-size="14.00">MAIN_GAIA_BP_RP : str</text>
<text text-anchor="start" x="443.5" y="-361.3" font-family="Times,serif" font-size="14.00">MAIN_GAIA_BP_RP_EXCESS_FACTOR : str</text>
<text text-anchor="start" x="443.5" y="-346.3" font-family="Times,serif" font-size="14.00">MAIN_GAIA_DEC : str</text>
<text text-anchor="start" x="443.5" y="-331.3" font-family="Times,serif" font-size="14.00">MAIN_GAIA_RA : str</text>
<text text-anchor="start" x="443.5" y="-316.3" font-family="Times,serif" font-size="14.00">MAIN_GAIA_TABLE : str</text>
<text text-anchor="start" x="443.5" y="-301.3" font-family="Times,serif" font-size="14.00">ROW_LIMIT : int</text>
<polyline fill="none" stroke="black" points="435.5,-293.5 788.5,-293.5 "/>
<text text-anchor="middle" x="612" y="-278.3" font-family="Times,serif" font-size="14.00"> </text>
</g>
<!-- scludam.fetcher.Query -->
<g id="node4" class="node">
<title>scludam.fetcher.Query</title>
<polygon fill="none" stroke="black" points="807,-143 807,-572 1529,-572 1529,-143 807,-143"/>
<text text-anchor="middle" x="1168" y="-556.8" font-family="Times,serif" font-size="14.00">scludam.fetcher.Query</text>
<polyline fill="none" stroke="black" points="807,-549 1529,-549 "/>
<text text-anchor="start" x="815" y="-533.8" font-family="Times,serif" font-size="14.00">COUNT_QUERY_TEMPLATE : str</text>
<text text-anchor="start" x="815" y="-518.8" font-family="Times,serif" font-size="14.00">QUERY_TEMPLATE : str</text>
<text text-anchor="start" x="815" y="-503.8" font-family="Times,serif" font-size="14.00">columns : list</text>
<text text-anchor="start" x="815" y="-488.8" font-family="Times,serif" font-size="14.00">columns : list</text>
<text text-anchor="start" x="815" y="-473.8" font-family="Times,serif" font-size="14.00">conditions : List[LogicalExpression]</text>
<text text-anchor="start" x="815" y="-458.8" font-family="Times,serif" font-size="14.00">extra_columns : list</text>
<text text-anchor="start" x="815" y="-443.8" font-family="Times,serif" font-size="14.00">orderby : Optional[str]</text>
<text text-anchor="start" x="815" y="-428.8" font-family="Times,serif" font-size="14.00">orderby : str</text>
<text text-anchor="start" x="815" y="-413.8" font-family="Times,serif" font-size="14.00">row_limit : int</text>
<text text-anchor="start" x="815" y="-398.8" font-family="Times,serif" font-size="14.00">row_limit : int</text>
<text text-anchor="start" x="815" y="-383.8" font-family="Times,serif" font-size="14.00">table : str</text>
<polyline fill="none" stroke="black" points="807,-376 1529,-376 "/>
<text text-anchor="start" x="815" y="-360.8" font-family="Times,serif" font-size="14.00">_build_columns()</text>
<text text-anchor="start" x="815" y="-345.8" font-family="Times,serif" font-size="14.00">_build_conditions()</text>
<text text-anchor="start" x="815" y="-330.8" font-family="Times,serif" font-size="14.00">_validate_column(column: str)</text>
<text text-anchor="start" x="815" y="-315.8" font-family="Times,serif" font-size="14.00">_validate_operator(operator: str)</text>
<text text-anchor="start" x="815" y="-300.8" font-family="Times,serif" font-size="14.00">build()</text>
<text text-anchor="start" x="815" y="-285.8" font-family="Times,serif" font-size="14.00">build_count()</text>
<text text-anchor="start" x="815" y="-270.8" font-family="Times,serif" font-size="14.00">count()</text>
<text text-anchor="start" x="815" y="-255.8" font-family="Times,serif" font-size="14.00">get()</text>
<text text-anchor="start" x="815" y="-240.8" font-family="Times,serif" font-size="14.00">select()</text>
<text text-anchor="start" x="815" y="-225.8" font-family="Times,serif" font-size="14.00">top(row_limit: int)</text>
<text text-anchor="start" x="815" y="-210.8" font-family="Times,serif" font-size="14.00">where(condition: Union[Condition, List[Condition]])</text>
<text text-anchor="start" x="815" y="-195.8" font-family="Times,serif" font-size="14.00">where_aen_criterion(aen_value: Number, aen_sig_value: Number, aen_name: str, aen_sig_name: str)</text>
<text text-anchor="start" x="815" y="-180.8" font-family="Times,serif" font-size="14.00">where_arenou_criterion(bp_rp_name: str, bp_rp_ef_name: str)</text>
<text text-anchor="start" x="815" y="-165.8" font-family="Times,serif" font-size="14.00">where_in_circle(coords_or_name: Union[Coord, SkyCoord, str], radius: Union[int, float, Quantity], ra_name: str, dec_name: str)</text>
<text text-anchor="start" x="815" y="-150.8" font-family="Times,serif" font-size="14.00">where_or(condition: Union[Condition, List[Condition]])</text>
</g>
<!-- scludam.fetcher.SimbadResult -->
<g id="node5" class="node">
<title>scludam.fetcher.SimbadResult</title>
<polygon fill="none" stroke="black" points="1546.5,-315.5 1546.5,-399.5 1729.5,-399.5 1729.5,-315.5 1546.5,-315.5"/>
<text text-anchor="middle" x="1638" y="-384.3" font-family="Times,serif" font-size="14.00">scludam.fetcher.SimbadResult</text>
<polyline fill="none" stroke="black" points="1546.5,-376.5 1729.5,-376.5 "/>
<text text-anchor="start" x="1554.5" y="-361.3" font-family="Times,serif" font-size="14.00">coords : Optional[SkyCoord]</text>
<text text-anchor="start" x="1554.5" y="-346.3" font-family="Times,serif" font-size="14.00">table : Optional[Table]</text>
<polyline fill="none" stroke="black" points="1546.5,-338.5 1729.5,-338.5 "/>
<text text-anchor="middle" x="1638" y="-323.3" font-family="Times,serif" font-size="14.00"> </text>
</g>
<!-- scludam.fetcher.TableInfo -->
<g id="node6" class="node">
<title>scludam.fetcher.TableInfo</title>
<polygon fill="none" stroke="black" points="1748,-308 1748,-407 1908,-407 1908,-308 1748,-308"/>
<text text-anchor="middle" x="1828" y="-391.8" font-family="Times,serif" font-size="14.00">scludam.fetcher.TableInfo</text>
<polyline fill="none" stroke="black" points="1748,-384 1908,-384 "/>
<text text-anchor="start" x="1756" y="-368.8" font-family="Times,serif" font-size="14.00">columns : Table</text>
<text text-anchor="start" x="1756" y="-353.8" font-family="Times,serif" font-size="14.00">description : str</text>
<text text-anchor="start" x="1756" y="-338.8" font-family="Times,serif" font-size="14.00">name : str</text>
<polyline fill="none" stroke="black" points="1748,-331 1908,-331 "/>
<text text-anchor="middle" x="1828" y="-315.8" font-family="Times,serif" font-size="14.00"> </text>
</g>
<!-- scludam.masker.CenterMasker -->
<g id="node7" class="node">
<title>scludam.masker.CenterMasker</title>
<polygon fill="none" stroke="black" points="1926,-315.5 1926,-399.5 2112,-399.5 2112,-315.5 1926,-315.5"/>
<text text-anchor="middle" x="2019" y="-384.3" font-family="Times,serif" font-size="14.00">scludam.masker.CenterMasker</text>
<polyline fill="none" stroke="black" points="1926,-376.5 2112,-376.5 "/>
<text text-anchor="start" x="1934" y="-361.3" font-family="Times,serif" font-size="14.00">center : Union[list, np.ndarray]</text>
<text text-anchor="start" x="1934" y="-346.3" font-family="Times,serif" font-size="14.00">radius : Union[int, float]</text>
<polyline fill="none" stroke="black" points="1926,-338.5 2112,-338.5 "/>
<text text-anchor="start" x="1934" y="-323.3" font-family="Times,serif" font-size="14.00">mask(data: np.ndarray)</text>
</g>
<!-- scludam.masker.DataMasker -->
<g id="node9" class="node">
<title>scludam.masker.DataMasker</title>
<polygon fill="none" stroke="black" points="2237,-923.5 2237,-993.5 2413,-993.5 2413,-923.5 2237,-923.5"/>
<text text-anchor="middle" x="2325" y="-978.3" font-family="Times,serif" font-size="14.00">scludam.masker.DataMasker</text>
<polyline fill="none" stroke="black" points="2237,-970.5 2413,-970.5 "/>
<polyline fill="none" stroke="black" points="2237,-946.5 2413,-946.5 "/>
<text text-anchor="start" x="2245" y="-931.3" font-family="Times,serif" font-size="14.00">mask(data): np.ndarray</text>
</g>
<!-- scludam.masker.CenterMasker&#45;&gt;scludam.masker.DataMasker -->
<g id="edge1" class="edge">
<title>scludam.masker.CenterMasker&#45;&gt;scludam.masker.DataMasker</title>
<path fill="none" stroke="black" d="M2025,-399.62C2036.24,-468.24 2064.6,-609.01 2121,-715 2163.2,-794.29 2234.54,-871.08 2280.7,-916.31"/>
<polygon fill="none" stroke="black" points="2278.27,-918.83 2287.88,-923.29 2283.15,-913.81 2278.27,-918.83"/>
</g>
<!-- scludam.masker.CrustMasker -->
<g id="node8" class="node">
<title>scludam.masker.CrustMasker</title>
<polygon fill="none" stroke="black" points="2130.5,-315.5 2130.5,-399.5 2309.5,-399.5 2309.5,-315.5 2130.5,-315.5"/>
<text text-anchor="middle" x="2220" y="-384.3" font-family="Times,serif" font-size="14.00">scludam.masker.CrustMasker</text>
<polyline fill="none" stroke="black" points="2130.5,-376.5 2309.5,-376.5 "/>
<text text-anchor="start" x="2138.5" y="-361.3" font-family="Times,serif" font-size="14.00">mode : str</text>
<text text-anchor="start" x="2138.5" y="-346.3" font-family="Times,serif" font-size="14.00">percentage : Union[int, float]</text>
<polyline fill="none" stroke="black" points="2130.5,-338.5 2309.5,-338.5 "/>
<text text-anchor="start" x="2138.5" y="-323.3" font-family="Times,serif" font-size="14.00">mask(data: np.ndarray)</text>
</g>
<!-- scludam.masker.CrustMasker&#45;&gt;scludam.masker.DataMasker -->
<g id="edge2" class="edge">
<title>scludam.masker.CrustMasker&#45;&gt;scludam.masker.DataMasker</title>
<path fill="none" stroke="black" d="M2227.22,-399.67C2246.25,-508.22 2297.66,-801.53 2317.26,-913.36"/>
<polygon fill="none" stroke="black" points="2313.83,-914.05 2319,-923.3 2320.72,-912.84 2313.83,-914.05"/>
</g>
<!-- scludam.masker.DistanceMasker -->
<g id="node10" class="node">
<title>scludam.masker.DistanceMasker</title>
<polygon fill="none" stroke="black" points="2328,-300.5 2328,-414.5 2534,-414.5 2534,-300.5 2328,-300.5"/>
<text text-anchor="middle" x="2431" y="-399.3" font-family="Times,serif" font-size="14.00">scludam.masker.DistanceMasker</text>
<polyline fill="none" stroke="black" points="2328,-391.5 2534,-391.5 "/>
<text text-anchor="start" x="2336" y="-376.3" font-family="Times,serif" font-size="14.00">center : Union[list, np.ndarray, str]</text>
<text text-anchor="start" x="2336" y="-361.3" font-family="Times,serif" font-size="14.00">metric : str</text>
<text text-anchor="start" x="2336" y="-346.3" font-family="Times,serif" font-size="14.00">mode : str</text>
<text text-anchor="start" x="2336" y="-331.3" font-family="Times,serif" font-size="14.00">percentage : Union[int, float]</text>
<polyline fill="none" stroke="black" points="2328,-323.5 2534,-323.5 "/>
<text text-anchor="start" x="2336" y="-308.3" font-family="Times,serif" font-size="14.00">mask(data: np.ndarray)</text>
</g>
<!-- scludam.masker.DistanceMasker&#45;&gt;scludam.masker.DataMasker -->
<g id="edge3" class="edge">
<title>scludam.masker.DistanceMasker&#45;&gt;scludam.masker.DataMasker</title>
<path fill="none" stroke="black" d="M2421.08,-414.58C2400.13,-532.94 2351.79,-806.13 2332.83,-913.26"/>
<polygon fill="none" stroke="black" points="2329.33,-912.94 2331.03,-923.4 2336.22,-914.16 2329.33,-912.94"/>
</g>
<!-- scludam.masker.RangeMasker -->
<g id="node11" class="node">
<title>scludam.masker.RangeMasker</title>
<polygon fill="none" stroke="black" points="2552.5,-323 2552.5,-392 2737.5,-392 2737.5,-323 2552.5,-323"/>
<text text-anchor="middle" x="2645" y="-376.8" font-family="Times,serif" font-size="14.00">scludam.masker.RangeMasker</text>
<polyline fill="none" stroke="black" points="2552.5,-369 2737.5,-369 "/>
<text text-anchor="start" x="2560.5" y="-353.8" font-family="Times,serif" font-size="14.00">limits : Union[list, np.ndarray]</text>
<polyline fill="none" stroke="black" points="2552.5,-346 2737.5,-346 "/>
<text text-anchor="start" x="2560.5" y="-330.8" font-family="Times,serif" font-size="14.00">mask(data: np.ndarray)</text>
</g>
<!-- scludam.masker.RangeMasker&#45;&gt;scludam.masker.DataMasker -->
<g id="edge4" class="edge">
<title>scludam.masker.RangeMasker&#45;&gt;scludam.masker.DataMasker</title>
<path fill="none" stroke="black" d="M2640.55,-392.13C2630.8,-457.72 2603.39,-605.87 2543,-715 2498.38,-795.63 2422.35,-871.78 2372.91,-916.54"/>
<polygon fill="none" stroke="black" points="2370.31,-914.16 2365.21,-923.45 2374.99,-919.37 2370.31,-914.16"/>
</g>
<!-- scludam.shdbscan.SHDBSCAN -->
<g id="node12" class="node">
<title>scludam.shdbscan.SHDBSCAN</title>
<polygon fill="none" stroke="black" points="2755,-0.5 2755,-714.5 3431,-714.5 3431,-0.5 2755,-0.5"/>
<text text-anchor="middle" x="3093" y="-699.3" font-family="Times,serif" font-size="14.00">scludam.shdbscan.SHDBSCAN</text>
<polyline fill="none" stroke="black" points="2755,-691.5 3431,-691.5 "/>
<text text-anchor="start" x="2763" y="-676.3" font-family="Times,serif" font-size="14.00">_centers : _SpecialForm</text>
<text text-anchor="start" x="2763" y="-661.3" font-family="Times,serif" font-size="14.00">_centers : list</text>
<text text-anchor="start" x="2763" y="-646.3" font-family="Times,serif" font-size="14.00">_centers_provided : bool</text>
<text text-anchor="start" x="2763" y="-631.3" font-family="Times,serif" font-size="14.00">_centers_provided : bool</text>
<text text-anchor="start" x="2763" y="-616.3" font-family="Times,serif" font-size="14.00">_d</text>
<text text-anchor="start" x="2763" y="-601.3" font-family="Times,serif" font-size="14.00">_d : Optional[int]</text>
<text text-anchor="start" x="2763" y="-586.3" font-family="Times,serif" font-size="14.00">_data : Optional[Numeric2DArray]</text>
<text text-anchor="start" x="2763" y="-571.3" font-family="Times,serif" font-size="14.00">_data : list</text>
<text text-anchor="start" x="2763" y="-556.3" font-family="Times,serif" font-size="14.00">_n</text>
<text text-anchor="start" x="2763" y="-541.3" font-family="Times,serif" font-size="14.00">_n : Optional[int]</text>
<text text-anchor="start" x="2763" y="-526.3" font-family="Times,serif" font-size="14.00">_unique_labels : ndarray</text>
<text text-anchor="start" x="2763" y="-511.3" font-family="Times,serif" font-size="14.00">_unique_labels : ndarray</text>
<text text-anchor="start" x="2763" y="-496.3" font-family="Times,serif" font-size="14.00">allow_single_cluster : bool</text>
<text text-anchor="start" x="2763" y="-481.3" font-family="Times,serif" font-size="14.00">auto_allow_single_cluster : bool</text>
<text text-anchor="start" x="2763" y="-466.3" font-family="Times,serif" font-size="14.00">cluster_proba_mode : str</text>
<text text-anchor="start" x="2763" y="-451.3" font-family="Times,serif" font-size="14.00">clusterer : HDBSCAN</text>
<text text-anchor="start" x="2763" y="-436.3" font-family="Times,serif" font-size="14.00">clusterer : Optional[HDBSCAN]</text>
<text text-anchor="start" x="2763" y="-421.3" font-family="Times,serif" font-size="14.00">labels : Optional[Numeric1DArray]</text>
<text text-anchor="start" x="2763" y="-406.3" font-family="Times,serif" font-size="14.00">labels : ndarray</text>
<text text-anchor="start" x="2763" y="-391.3" font-family="Times,serif" font-size="14.00">metric : Union[str, Callable]</text>
<text text-anchor="start" x="2763" y="-376.3" font-family="Times,serif" font-size="14.00">min_cluster_size : Optional[int]</text>
<text text-anchor="start" x="2763" y="-361.3" font-family="Times,serif" font-size="14.00">min_samples : Optional[int]</text>
<text text-anchor="start" x="2763" y="-346.3" font-family="Times,serif" font-size="14.00">n_classes</text>
<text text-anchor="start" x="2763" y="-331.3" font-family="Times,serif" font-size="14.00">n_classes : Optional[int]</text>
<text text-anchor="start" x="2763" y="-316.3" font-family="Times,serif" font-size="14.00">noise_proba_mode : str</text>
<text text-anchor="start" x="2763" y="-301.3" font-family="Times,serif" font-size="14.00">noise_proba_mode : str</text>
<text text-anchor="start" x="2763" y="-286.3" font-family="Times,serif" font-size="14.00">outlier_quantile : Optional[float]</text>
<text text-anchor="start" x="2763" y="-271.3" font-family="Times,serif" font-size="14.00">outlier_scores : Optional[Numeric1DArray]</text>
<text text-anchor="start" x="2763" y="-256.3" font-family="Times,serif" font-size="14.00">outlier_scores : ndarray</text>
<text text-anchor="start" x="2763" y="-241.3" font-family="Times,serif" font-size="14.00">proba : Optional[Numeric2DArray]</text>
<text text-anchor="start" x="2763" y="-226.3" font-family="Times,serif" font-size="14.00">proba : ndarray</text>
<text text-anchor="start" x="2763" y="-211.3" font-family="Times,serif" font-size="14.00">scaler : Optional[TransformerMixin]</text>
<polyline fill="none" stroke="black" points="2755,-203.5 3431,-203.5 "/>
<text text-anchor="start" x="2763" y="-188.3" font-family="Times,serif" font-size="14.00">_center_based_cluster_selection(data: Numeric2DArray, labels: Numeric1DArray, input_centers: Numeric2DArrayLike)</text>
<text text-anchor="start" x="2763" y="-173.3" font-family="Times,serif" font-size="14.00">_cluster(data: Numeric2DArray)</text>
<text text-anchor="start" x="2763" y="-158.3" font-family="Times,serif" font-size="14.00">_get_proba()</text>
<text text-anchor="start" x="2763" y="-143.3" font-family="Times,serif" font-size="14.00">_is_fitted()</text>
<text text-anchor="start" x="2763" y="-128.3" font-family="Times,serif" font-size="14.00">_min_cluster_size_validator(attribute, value)</text>
<text text-anchor="start" x="2763" y="-113.3" font-family="Times,serif" font-size="14.00">_scale(data: Numeric2DArray, centers: OptionalNumeric2DArrayLike)</text>
<text text-anchor="start" x="2763" y="-98.3" font-family="Times,serif" font-size="14.00">fit(data: Numeric2DArray, centers: Union[OptionalNumeric2DArrayLike, OptionalNumeric1DArrayLike])</text>
<text text-anchor="start" x="2763" y="-83.3" font-family="Times,serif" font-size="14.00">outlierplot()</text>
<text text-anchor="start" x="2763" y="-68.3" font-family="Times,serif" font-size="14.00">pairplot()</text>
<text text-anchor="start" x="2763" y="-53.3" font-family="Times,serif" font-size="14.00">scatter3dplot()</text>
<text text-anchor="start" x="2763" y="-38.3" font-family="Times,serif" font-size="14.00">surfplot()</text>
<text text-anchor="start" x="2763" y="-23.3" font-family="Times,serif" font-size="14.00">tsneplot()</text>
<text text-anchor="start" x="2763" y="-8.3" font-family="Times,serif" font-size="14.00">validity_index()</text>
</g>
<!-- scludam.stat_tests.DipDistTest -->
<g id="node13" class="node">
<title>scludam.stat_tests.DipDistTest</title>
<polygon fill="none" stroke="black" points="3448.5,-308 3448.5,-407 3633.5,-407 3633.5,-308 3448.5,-308"/>
<text text-anchor="middle" x="3541" y="-391.8" font-family="Times,serif" font-size="14.00">scludam.stat_tests.DipDistTest</text>
<polyline fill="none" stroke="black" points="3448.5,-384 3633.5,-384 "/>
<text text-anchor="start" x="3456.5" y="-368.8" font-family="Times,serif" font-size="14.00">metric : str</text>
<text text-anchor="start" x="3456.5" y="-353.8" font-family="Times,serif" font-size="14.00">n_samples : Optional[int]</text>
<text text-anchor="start" x="3456.5" y="-338.8" font-family="Times,serif" font-size="14.00">pvalue_threshold : float</text>
<polyline fill="none" stroke="black" points="3448.5,-331 3633.5,-331 "/>
<text text-anchor="start" x="3456.5" y="-315.8" font-family="Times,serif" font-size="14.00">test(data: Numeric2DArray)</text>
</g>
<!-- scludam.stat_tests.StatTest -->
<g id="node19" class="node">
<title>scludam.stat_tests.StatTest</title>
<polygon fill="none" stroke="black" points="3664.5,-923.5 3664.5,-993.5 3899.5,-993.5 3899.5,-923.5 3664.5,-923.5"/>
<text text-anchor="middle" x="3782" y="-978.3" font-family="Times,serif" font-size="14.00">scludam.stat_tests.StatTest</text>
<polyline fill="none" stroke="black" points="3664.5,-970.5 3899.5,-970.5 "/>
<polyline fill="none" stroke="black" points="3664.5,-946.5 3899.5,-946.5 "/>
<text text-anchor="start" x="3672.5" y="-931.3" font-family="Times,serif" font-size="14.00">test(data: Numeric2DArray): TestResult</text>
</g>
<!-- scludam.stat_tests.DipDistTest&#45;&gt;scludam.stat_tests.StatTest -->
<g id="edge5" class="edge">
<title>scludam.stat_tests.DipDistTest&#45;&gt;scludam.stat_tests.StatTest</title>
<path fill="none" stroke="black" d="M3550.97,-407.04C3566.16,-476.85 3598.17,-608.84 3643,-715 3674.01,-788.44 3722.46,-867.48 3753.2,-914.7"/>
<polygon fill="none" stroke="black" points="3750.32,-916.69 3758.72,-923.13 3756.17,-912.85 3750.32,-916.69"/>
</g>
<!-- scludam.stat_tests.DipDistTestResult -->
<g id="node14" class="node">
<title>scludam.stat_tests.DipDistTestResult</title>
<polygon fill="none" stroke="black" points="4494,-308 4494,-407 4714,-407 4714,-308 4494,-308"/>
<text text-anchor="middle" x="4604" y="-391.8" font-family="Times,serif" font-size="14.00">scludam.stat_tests.DipDistTestResult</text>
<polyline fill="none" stroke="black" points="4494,-384 4714,-384 "/>
<text text-anchor="start" x="4502" y="-368.8" font-family="Times,serif" font-size="14.00">dist</text>
<text text-anchor="start" x="4502" y="-353.8" font-family="Times,serif" font-size="14.00">pvalue : Number</text>
<text text-anchor="start" x="4502" y="-338.8" font-family="Times,serif" font-size="14.00">value : Number</text>
<polyline fill="none" stroke="black" points="4494,-331 4714,-331 "/>
<text text-anchor="middle" x="4604" y="-315.8" font-family="Times,serif" font-size="14.00"> </text>
</g>
<!-- scludam.stat_tests.TestResult -->
<g id="node20" class="node">
<title>scludam.stat_tests.TestResult</title>
<polygon fill="none" stroke="black" points="4755.5,-924 4755.5,-993 4932.5,-993 4932.5,-924 4755.5,-924"/>
<text text-anchor="middle" x="4844" y="-977.8" font-family="Times,serif" font-size="14.00">scludam.stat_tests.TestResult</text>
<polyline fill="none" stroke="black" points="4755.5,-970 4932.5,-970 "/>
<text text-anchor="start" x="4763.5" y="-954.8" font-family="Times,serif" font-size="14.00">rejectH0 : bool</text>
<polyline fill="none" stroke="black" points="4755.5,-947 4932.5,-947 "/>
<text text-anchor="middle" x="4844" y="-931.8" font-family="Times,serif" font-size="14.00"> </text>
</g>
<!-- scludam.stat_tests.DipDistTestResult&#45;&gt;scludam.stat_tests.TestResult -->
<g id="edge6" class="edge">
<title>scludam.stat_tests.DipDistTestResult&#45;&gt;scludam.stat_tests.TestResult</title>
<path fill="none" stroke="black" d="M4617.87,-407.15C4638.17,-476.52 4678.45,-607.39 4723,-715 4752.76,-786.88 4794.55,-867.07 4820.42,-914.85"/>
<polygon fill="none" stroke="black" points="4817.36,-916.56 4825.22,-923.67 4823.52,-913.21 4817.36,-916.56"/>
</g>
<!-- scludam.stat_tests.HopkinsTest -->
<g id="node15" class="node">
<title>scludam.stat_tests.HopkinsTest</title>
<polygon fill="none" stroke="black" points="3652,-285.5 3652,-429.5 3912,-429.5 3912,-285.5 3652,-285.5"/>
<text text-anchor="middle" x="3782" y="-414.3" font-family="Times,serif" font-size="14.00">scludam.stat_tests.HopkinsTest</text>
<polyline fill="none" stroke="black" points="3652,-406.5 3912,-406.5 "/>
<text text-anchor="start" x="3660" y="-391.3" font-family="Times,serif" font-size="14.00">metric : Union[str, DistanceMetric]</text>
<text text-anchor="start" x="3660" y="-376.3" font-family="Times,serif" font-size="14.00">n_iters : int</text>
<text text-anchor="start" x="3660" y="-361.3" font-family="Times,serif" font-size="14.00">n_samples : Optional[int]</text>
<text text-anchor="start" x="3660" y="-346.3" font-family="Times,serif" font-size="14.00">pvalue_threshold : float</text>
<text text-anchor="start" x="3660" y="-331.3" font-family="Times,serif" font-size="14.00">threshold : Optional[Number]</text>
<polyline fill="none" stroke="black" points="3652,-323.5 3912,-323.5 "/>
<text text-anchor="start" x="3660" y="-308.3" font-family="Times,serif" font-size="14.00">_get_pvalue(value: Number, n_samples: int)</text>
<text text-anchor="start" x="3660" y="-293.3" font-family="Times,serif" font-size="14.00">test(data: Numeric2DArray)</text>
</g>
<!-- scludam.stat_tests.HopkinsTest&#45;&gt;scludam.stat_tests.StatTest -->
<g id="edge7" class="edge">
<title>scludam.stat_tests.HopkinsTest&#45;&gt;scludam.stat_tests.StatTest</title>
<path fill="none" stroke="black" d="M3782,-429.57C3782,-554.65 3782,-810.63 3782,-913.38"/>
<polygon fill="none" stroke="black" points="3778.5,-913.41 3782,-923.41 3785.5,-913.41 3778.5,-913.41"/>
</g>
<!-- scludam.stat_tests.HopkinsTestResult -->
<g id="node16" class="node">
<title>scludam.stat_tests.HopkinsTestResult</title>
<polygon fill="none" stroke="black" points="4732.5,-315.5 4732.5,-399.5 4955.5,-399.5 4955.5,-315.5 4732.5,-315.5"/>
<text text-anchor="middle" x="4844" y="-384.3" font-family="Times,serif" font-size="14.00">scludam.stat_tests.HopkinsTestResult</text>
<polyline fill="none" stroke="black" points="4732.5,-376.5 4955.5,-376.5 "/>
<text text-anchor="start" x="4740.5" y="-361.3" font-family="Times,serif" font-size="14.00">pvalue : Number</text>
<text text-anchor="start" x="4740.5" y="-346.3" font-family="Times,serif" font-size="14.00">value : Number</text>
<polyline fill="none" stroke="black" points="4732.5,-338.5 4955.5,-338.5 "/>
<text text-anchor="middle" x="4844" y="-323.3" font-family="Times,serif" font-size="14.00"> </text>
</g>
<!-- scludam.stat_tests.HopkinsTestResult&#45;&gt;scludam.stat_tests.TestResult -->
<g id="edge8" class="edge">
<title>scludam.stat_tests.HopkinsTestResult&#45;&gt;scludam.stat_tests.TestResult</title>
<path fill="none" stroke="black" d="M4844,-399.67C4844,-508.24 4844,-801.63 4844,-913.42"/>
<polygon fill="none" stroke="black" points="4840.5,-913.66 4844,-923.66 4847.5,-913.66 4840.5,-913.66"/>
</g>
<!-- scludam.stat_tests.RipleyKTestResult -->
<g id="node17" class="node">
<title>scludam.stat_tests.RipleyKTestResult</title>
<polygon fill="none" stroke="black" points="4973.5,-308 4973.5,-407 5196.5,-407 5196.5,-308 4973.5,-308"/>
<text text-anchor="middle" x="5085" y="-391.8" font-family="Times,serif" font-size="14.00">scludam.stat_tests.RipleyKTestResult</text>
<polyline fill="none" stroke="black" points="4973.5,-384 5196.5,-384 "/>
<text text-anchor="start" x="4981.5" y="-368.8" font-family="Times,serif" font-size="14.00">l_function</text>
<text text-anchor="start" x="4981.5" y="-353.8" font-family="Times,serif" font-size="14.00">radii</text>
<text text-anchor="start" x="4981.5" y="-338.8" font-family="Times,serif" font-size="14.00">value : Number</text>
<polyline fill="none" stroke="black" points="4973.5,-331 5196.5,-331 "/>
<text text-anchor="middle" x="5085" y="-315.8" font-family="Times,serif" font-size="14.00"> </text>
</g>
<!-- scludam.stat_tests.RipleyKTestResult&#45;&gt;scludam.stat_tests.TestResult -->
<g id="edge9" class="edge">
<title>scludam.stat_tests.RipleyKTestResult&#45;&gt;scludam.stat_tests.TestResult</title>
<path fill="none" stroke="black" d="M5070.74,-407.11C5049.9,-476.43 5008.72,-607.24 4964,-715 4934.23,-786.74 4892.86,-866.97 4867.29,-914.79"/>
<polygon fill="none" stroke="black" points="4864.19,-913.16 4862.55,-923.63 4870.36,-916.47 4864.19,-913.16"/>
</g>
<!-- scludam.stat_tests.RipleysKTest -->
<g id="node18" class="node">
<title>scludam.stat_tests.RipleysKTest</title>
<polygon fill="none" stroke="black" points="3930.5,-240.5 3930.5,-474.5 4475.5,-474.5 4475.5,-240.5 3930.5,-240.5"/>
<text text-anchor="middle" x="4203" y="-459.3" font-family="Times,serif" font-size="14.00">scludam.stat_tests.RipleysKTest</text>
<polyline fill="none" stroke="black" points="3930.5,-451.5 4475.5,-451.5 "/>
<text text-anchor="start" x="3938.5" y="-436.3" font-family="Times,serif" font-size="14.00">_chiu_factors : dict</text>
<text text-anchor="start" x="3938.5" y="-421.3" font-family="Times,serif" font-size="14.00">_ripley_factors : dict</text>
<text text-anchor="start" x="3938.5" y="-406.3" font-family="Times,serif" font-size="14.00">_scaler : TransformerMixin</text>
<text text-anchor="start" x="3938.5" y="-391.3" font-family="Times,serif" font-size="14.00">factor : Optional[float]</text>
<text text-anchor="start" x="3938.5" y="-376.3" font-family="Times,serif" font-size="14.00">mode : str</text>
<text text-anchor="start" x="3938.5" y="-361.3" font-family="Times,serif" font-size="14.00">pvalue_threshold : float</text>
<text text-anchor="start" x="3938.5" y="-346.3" font-family="Times,serif" font-size="14.00">radii : Optional[Numeric1DArray]</text>
<text text-anchor="start" x="3938.5" y="-331.3" font-family="Times,serif" font-size="14.00">rk_estimator : Optional[RipleysKEstimator]</text>
<text text-anchor="start" x="3938.5" y="-316.3" font-family="Times,serif" font-size="14.00">rk_estimator : RipleysKEstimator</text>
<polyline fill="none" stroke="black" points="3930.5,-308.5 4475.5,-308.5 "/>
<text text-anchor="start" x="3938.5" y="-293.3" font-family="Times,serif" font-size="14.00">_check_pvalue_threshold(attribute, value)</text>
<text text-anchor="start" x="3938.5" y="-278.3" font-family="Times,serif" font-size="14.00">_empirical_csr_rule(l_function: Numeric2DArray, radii: Numeric2DArray, area: Number, n: int)</text>
<text text-anchor="start" x="3938.5" y="-263.3" font-family="Times,serif" font-size="14.00">_ks_rule(l_function: Numeric2DArray, radii: Numeric2DArray)</text>
<text text-anchor="start" x="3938.5" y="-248.3" font-family="Times,serif" font-size="14.00">test(data: Numeric2DArray)</text>
</g>
<!-- scludam.stat_tests.RipleysKTest&#45;&gt;scludam.stat_tests.StatTest -->
<g id="edge10" class="edge">
<title>scludam.stat_tests.RipleysKTest&#45;&gt;scludam.stat_tests.StatTest</title>
<path fill="none" stroke="black" d="M4121.33,-474.7C4026.7,-609.34 3875.64,-824.27 3811.91,-914.95"/>
<polygon fill="none" stroke="black" points="3808.9,-913.13 3806.02,-923.33 3814.63,-917.16 3808.9,-913.13"/>
</g>
<!-- scludam.synthetic.BivariateUniform -->
<g id="node21" class="node">
<title>scludam.synthetic.BivariateUniform</title>
<polygon fill="none" stroke="black" points="5215,-300.5 5215,-414.5 5541,-414.5 5541,-300.5 5215,-300.5"/>
<text text-anchor="middle" x="5378" y="-399.3" font-family="Times,serif" font-size="14.00">scludam.synthetic.BivariateUniform</text>
<polyline fill="none" stroke="black" points="5215,-391.5 5541,-391.5 "/>
<text text-anchor="start" x="5223" y="-376.3" font-family="Times,serif" font-size="14.00">dim : int</text>
<text text-anchor="start" x="5223" y="-361.3" font-family="Times,serif" font-size="14.00">locs : _SpecialForm</text>
<text text-anchor="start" x="5223" y="-346.3" font-family="Times,serif" font-size="14.00">scales : _SpecialForm</text>
<polyline fill="none" stroke="black" points="5215,-338.5 5541,-338.5 "/>
<text text-anchor="start" x="5223" y="-323.3" font-family="Times,serif" font-size="14.00">pdf(x: Union[Vector2, Vector2Array]): Numeric1DArray</text>
<text text-anchor="start" x="5223" y="-308.3" font-family="Times,serif" font-size="14.00">rvs(size: int): Vector2Array</text>
</g>
<!-- scludam.synthetic.EDSD -->
<g id="node22" class="node">
<title>scludam.synthetic.EDSD</title>
<polygon fill="none" stroke="black" points="5559,-225.5 5559,-489.5 5911,-489.5 5911,-225.5 5559,-225.5"/>
<text text-anchor="middle" x="5735" y="-474.3" font-family="Times,serif" font-size="14.00">scludam.synthetic.EDSD</text>
<polyline fill="none" stroke="black" points="5559,-466.5 5911,-466.5 "/>
<text text-anchor="start" x="5567" y="-451.3" font-family="Times,serif" font-size="14.00">w0 : float</text>
<text text-anchor="start" x="5567" y="-436.3" font-family="Times,serif" font-size="14.00">w0 : float</text>
<text text-anchor="start" x="5567" y="-421.3" font-family="Times,serif" font-size="14.00">wf : float</text>
<text text-anchor="start" x="5567" y="-406.3" font-family="Times,serif" font-size="14.00">wf : float</text>
<text text-anchor="start" x="5567" y="-391.3" font-family="Times,serif" font-size="14.00">wl : float</text>
<text text-anchor="start" x="5567" y="-376.3" font-family="Times,serif" font-size="14.00">wl : float</text>
<polyline fill="none" stroke="black" points="5559,-368.5 5911,-368.5 "/>
<text text-anchor="start" x="5567" y="-353.3" font-family="Times,serif" font-size="14.00">__init__(w0: float, wl: float, wf: float)</text>
<text text-anchor="start" x="5567" y="-338.3" font-family="Times,serif" font-size="14.00">_argcheck(wl: Number, w0: Number, wf: Number)</text>
<text text-anchor="start" x="5567" y="-323.3" font-family="Times,serif" font-size="14.00">_cdf(x, wl, w0, wf)</text>
<text text-anchor="start" x="5567" y="-308.3" font-family="Times,serif" font-size="14.00">_pdf(x, wl, w0, wf)</text>
<text text-anchor="start" x="5567" y="-293.3" font-family="Times,serif" font-size="14.00">_ppf(y, wl, w0, wf)</text>
<text text-anchor="start" x="5567" y="-278.3" font-family="Times,serif" font-size="14.00">cdf(x: Union[Number, Numeric1DArray]): Numeric1DArray</text>
<text text-anchor="start" x="5567" y="-263.3" font-family="Times,serif" font-size="14.00">pdf(x: Union[Number, Numeric1DArray]): Numeric1DArray</text>
<text text-anchor="start" x="5567" y="-248.3" font-family="Times,serif" font-size="14.00">ppf(y: Union[Number, Numeric1DArray]): Numeric1DArray</text>
<text text-anchor="start" x="5567" y="-233.3" font-family="Times,serif" font-size="14.00">rvs(size: int): Numeric1DArray</text>
</g>
<!-- scludam.synthetic.StarCluster -->
<g id="node23" class="node">
<title>scludam.synthetic.StarCluster</title>
<polygon fill="none" stroke="black" points="5929,-278 5929,-437 6221,-437 6221,-278 5929,-278"/>
<text text-anchor="middle" x="6075" y="-421.8" font-family="Times,serif" font-size="14.00">scludam.synthetic.StarCluster</text>
<polyline fill="none" stroke="black" points="5929,-414 6221,-414 "/>
<text text-anchor="start" x="5937" y="-398.8" font-family="Times,serif" font-size="14.00">n_stars : int</text>
<text text-anchor="start" x="5937" y="-383.8" font-family="Times,serif" font-size="14.00">pm : multi_rv_frozen</text>
<text text-anchor="start" x="5937" y="-368.8" font-family="Times,serif" font-size="14.00">representation_type : str</text>
<text text-anchor="start" x="5937" y="-353.8" font-family="Times,serif" font-size="14.00">space : multi_rv_frozen</text>
<polyline fill="none" stroke="black" points="5929,-346 6221,-346 "/>
<text text-anchor="start" x="5937" y="-330.8" font-family="Times,serif" font-size="14.00">pdf(data: pd.DataFrame): Numeric1DArray</text>
<text text-anchor="start" x="5937" y="-315.8" font-family="Times,serif" font-size="14.00">pm_pdf(data: pd.DataFrame): Numeric1DArray</text>
<text text-anchor="start" x="5937" y="-300.8" font-family="Times,serif" font-size="14.00">rvs(): pd.DataFrame</text>
<text text-anchor="start" x="5937" y="-285.8" font-family="Times,serif" font-size="14.00">space_pdf(data: pd.DataFrame): Numeric1DArray</text>
</g>
<!-- scludam.synthetic.StarField -->
<g id="node24" class="node">
<title>scludam.synthetic.StarField</title>
<polygon fill="none" stroke="black" points="6239,-278 6239,-437 6531,-437 6531,-278 6239,-278"/>
<text text-anchor="middle" x="6385" y="-421.8" font-family="Times,serif" font-size="14.00">scludam.synthetic.StarField</text>
<polyline fill="none" stroke="black" points="6239,-414 6531,-414 "/>
<text text-anchor="start" x="6247" y="-398.8" font-family="Times,serif" font-size="14.00">n_stars : int</text>
<text text-anchor="start" x="6247" y="-383.8" font-family="Times,serif" font-size="14.00">pm : multi_rv_frozen</text>
<text text-anchor="start" x="6247" y="-368.8" font-family="Times,serif" font-size="14.00">representation_type : str</text>
<text text-anchor="start" x="6247" y="-353.8" font-family="Times,serif" font-size="14.00">space : multi_rv_frozen</text>
<polyline fill="none" stroke="black" points="6239,-346 6531,-346 "/>
<text text-anchor="start" x="6247" y="-330.8" font-family="Times,serif" font-size="14.00">pdf(data: pd.DataFrame): Numeric1DArray</text>
<text text-anchor="start" x="6247" y="-315.8" font-family="Times,serif" font-size="14.00">pm_pdf(data: pd.DataFrame): Numeric1DArray</text>
<text text-anchor="start" x="6247" y="-300.8" font-family="Times,serif" font-size="14.00">rvs(): pd.DataFrame</text>
<text text-anchor="start" x="6247" y="-285.8" font-family="Times,serif" font-size="14.00">space_pdf(data: pd.DataFrame): Numeric1DArray</text>
</g>
<!-- scludam.synthetic.Synthetic -->
<g id="node25" class="node">
<title>scludam.synthetic.Synthetic</title>
<polygon fill="none" stroke="black" points="6300,-909 6300,-1008 6470,-1008 6470,-909 6300,-909"/>
<text text-anchor="middle" x="6385" y="-992.8" font-family="Times,serif" font-size="14.00">scludam.synthetic.Synthetic</text>
<polyline fill="none" stroke="black" points="6300,-985 6470,-985 "/>
<text text-anchor="start" x="6308" y="-969.8" font-family="Times,serif" font-size="14.00">clusters : List[StarCluster]</text>
<text text-anchor="start" x="6308" y="-954.8" font-family="Times,serif" font-size="14.00">representation_type : str</text>
<text text-anchor="start" x="6308" y="-939.8" font-family="Times,serif" font-size="14.00">star_field</text>
<polyline fill="none" stroke="black" points="6300,-932 6470,-932 "/>
<text text-anchor="start" x="6308" y="-916.8" font-family="Times,serif" font-size="14.00">rvs(): pd.DataFrame</text>
</g>
<!-- scludam.synthetic.StarField&#45;&gt;scludam.synthetic.Synthetic -->
<g id="edge13" class="edge">
<title>scludam.synthetic.StarField&#45;&gt;scludam.synthetic.Synthetic</title>
<path fill="none" stroke="black" d="M6385,-437.12C6385,-558.14 6385,-787.53 6385,-896.75"/>
<polygon fill="black" stroke="black" points="6385,-896.82 6389,-902.82 6385,-908.82 6381,-902.82 6385,-896.82"/>
<text text-anchor="middle" x="6411" y="-736.8" font-family="Times,serif" font-size="14.00" fill="green">star_field</text>
</g>
<!-- scludam.synthetic.TrivariateUniform -->
<g id="node26" class="node">
<title>scludam.synthetic.TrivariateUniform</title>
<polygon fill="none" stroke="black" points="6549,-300.5 6549,-414.5 6875,-414.5 6875,-300.5 6549,-300.5"/>
<text text-anchor="middle" x="6712" y="-399.3" font-family="Times,serif" font-size="14.00">scludam.synthetic.TrivariateUniform</text>
<polyline fill="none" stroke="black" points="6549,-391.5 6875,-391.5 "/>
<text text-anchor="start" x="6557" y="-376.3" font-family="Times,serif" font-size="14.00">dim : int</text>
<text text-anchor="start" x="6557" y="-361.3" font-family="Times,serif" font-size="14.00">locs : _SpecialForm</text>
<text text-anchor="start" x="6557" y="-346.3" font-family="Times,serif" font-size="14.00">scales : _SpecialForm</text>
<polyline fill="none" stroke="black" points="6549,-338.5 6875,-338.5 "/>
<text text-anchor="start" x="6557" y="-323.3" font-family="Times,serif" font-size="14.00">pdf(x: Union[Vector3, Vector3Array]): Numeric1DArray</text>
<text text-anchor="start" x="6557" y="-308.3" font-family="Times,serif" font-size="14.00">rvs(size: int): Vector3Array</text>
</g>
<!-- scludam.synthetic.UniformCircle -->
<g id="node27" class="node">
<title>scludam.synthetic.UniformCircle</title>
<polygon fill="none" stroke="black" points="6893,-300.5 6893,-414.5 7219,-414.5 7219,-300.5 6893,-300.5"/>
<text text-anchor="middle" x="7056" y="-399.3" font-family="Times,serif" font-size="14.00">scludam.synthetic.UniformCircle</text>
<polyline fill="none" stroke="black" points="6893,-391.5 7219,-391.5 "/>
<text text-anchor="start" x="6901" y="-376.3" font-family="Times,serif" font-size="14.00">center : _SpecialForm</text>
<text text-anchor="start" x="6901" y="-361.3" font-family="Times,serif" font-size="14.00">dim : int</text>
<text text-anchor="start" x="6901" y="-346.3" font-family="Times,serif" font-size="14.00">radius : Number</text>
<polyline fill="none" stroke="black" points="6893,-338.5 7219,-338.5 "/>
<text text-anchor="start" x="6901" y="-323.3" font-family="Times,serif" font-size="14.00">pdf(x: Union[Vector2, Vector2Array]): Numeric1DArray</text>
<text text-anchor="start" x="6901" y="-308.3" font-family="Times,serif" font-size="14.00">rvs(size: int): Vector2Array</text>
</g>
<!-- scludam.synthetic.UniformFrustum -->
<g id="node28" class="node">
<title>scludam.synthetic.UniformFrustum</title>
<polygon fill="none" stroke="black" points="7237,-270.5 7237,-444.5 7579,-444.5 7579,-270.5 7237,-270.5"/>
<text text-anchor="middle" x="7408" y="-429.3" font-family="Times,serif" font-size="14.00">scludam.synthetic.UniformFrustum</text>
<polyline fill="none" stroke="black" points="7237,-421.5 7579,-421.5 "/>
<text text-anchor="start" x="7245" y="-406.3" font-family="Times,serif" font-size="14.00">dim : int</text>
<text text-anchor="start" x="7245" y="-391.3" font-family="Times,serif" font-size="14.00">locs : _SpecialForm</text>
<text text-anchor="start" x="7245" y="-376.3" font-family="Times,serif" font-size="14.00">max_size_per_iter : int</text>
<text text-anchor="start" x="7245" y="-361.3" font-family="Times,serif" font-size="14.00">scales : _SpecialForm</text>
<polyline fill="none" stroke="black" points="7237,-353.5 7579,-353.5 "/>
<text text-anchor="start" x="7245" y="-338.3" font-family="Times,serif" font-size="14.00">_get_vertices()</text>
<text text-anchor="start" x="7245" y="-323.3" font-family="Times,serif" font-size="14.00">_is_inside_shape(data: Numeric2DArray)</text>
<text text-anchor="start" x="7245" y="-308.3" font-family="Times,serif" font-size="14.00">_volume()</text>
<text text-anchor="start" x="7245" y="-293.3" font-family="Times,serif" font-size="14.00">pdf(data: Union[Vector3, Vector3Array]): Numeric1DArray</text>
<text text-anchor="start" x="7245" y="-278.3" font-family="Times,serif" font-size="14.00">rvs(size: int): Vector3Array</text>
</g>
<!-- scludam.synthetic.UniformSphere -->
<g id="node29" class="node">
<title>scludam.synthetic.UniformSphere</title>
<polygon fill="none" stroke="black" points="7597,-300.5 7597,-414.5 7923,-414.5 7923,-300.5 7597,-300.5"/>
<text text-anchor="middle" x="7760" y="-399.3" font-family="Times,serif" font-size="14.00">scludam.synthetic.UniformSphere</text>
<polyline fill="none" stroke="black" points="7597,-391.5 7923,-391.5 "/>
<text text-anchor="start" x="7605" y="-376.3" font-family="Times,serif" font-size="14.00">center : _SpecialForm</text>
<text text-anchor="start" x="7605" y="-361.3" font-family="Times,serif" font-size="14.00">dim : int</text>
<text text-anchor="start" x="7605" y="-346.3" font-family="Times,serif" font-size="14.00">radius : Number</text>
<polyline fill="none" stroke="black" points="7597,-338.5 7923,-338.5 "/>
<text text-anchor="start" x="7605" y="-323.3" font-family="Times,serif" font-size="14.00">pdf(x: Union[Vector3, Vector3Array]): Numeric1DArray</text>
<text text-anchor="start" x="7605" y="-308.3" font-family="Times,serif" font-size="14.00">rvs(size: int): Vector3Array</text>
</g>
</g>
</svg>
