<?xml version="1.0" encoding="UTF-8" standalone="no"?>
<!DOCTYPE svg PUBLIC "-//W3C//DTD SVG 1.1//EN"
 "http://www.w3.org/Graphics/SVG/1.1/DTD/svg11.dtd">
<!-- Generated by graphviz version 2.43.0 (0)
 -->
<!-- Title: classes_scludam Pages: 1 -->
<svg width="5974pt" height="589pt"
 viewBox="0.00 0.00 5973.50 589.00" xmlns="http://www.w3.org/2000/svg" xmlns:xlink="http://www.w3.org/1999/xlink">
<g id="graph0" class="graph" transform="scale(1 1) rotate(0) translate(4 585)">
<title>classes_scludam</title>
<polygon fill="white" stroke="transparent" points="-4,4 -4,-585 5969.5,-585 5969.5,4 -4,4"/>
<!-- scludam.fetcher.Config -->
<g id="node1" class="node">
<title>scludam.fetcher.Config</title>
<polygon fill="none" stroke="black" points="0,-128 0,-302 353,-302 353,-128 0,-128"/>
<text text-anchor="middle" x="176.5" y="-286.8" font-family="Times,serif" font-size="14.00">scludam.fetcher.Config</text>
<polyline fill="none" stroke="black" points="0,-279 353,-279 "/>
<text text-anchor="start" x="8" y="-263.8" font-family="Times,serif" font-size="14.00">MAIN_GAIA_ASTROMETRIC_EXCESS_NOISE : str</text>
<text text-anchor="start" x="8" y="-248.8" font-family="Times,serif" font-size="14.00">MAIN_GAIA_ASTROMETRIC_EXCESS_NOISE_SIG : str</text>
<text text-anchor="start" x="8" y="-233.8" font-family="Times,serif" font-size="14.00">MAIN_GAIA_BP_RP : str</text>
<text text-anchor="start" x="8" y="-218.8" font-family="Times,serif" font-size="14.00">MAIN_GAIA_BP_RP_EXCESS_FACTOR : str</text>
<text text-anchor="start" x="8" y="-203.8" font-family="Times,serif" font-size="14.00">MAIN_GAIA_DEC : str</text>
<text text-anchor="start" x="8" y="-188.8" font-family="Times,serif" font-size="14.00">MAIN_GAIA_RA : str</text>
<text text-anchor="start" x="8" y="-173.8" font-family="Times,serif" font-size="14.00">MAIN_GAIA_TABLE : str</text>
<text text-anchor="start" x="8" y="-158.8" font-family="Times,serif" font-size="14.00">ROW_LIMIT : int</text>
<polyline fill="none" stroke="black" points="0,-151 353,-151 "/>
<text text-anchor="middle" x="176.5" y="-135.8" font-family="Times,serif" font-size="14.00"> </text>
</g>
<!-- scludam.fetcher.Query -->
<g id="node2" class="node">
<title>scludam.fetcher.Query</title>
<polygon fill="none" stroke="black" points="371.5,-0.5 371.5,-429.5 1093.5,-429.5 1093.5,-0.5 371.5,-0.5"/>
<text text-anchor="middle" x="732.5" y="-414.3" font-family="Times,serif" font-size="14.00">scludam.fetcher.Query</text>
<polyline fill="none" stroke="black" points="371.5,-406.5 1093.5,-406.5 "/>
<text text-anchor="start" x="379.5" y="-391.3" font-family="Times,serif" font-size="14.00">COUNT_QUERY_TEMPLATE : str</text>
<text text-anchor="start" x="379.5" y="-376.3" font-family="Times,serif" font-size="14.00">QUERY_TEMPLATE : str</text>
<text text-anchor="start" x="379.5" y="-361.3" font-family="Times,serif" font-size="14.00">columns : list</text>
<text text-anchor="start" x="379.5" y="-346.3" font-family="Times,serif" font-size="14.00">columns : list</text>
<text text-anchor="start" x="379.5" y="-331.3" font-family="Times,serif" font-size="14.00">conditions : List[LogicalExpression]</text>
<text text-anchor="start" x="379.5" y="-316.3" font-family="Times,serif" font-size="14.00">extra_columns : list</text>
<text text-anchor="start" x="379.5" y="-301.3" font-family="Times,serif" font-size="14.00">orderby : Optional[str]</text>
<text text-anchor="start" x="379.5" y="-286.3" font-family="Times,serif" font-size="14.00">orderby : str</text>
<text text-anchor="start" x="379.5" y="-271.3" font-family="Times,serif" font-size="14.00">row_limit : int</text>
<text text-anchor="start" x="379.5" y="-256.3" font-family="Times,serif" font-size="14.00">row_limit : int</text>
<text text-anchor="start" x="379.5" y="-241.3" font-family="Times,serif" font-size="14.00">table : str</text>
<polyline fill="none" stroke="black" points="371.5,-233.5 1093.5,-233.5 "/>
<text text-anchor="start" x="379.5" y="-218.3" font-family="Times,serif" font-size="14.00">_build_columns()</text>
<text text-anchor="start" x="379.5" y="-203.3" font-family="Times,serif" font-size="14.00">_build_conditions()</text>
<text text-anchor="start" x="379.5" y="-188.3" font-family="Times,serif" font-size="14.00">_validate_column(column: str)</text>
<text text-anchor="start" x="379.5" y="-173.3" font-family="Times,serif" font-size="14.00">_validate_operator(operator: str)</text>
<text text-anchor="start" x="379.5" y="-158.3" font-family="Times,serif" font-size="14.00">build()</text>
<text text-anchor="start" x="379.5" y="-143.3" font-family="Times,serif" font-size="14.00">build_count()</text>
<text text-anchor="start" x="379.5" y="-128.3" font-family="Times,serif" font-size="14.00">count()</text>
<text text-anchor="start" x="379.5" y="-113.3" font-family="Times,serif" font-size="14.00">get()</text>
<text text-anchor="start" x="379.5" y="-98.3" font-family="Times,serif" font-size="14.00">select()</text>
<text text-anchor="start" x="379.5" y="-83.3" font-family="Times,serif" font-size="14.00">top(row_limit: int)</text>
<text text-anchor="start" x="379.5" y="-68.3" font-family="Times,serif" font-size="14.00">where(condition: Union[Condition, List[Condition]])</text>
<text text-anchor="start" x="379.5" y="-53.3" font-family="Times,serif" font-size="14.00">where_aen_criterion(aen_value: Number, aen_sig_value: Number, aen_name: str, aen_sig_name: str)</text>
<text text-anchor="start" x="379.5" y="-38.3" font-family="Times,serif" font-size="14.00">where_arenou_criterion(bp_rp_name: str, bp_rp_ef_name: str)</text>
<text text-anchor="start" x="379.5" y="-23.3" font-family="Times,serif" font-size="14.00">where_in_circle(coords_or_name: Union[Coord, SkyCoord, str], radius: Union[int, float, Quantity], ra_name: str, dec_name: str)</text>
<text text-anchor="start" x="379.5" y="-8.3" font-family="Times,serif" font-size="14.00">where_or(condition: Union[Condition, List[Condition]])</text>
</g>
<!-- scludam.fetcher.SimbadResult -->
<g id="node3" class="node">
<title>scludam.fetcher.SimbadResult</title>
<polygon fill="none" stroke="black" points="1111,-173 1111,-257 1294,-257 1294,-173 1111,-173"/>
<text text-anchor="middle" x="1202.5" y="-241.8" font-family="Times,serif" font-size="14.00">scludam.fetcher.SimbadResult</text>
<polyline fill="none" stroke="black" points="1111,-234 1294,-234 "/>
<text text-anchor="start" x="1119" y="-218.8" font-family="Times,serif" font-size="14.00">coords : Optional[SkyCoord]</text>
<text text-anchor="start" x="1119" y="-203.8" font-family="Times,serif" font-size="14.00">table : Optional[Table]</text>
<polyline fill="none" stroke="black" points="1111,-196 1294,-196 "/>
<text text-anchor="middle" x="1202.5" y="-180.8" font-family="Times,serif" font-size="14.00"> </text>
</g>
<!-- scludam.fetcher.TableInfo -->
<g id="node4" class="node">
<title>scludam.fetcher.TableInfo</title>
<polygon fill="none" stroke="black" points="1312.5,-165.5 1312.5,-264.5 1472.5,-264.5 1472.5,-165.5 1312.5,-165.5"/>
<text text-anchor="middle" x="1392.5" y="-249.3" font-family="Times,serif" font-size="14.00">scludam.fetcher.TableInfo</text>
<polyline fill="none" stroke="black" points="1312.5,-241.5 1472.5,-241.5 "/>
<text text-anchor="start" x="1320.5" y="-226.3" font-family="Times,serif" font-size="14.00">columns : Table</text>
<text text-anchor="start" x="1320.5" y="-211.3" font-family="Times,serif" font-size="14.00">description : str</text>
<text text-anchor="start" x="1320.5" y="-196.3" font-family="Times,serif" font-size="14.00">name : str</text>
<polyline fill="none" stroke="black" points="1312.5,-188.5 1472.5,-188.5 "/>
<text text-anchor="middle" x="1392.5" y="-173.3" font-family="Times,serif" font-size="14.00"> </text>
</g>
<!-- scludam.stat_tests.DipDistTest -->
<g id="node5" class="node">
<title>scludam.stat_tests.DipDistTest</title>
<polygon fill="none" stroke="black" points="1491,-165.5 1491,-264.5 1676,-264.5 1676,-165.5 1491,-165.5"/>
<text text-anchor="middle" x="1583.5" y="-249.3" font-family="Times,serif" font-size="14.00">scludam.stat_tests.DipDistTest</text>
<polyline fill="none" stroke="black" points="1491,-241.5 1676,-241.5 "/>
<text text-anchor="start" x="1499" y="-226.3" font-family="Times,serif" font-size="14.00">metric : str</text>
<text text-anchor="start" x="1499" y="-211.3" font-family="Times,serif" font-size="14.00">n_samples : Optional[int]</text>
<text text-anchor="start" x="1499" y="-196.3" font-family="Times,serif" font-size="14.00">pvalue_threshold : float</text>
<polyline fill="none" stroke="black" points="1491,-188.5 1676,-188.5 "/>
<text text-anchor="start" x="1499" y="-173.3" font-family="Times,serif" font-size="14.00">test(data: Numeric2DArray)</text>
</g>
<!-- scludam.stat_tests.StatTest -->
<g id="node11" class="node">
<title>scludam.stat_tests.StatTest</title>
<polygon fill="none" stroke="black" points="1707,-496 1707,-566 1942,-566 1942,-496 1707,-496"/>
<text text-anchor="middle" x="1824.5" y="-550.8" font-family="Times,serif" font-size="14.00">scludam.stat_tests.StatTest</text>
<polyline fill="none" stroke="black" points="1707,-543 1942,-543 "/>
<polyline fill="none" stroke="black" points="1707,-519 1942,-519 "/>
<text text-anchor="start" x="1715" y="-503.8" font-family="Times,serif" font-size="14.00">test(data: Numeric2DArray): TestResult</text>
</g>
<!-- scludam.stat_tests.DipDistTest&#45;&gt;scludam.stat_tests.StatTest -->
<g id="edge1" class="edge">
<title>scludam.stat_tests.DipDistTest&#45;&gt;scludam.stat_tests.StatTest</title>
<path fill="none" stroke="black" d="M1598.72,-264.57C1614.91,-310.72 1643.94,-380.25 1685.5,-430 1704.94,-453.27 1730.94,-473.86 1755.2,-490.23"/>
<polygon fill="none" stroke="black" points="1753.43,-493.25 1763.7,-495.84 1757.28,-487.41 1753.43,-493.25"/>
</g>
<!-- scludam.stat_tests.DipDistTestResult -->
<g id="node6" class="node">
<title>scludam.stat_tests.DipDistTestResult</title>
<polygon fill="none" stroke="black" points="2536.5,-165.5 2536.5,-264.5 2756.5,-264.5 2756.5,-165.5 2536.5,-165.5"/>
<text text-anchor="middle" x="2646.5" y="-249.3" font-family="Times,serif" font-size="14.00">scludam.stat_tests.DipDistTestResult</text>
<polyline fill="none" stroke="black" points="2536.5,-241.5 2756.5,-241.5 "/>
<text text-anchor="start" x="2544.5" y="-226.3" font-family="Times,serif" font-size="14.00">dist</text>
<text text-anchor="start" x="2544.5" y="-211.3" font-family="Times,serif" font-size="14.00">pvalue : Number</text>
<text text-anchor="start" x="2544.5" y="-196.3" font-family="Times,serif" font-size="14.00">value : Number</text>
<polyline fill="none" stroke="black" points="2536.5,-188.5 2756.5,-188.5 "/>
<text text-anchor="middle" x="2646.5" y="-173.3" font-family="Times,serif" font-size="14.00"> </text>
</g>
<!-- scludam.stat_tests.TestResult -->
<g id="node12" class="node">
<title>scludam.stat_tests.TestResult</title>
<polygon fill="none" stroke="black" points="2798,-496.5 2798,-565.5 2975,-565.5 2975,-496.5 2798,-496.5"/>
<text text-anchor="middle" x="2886.5" y="-550.3" font-family="Times,serif" font-size="14.00">scludam.stat_tests.TestResult</text>
<polyline fill="none" stroke="black" points="2798,-542.5 2975,-542.5 "/>
<text text-anchor="start" x="2806" y="-527.3" font-family="Times,serif" font-size="14.00">rejectH0 : bool</text>
<polyline fill="none" stroke="black" points="2798,-519.5 2975,-519.5 "/>
<text text-anchor="middle" x="2886.5" y="-504.3" font-family="Times,serif" font-size="14.00"> </text>
</g>
<!-- scludam.stat_tests.DipDistTestResult&#45;&gt;scludam.stat_tests.TestResult -->
<g id="edge2" class="edge">
<title>scludam.stat_tests.DipDistTestResult&#45;&gt;scludam.stat_tests.TestResult</title>
<path fill="none" stroke="black" d="M2667.18,-264.67C2687.96,-310.26 2722.96,-378.85 2765.5,-430 2783.97,-452.2 2807.88,-473.16 2829.56,-490.09"/>
<polygon fill="none" stroke="black" points="2827.68,-493.06 2837.75,-496.38 2831.95,-487.51 2827.68,-493.06"/>
</g>
<!-- scludam.stat_tests.HopkinsTest -->
<g id="node7" class="node">
<title>scludam.stat_tests.HopkinsTest</title>
<polygon fill="none" stroke="black" points="1694.5,-143 1694.5,-287 1954.5,-287 1954.5,-143 1694.5,-143"/>
<text text-anchor="middle" x="1824.5" y="-271.8" font-family="Times,serif" font-size="14.00">scludam.stat_tests.HopkinsTest</text>
<polyline fill="none" stroke="black" points="1694.5,-264 1954.5,-264 "/>
<text text-anchor="start" x="1702.5" y="-248.8" font-family="Times,serif" font-size="14.00">metric : Union[str, DistanceMetric]</text>
<text text-anchor="start" x="1702.5" y="-233.8" font-family="Times,serif" font-size="14.00">n_iters : int</text>
<text text-anchor="start" x="1702.5" y="-218.8" font-family="Times,serif" font-size="14.00">n_samples : Optional[int]</text>
<text text-anchor="start" x="1702.5" y="-203.8" font-family="Times,serif" font-size="14.00">pvalue_threshold : float</text>
<text text-anchor="start" x="1702.5" y="-188.8" font-family="Times,serif" font-size="14.00">threshold : Optional[Number]</text>
<polyline fill="none" stroke="black" points="1694.5,-181 1954.5,-181 "/>
<text text-anchor="start" x="1702.5" y="-165.8" font-family="Times,serif" font-size="14.00">_get_pvalue(value: Number, n_samples: int)</text>
<text text-anchor="start" x="1702.5" y="-150.8" font-family="Times,serif" font-size="14.00">test(data: Numeric2DArray)</text>
</g>
<!-- scludam.stat_tests.HopkinsTest&#45;&gt;scludam.stat_tests.StatTest -->
<g id="edge3" class="edge">
<title>scludam.stat_tests.HopkinsTest&#45;&gt;scludam.stat_tests.StatTest</title>
<path fill="none" stroke="black" d="M1824.5,-287.25C1824.5,-348.19 1824.5,-434 1824.5,-485.59"/>
<polygon fill="none" stroke="black" points="1821,-485.74 1824.5,-495.74 1828,-485.74 1821,-485.74"/>
</g>
<!-- scludam.stat_tests.HopkinsTestResult -->
<g id="node8" class="node">
<title>scludam.stat_tests.HopkinsTestResult</title>
<polygon fill="none" stroke="black" points="2775,-173 2775,-257 2998,-257 2998,-173 2775,-173"/>
<text text-anchor="middle" x="2886.5" y="-241.8" font-family="Times,serif" font-size="14.00">scludam.stat_tests.HopkinsTestResult</text>
<polyline fill="none" stroke="black" points="2775,-234 2998,-234 "/>
<text text-anchor="start" x="2783" y="-218.8" font-family="Times,serif" font-size="14.00">pvalue : Number</text>
<text text-anchor="start" x="2783" y="-203.8" font-family="Times,serif" font-size="14.00">value : Number</text>
<polyline fill="none" stroke="black" points="2775,-196 2998,-196 "/>
<text text-anchor="middle" x="2886.5" y="-180.8" font-family="Times,serif" font-size="14.00"> </text>
</g>
<!-- scludam.stat_tests.HopkinsTestResult&#45;&gt;scludam.stat_tests.TestResult -->
<g id="edge4" class="edge">
<title>scludam.stat_tests.HopkinsTestResult&#45;&gt;scludam.stat_tests.TestResult</title>
<path fill="none" stroke="black" d="M2886.5,-257.05C2886.5,-316.29 2886.5,-425.31 2886.5,-486.1"/>
<polygon fill="none" stroke="black" points="2883,-486.15 2886.5,-496.15 2890,-486.15 2883,-486.15"/>
</g>
<!-- scludam.stat_tests.RipleyKTestResult -->
<g id="node9" class="node">
<title>scludam.stat_tests.RipleyKTestResult</title>
<polygon fill="none" stroke="black" points="3016,-165.5 3016,-264.5 3239,-264.5 3239,-165.5 3016,-165.5"/>
<text text-anchor="middle" x="3127.5" y="-249.3" font-family="Times,serif" font-size="14.00">scludam.stat_tests.RipleyKTestResult</text>
<polyline fill="none" stroke="black" points="3016,-241.5 3239,-241.5 "/>
<text text-anchor="start" x="3024" y="-226.3" font-family="Times,serif" font-size="14.00">l_function</text>
<text text-anchor="start" x="3024" y="-211.3" font-family="Times,serif" font-size="14.00">radii</text>
<text text-anchor="start" x="3024" y="-196.3" font-family="Times,serif" font-size="14.00">value : Number</text>
<polyline fill="none" stroke="black" points="3016,-188.5 3239,-188.5 "/>
<text text-anchor="middle" x="3127.5" y="-173.3" font-family="Times,serif" font-size="14.00"> </text>
</g>
<!-- scludam.stat_tests.RipleyKTestResult&#45;&gt;scludam.stat_tests.TestResult -->
<g id="edge5" class="edge">
<title>scludam.stat_tests.RipleyKTestResult&#45;&gt;scludam.stat_tests.TestResult</title>
<path fill="none" stroke="black" d="M3106.27,-264.61C3084.98,-310.16 3049.29,-378.71 3006.5,-430 2988.01,-452.16 2964.16,-473.17 2942.6,-490.17"/>
<polygon fill="none" stroke="black" points="2940.22,-487.58 2934.47,-496.48 2944.51,-493.11 2940.22,-487.58"/>
</g>
<!-- scludam.stat_tests.RipleysKTest -->
<g id="node10" class="node">
<title>scludam.stat_tests.RipleysKTest</title>
<polygon fill="none" stroke="black" points="1973,-98 1973,-332 2518,-332 2518,-98 1973,-98"/>
<text text-anchor="middle" x="2245.5" y="-316.8" font-family="Times,serif" font-size="14.00">scludam.stat_tests.RipleysKTest</text>
<polyline fill="none" stroke="black" points="1973,-309 2518,-309 "/>
<text text-anchor="start" x="1981" y="-293.8" font-family="Times,serif" font-size="14.00">_chiu_factors : dict</text>
<text text-anchor="start" x="1981" y="-278.8" font-family="Times,serif" font-size="14.00">_ripley_factors : dict</text>
<text text-anchor="start" x="1981" y="-263.8" font-family="Times,serif" font-size="14.00">_scaler : TransformerMixin</text>
<text text-anchor="start" x="1981" y="-248.8" font-family="Times,serif" font-size="14.00">factor : Optional[float]</text>
<text text-anchor="start" x="1981" y="-233.8" font-family="Times,serif" font-size="14.00">mode : str</text>
<text text-anchor="start" x="1981" y="-218.8" font-family="Times,serif" font-size="14.00">pvalue_threshold : float</text>
<text text-anchor="start" x="1981" y="-203.8" font-family="Times,serif" font-size="14.00">radii : Optional[Numeric1DArray]</text>
<text text-anchor="start" x="1981" y="-188.8" font-family="Times,serif" font-size="14.00">rk_estimator : Optional[RipleysKEstimator]</text>
<text text-anchor="start" x="1981" y="-173.8" font-family="Times,serif" font-size="14.00">rk_estimator : RipleysKEstimator</text>
<polyline fill="none" stroke="black" points="1973,-166 2518,-166 "/>
<text text-anchor="start" x="1981" y="-150.8" font-family="Times,serif" font-size="14.00">_check_pvalue_threshold(attribute, value)</text>
<text text-anchor="start" x="1981" y="-135.8" font-family="Times,serif" font-size="14.00">_empirical_csr_rule(l_function: Numeric2DArray, radii: Numeric2DArray, area: Number, n: int)</text>
<text text-anchor="start" x="1981" y="-120.8" font-family="Times,serif" font-size="14.00">_ks_rule(l_function: Numeric2DArray, radii: Numeric2DArray)</text>
<text text-anchor="start" x="1981" y="-105.8" font-family="Times,serif" font-size="14.00">test(data: Numeric2DArray)</text>
</g>
<!-- scludam.stat_tests.RipleysKTest&#45;&gt;scludam.stat_tests.StatTest -->
<g id="edge6" class="edge">
<title>scludam.stat_tests.RipleysKTest&#45;&gt;scludam.stat_tests.StatTest</title>
<path fill="none" stroke="black" d="M2093.83,-332.22C2051.78,-364.13 2006.01,-398.59 1963.5,-430 1936.54,-449.92 1906.37,-471.69 1881.04,-489.82"/>
<polygon fill="none" stroke="black" points="1878.74,-487.16 1872.64,-495.82 1882.81,-492.85 1878.74,-487.16"/>
</g>
<!-- scludam.synthetic.BivariateUniform -->
<g id="node13" class="node">
<title>scludam.synthetic.BivariateUniform</title>
<polygon fill="none" stroke="black" points="3257.5,-158 3257.5,-272 3583.5,-272 3583.5,-158 3257.5,-158"/>
<text text-anchor="middle" x="3420.5" y="-256.8" font-family="Times,serif" font-size="14.00">scludam.synthetic.BivariateUniform</text>
<polyline fill="none" stroke="black" points="3257.5,-249 3583.5,-249 "/>
<text text-anchor="start" x="3265.5" y="-233.8" font-family="Times,serif" font-size="14.00">dim : int</text>
<text text-anchor="start" x="3265.5" y="-218.8" font-family="Times,serif" font-size="14.00">locs : _SpecialForm</text>
<text text-anchor="start" x="3265.5" y="-203.8" font-family="Times,serif" font-size="14.00">scales : _SpecialForm</text>
<polyline fill="none" stroke="black" points="3257.5,-196 3583.5,-196 "/>
<text text-anchor="start" x="3265.5" y="-180.8" font-family="Times,serif" font-size="14.00">pdf(x: Union[Vector2, Vector2Array]): Numeric1DArray</text>
<text text-anchor="start" x="3265.5" y="-165.8" font-family="Times,serif" font-size="14.00">rvs(size: int): Vector2Array</text>
</g>
<!-- scludam.synthetic.EDSD -->
<g id="node14" class="node">
<title>scludam.synthetic.EDSD</title>
<polygon fill="none" stroke="black" points="3601.5,-83 3601.5,-347 3953.5,-347 3953.5,-83 3601.5,-83"/>
<text text-anchor="middle" x="3777.5" y="-331.8" font-family="Times,serif" font-size="14.00">scludam.synthetic.EDSD</text>
<polyline fill="none" stroke="black" points="3601.5,-324 3953.5,-324 "/>
<text text-anchor="start" x="3609.5" y="-308.8" font-family="Times,serif" font-size="14.00">w0 : float</text>
<text text-anchor="start" x="3609.5" y="-293.8" font-family="Times,serif" font-size="14.00">w0 : float</text>
<text text-anchor="start" x="3609.5" y="-278.8" font-family="Times,serif" font-size="14.00">wf : float</text>
<text text-anchor="start" x="3609.5" y="-263.8" font-family="Times,serif" font-size="14.00">wf : float</text>
<text text-anchor="start" x="3609.5" y="-248.8" font-family="Times,serif" font-size="14.00">wl : float</text>
<text text-anchor="start" x="3609.5" y="-233.8" font-family="Times,serif" font-size="14.00">wl : float</text>
<polyline fill="none" stroke="black" points="3601.5,-226 3953.5,-226 "/>
<text text-anchor="start" x="3609.5" y="-210.8" font-family="Times,serif" font-size="14.00">__init__(w0: float, wl: float, wf: float)</text>
<text text-anchor="start" x="3609.5" y="-195.8" font-family="Times,serif" font-size="14.00">_argcheck(wl: Number, w0: Number, wf: Number)</text>
<text text-anchor="start" x="3609.5" y="-180.8" font-family="Times,serif" font-size="14.00">_cdf(x, wl, w0, wf)</text>
<text text-anchor="start" x="3609.5" y="-165.8" font-family="Times,serif" font-size="14.00">_pdf(x, wl, w0, wf)</text>
<text text-anchor="start" x="3609.5" y="-150.8" font-family="Times,serif" font-size="14.00">_ppf(y, wl, w0, wf)</text>
<text text-anchor="start" x="3609.5" y="-135.8" font-family="Times,serif" font-size="14.00">cdf(x: Union[Number, Numeric1DArray]): Numeric1DArray</text>
<text text-anchor="start" x="3609.5" y="-120.8" font-family="Times,serif" font-size="14.00">pdf(x: Union[Number, Numeric1DArray]): Numeric1DArray</text>
<text text-anchor="start" x="3609.5" y="-105.8" font-family="Times,serif" font-size="14.00">ppf(y: Union[Number, Numeric1DArray]): Numeric1DArray</text>
<text text-anchor="start" x="3609.5" y="-90.8" font-family="Times,serif" font-size="14.00">rvs(size: int): Numeric1DArray</text>
</g>
<!-- scludam.synthetic.StarCluster -->
<g id="node15" class="node">
<title>scludam.synthetic.StarCluster</title>
<polygon fill="none" stroke="black" points="3971.5,-135.5 3971.5,-294.5 4263.5,-294.5 4263.5,-135.5 3971.5,-135.5"/>
<text text-anchor="middle" x="4117.5" y="-279.3" font-family="Times,serif" font-size="14.00">scludam.synthetic.StarCluster</text>
<polyline fill="none" stroke="black" points="3971.5,-271.5 4263.5,-271.5 "/>
<text text-anchor="start" x="3979.5" y="-256.3" font-family="Times,serif" font-size="14.00">n_stars : int</text>
<text text-anchor="start" x="3979.5" y="-241.3" font-family="Times,serif" font-size="14.00">pm : multi_rv_frozen</text>
<text text-anchor="start" x="3979.5" y="-226.3" font-family="Times,serif" font-size="14.00">representation_type : str</text>
<text text-anchor="start" x="3979.5" y="-211.3" font-family="Times,serif" font-size="14.00">space : multi_rv_frozen</text>
<polyline fill="none" stroke="black" points="3971.5,-203.5 4263.5,-203.5 "/>
<text text-anchor="start" x="3979.5" y="-188.3" font-family="Times,serif" font-size="14.00">pdf(data: pd.DataFrame): Numeric1DArray</text>
<text text-anchor="start" x="3979.5" y="-173.3" font-family="Times,serif" font-size="14.00">pm_pdf(data: pd.DataFrame): Numeric1DArray</text>
<text text-anchor="start" x="3979.5" y="-158.3" font-family="Times,serif" font-size="14.00">rvs(): pd.DataFrame</text>
<text text-anchor="start" x="3979.5" y="-143.3" font-family="Times,serif" font-size="14.00">space_pdf(data: pd.DataFrame): Numeric1DArray</text>
</g>
<!-- scludam.synthetic.StarField -->
<g id="node16" class="node">
<title>scludam.synthetic.StarField</title>
<polygon fill="none" stroke="black" points="4281.5,-135.5 4281.5,-294.5 4573.5,-294.5 4573.5,-135.5 4281.5,-135.5"/>
<text text-anchor="middle" x="4427.5" y="-279.3" font-family="Times,serif" font-size="14.00">scludam.synthetic.StarField</text>
<polyline fill="none" stroke="black" points="4281.5,-271.5 4573.5,-271.5 "/>
<text text-anchor="start" x="4289.5" y="-256.3" font-family="Times,serif" font-size="14.00">n_stars : int</text>
<text text-anchor="start" x="4289.5" y="-241.3" font-family="Times,serif" font-size="14.00">pm : multi_rv_frozen</text>
<text text-anchor="start" x="4289.5" y="-226.3" font-family="Times,serif" font-size="14.00">representation_type : str</text>
<text text-anchor="start" x="4289.5" y="-211.3" font-family="Times,serif" font-size="14.00">space : multi_rv_frozen</text>
<polyline fill="none" stroke="black" points="4281.5,-203.5 4573.5,-203.5 "/>
<text text-anchor="start" x="4289.5" y="-188.3" font-family="Times,serif" font-size="14.00">pdf(data: pd.DataFrame): Numeric1DArray</text>
<text text-anchor="start" x="4289.5" y="-173.3" font-family="Times,serif" font-size="14.00">pm_pdf(data: pd.DataFrame): Numeric1DArray</text>
<text text-anchor="start" x="4289.5" y="-158.3" font-family="Times,serif" font-size="14.00">rvs(): pd.DataFrame</text>
<text text-anchor="start" x="4289.5" y="-143.3" font-family="Times,serif" font-size="14.00">space_pdf(data: pd.DataFrame): Numeric1DArray</text>
</g>
<!-- scludam.synthetic.Synthetic -->
<g id="node17" class="node">
<title>scludam.synthetic.Synthetic</title>
<polygon fill="none" stroke="black" points="4342.5,-481.5 4342.5,-580.5 4512.5,-580.5 4512.5,-481.5 4342.5,-481.5"/>
<text text-anchor="middle" x="4427.5" y="-565.3" font-family="Times,serif" font-size="14.00">scludam.synthetic.Synthetic</text>
<polyline fill="none" stroke="black" points="4342.5,-557.5 4512.5,-557.5 "/>
<text text-anchor="start" x="4350.5" y="-542.3" font-family="Times,serif" font-size="14.00">clusters : List[StarCluster]</text>
<text text-anchor="start" x="4350.5" y="-527.3" font-family="Times,serif" font-size="14.00">representation_type : str</text>
<text text-anchor="start" x="4350.5" y="-512.3" font-family="Times,serif" font-size="14.00">star_field</text>
<polyline fill="none" stroke="black" points="4342.5,-504.5 4512.5,-504.5 "/>
<text text-anchor="start" x="4350.5" y="-489.3" font-family="Times,serif" font-size="14.00">rvs(): pd.DataFrame</text>
</g>
<!-- scludam.synthetic.StarField&#45;&gt;scludam.synthetic.Synthetic -->
<g id="edge7" class="edge">
<title>scludam.synthetic.StarField&#45;&gt;scludam.synthetic.Synthetic</title>
<path fill="none" stroke="black" d="M4427.5,-294.83C4427.5,-348.76 4427.5,-419.2 4427.5,-468.89"/>
<polygon fill="black" stroke="black" points="4427.5,-469.05 4431.5,-475.05 4427.5,-481.05 4423.5,-475.05 4427.5,-469.05"/>
<text text-anchor="middle" x="4453.5" y="-451.8" font-family="Times,serif" font-size="14.00" fill="green">star_field</text>
</g>
<!-- scludam.synthetic.TrivariateUniform -->
<g id="node18" class="node">
<title>scludam.synthetic.TrivariateUniform</title>
<polygon fill="none" stroke="black" points="4591.5,-158 4591.5,-272 4917.5,-272 4917.5,-158 4591.5,-158"/>
<text text-anchor="middle" x="4754.5" y="-256.8" font-family="Times,serif" font-size="14.00">scludam.synthetic.TrivariateUniform</text>
<polyline fill="none" stroke="black" points="4591.5,-249 4917.5,-249 "/>
<text text-anchor="start" x="4599.5" y="-233.8" font-family="Times,serif" font-size="14.00">dim : int</text>
<text text-anchor="start" x="4599.5" y="-218.8" font-family="Times,serif" font-size="14.00">locs : _SpecialForm</text>
<text text-anchor="start" x="4599.5" y="-203.8" font-family="Times,serif" font-size="14.00">scales : _SpecialForm</text>
<polyline fill="none" stroke="black" points="4591.5,-196 4917.5,-196 "/>
<text text-anchor="start" x="4599.5" y="-180.8" font-family="Times,serif" font-size="14.00">pdf(x: Union[Vector3, Vector3Array]): Numeric1DArray</text>
<text text-anchor="start" x="4599.5" y="-165.8" font-family="Times,serif" font-size="14.00">rvs(size: int): Vector3Array</text>
</g>
<!-- scludam.synthetic.UniformCircle -->
<g id="node19" class="node">
<title>scludam.synthetic.UniformCircle</title>
<polygon fill="none" stroke="black" points="4935.5,-158 4935.5,-272 5261.5,-272 5261.5,-158 4935.5,-158"/>
<text text-anchor="middle" x="5098.5" y="-256.8" font-family="Times,serif" font-size="14.00">scludam.synthetic.UniformCircle</text>
<polyline fill="none" stroke="black" points="4935.5,-249 5261.5,-249 "/>
<text text-anchor="start" x="4943.5" y="-233.8" font-family="Times,serif" font-size="14.00">center : _SpecialForm</text>
<text text-anchor="start" x="4943.5" y="-218.8" font-family="Times,serif" font-size="14.00">dim : int</text>
<text text-anchor="start" x="4943.5" y="-203.8" font-family="Times,serif" font-size="14.00">radius : Number</text>
<polyline fill="none" stroke="black" points="4935.5,-196 5261.5,-196 "/>
<text text-anchor="start" x="4943.5" y="-180.8" font-family="Times,serif" font-size="14.00">pdf(x: Union[Vector2, Vector2Array]): Numeric1DArray</text>
<text text-anchor="start" x="4943.5" y="-165.8" font-family="Times,serif" font-size="14.00">rvs(size: int): Vector2Array</text>
</g>
<!-- scludam.synthetic.UniformFrustum -->
<g id="node20" class="node">
<title>scludam.synthetic.UniformFrustum</title>
<polygon fill="none" stroke="black" points="5279.5,-135.5 5279.5,-294.5 5621.5,-294.5 5621.5,-135.5 5279.5,-135.5"/>
<text text-anchor="middle" x="5450.5" y="-279.3" font-family="Times,serif" font-size="14.00">scludam.synthetic.UniformFrustum</text>
<polyline fill="none" stroke="black" points="5279.5,-271.5 5621.5,-271.5 "/>
<text text-anchor="start" x="5287.5" y="-256.3" font-family="Times,serif" font-size="14.00">dim : int</text>
<text text-anchor="start" x="5287.5" y="-241.3" font-family="Times,serif" font-size="14.00">locs : _SpecialForm</text>
<text text-anchor="start" x="5287.5" y="-226.3" font-family="Times,serif" font-size="14.00">scales : _SpecialForm</text>
<polyline fill="none" stroke="black" points="5279.5,-218.5 5621.5,-218.5 "/>
<text text-anchor="start" x="5287.5" y="-203.3" font-family="Times,serif" font-size="14.00">_get_vertices()</text>
<text text-anchor="start" x="5287.5" y="-188.3" font-family="Times,serif" font-size="14.00">_is_inside_shape(data: Numeric2DArray)</text>
<text text-anchor="start" x="5287.5" y="-173.3" font-family="Times,serif" font-size="14.00">_volume()</text>
<text text-anchor="start" x="5287.5" y="-158.3" font-family="Times,serif" font-size="14.00">pdf(data: Union[Vector3, Vector3Array]): Numeric1DArray</text>
<text text-anchor="start" x="5287.5" y="-143.3" font-family="Times,serif" font-size="14.00">rvs(size: int): Vector3Array</text>
</g>
<!-- scludam.synthetic.UniformSphere -->
<g id="node21" class="node">
<title>scludam.synthetic.UniformSphere</title>
<polygon fill="none" stroke="black" points="5639.5,-158 5639.5,-272 5965.5,-272 5965.5,-158 5639.5,-158"/>
<text text-anchor="middle" x="5802.5" y="-256.8" font-family="Times,serif" font-size="14.00">scludam.synthetic.UniformSphere</text>
<polyline fill="none" stroke="black" points="5639.5,-249 5965.5,-249 "/>
<text text-anchor="start" x="5647.5" y="-233.8" font-family="Times,serif" font-size="14.00">center : _SpecialForm</text>
<text text-anchor="start" x="5647.5" y="-218.8" font-family="Times,serif" font-size="14.00">dim : int</text>
<text text-anchor="start" x="5647.5" y="-203.8" font-family="Times,serif" font-size="14.00">radius : Number</text>
<polyline fill="none" stroke="black" points="5639.5,-196 5965.5,-196 "/>
<text text-anchor="start" x="5647.5" y="-180.8" font-family="Times,serif" font-size="14.00">pdf(x: Union[Vector3, Vector3Array]): Numeric1DArray</text>
<text text-anchor="start" x="5647.5" y="-165.8" font-family="Times,serif" font-size="14.00">rvs(size: int): Vector3Array</text>
</g>
</g>
</svg>
