<?xml version="1.0" encoding="UTF-8" standalone="no"?>
<!DOCTYPE svg PUBLIC "-//W3C//DTD SVG 1.1//EN"
 "http://www.w3.org/Graphics/SVG/1.1/DTD/svg11.dtd">
<!-- Generated by graphviz version 2.43.0 (0)
 -->
<!-- Title: classes_scludam Pages: 1 -->
<svg width="7238pt" height="874pt"
 viewBox="0.00 0.00 7238.00 874.00" xmlns="http://www.w3.org/2000/svg" xmlns:xlink="http://www.w3.org/1999/xlink">
<g id="graph0" class="graph" transform="scale(1 1) rotate(0) translate(4 870)">
<title>classes_scludam</title>
<polygon fill="white" stroke="transparent" points="-4,4 -4,-870 7234,-870 7234,4 -4,4"/>
<!-- scludam.detection.CountPeakDetector -->
<g id="node1" class="node">
<title>scludam.detection.CountPeakDetector</title>
<polygon fill="none" stroke="black" points="0,-481.5 0,-865.5 628,-865.5 628,-481.5 0,-481.5"/>
<text text-anchor="middle" x="314" y="-850.3" font-family="Times,serif" font-size="14.00">scludam.detection.CountPeakDetector</text>
<polyline fill="none" stroke="black" points="0,-842.5 628,-842.5 "/>
<text text-anchor="start" x="8" y="-827.3" font-family="Times,serif" font-size="14.00">_data</text>
<text text-anchor="start" x="8" y="-812.3" font-family="Times,serif" font-size="14.00">_data : Optional[Numeric2DArray]</text>
<text text-anchor="start" x="8" y="-797.3" font-family="Times,serif" font-size="14.00">_last_result</text>
<text text-anchor="start" x="8" y="-782.3" font-family="Times,serif" font-size="14.00">_last_result : Optional[DetectionResult]</text>
<text text-anchor="start" x="8" y="-767.3" font-family="Times,serif" font-size="14.00">_offsets : _SpecialForm</text>
<text text-anchor="start" x="8" y="-752.3" font-family="Times,serif" font-size="14.00">_offsets : list</text>
<text text-anchor="start" x="8" y="-737.3" font-family="Times,serif" font-size="14.00">bin_shape : _SpecialForm</text>
<text text-anchor="start" x="8" y="-722.3" font-family="Times,serif" font-size="14.00">bin_shape : ndarray</text>
<text text-anchor="start" x="8" y="-707.3" font-family="Times,serif" font-size="14.00">mask : _SpecialForm</text>
<text text-anchor="start" x="8" y="-692.3" font-family="Times,serif" font-size="14.00">mask : ndarray</text>
<text text-anchor="start" x="8" y="-677.3" font-family="Times,serif" font-size="14.00">max_num_peaks : int</text>
<text text-anchor="start" x="8" y="-662.3" font-family="Times,serif" font-size="14.00">min_count : Number</text>
<text text-anchor="start" x="8" y="-647.3" font-family="Times,serif" font-size="14.00">min_dif : Number</text>
<text text-anchor="start" x="8" y="-632.3" font-family="Times,serif" font-size="14.00">min_interpeak_dist : int</text>
<text text-anchor="start" x="8" y="-617.3" font-family="Times,serif" font-size="14.00">min_score : Number</text>
<text text-anchor="start" x="8" y="-602.3" font-family="Times,serif" font-size="14.00">min_sigma_dif : Number</text>
<text text-anchor="start" x="8" y="-587.3" font-family="Times,serif" font-size="14.00">norm_mode : str</text>
<text text-anchor="start" x="8" y="-572.3" font-family="Times,serif" font-size="14.00">nyquist_offset : bool</text>
<text text-anchor="start" x="8" y="-557.3" font-family="Times,serif" font-size="14.00">remove_low_density_regions : bool</text>
<polyline fill="none" stroke="black" points="0,-549.5 628,-549.5 "/>
<text text-anchor="start" x="8" y="-534.3" font-family="Times,serif" font-size="14.00">_remove_low_density_regions(data: Numeric2DArray)</text>
<text text-anchor="start" x="8" y="-519.3" font-family="Times,serif" font-size="14.00">_set_nyquist_offsets()</text>
<text text-anchor="start" x="8" y="-504.3" font-family="Times,serif" font-size="14.00">detect(data: Numeric2DArray)</text>
<text text-anchor="start" x="8" y="-489.3" font-family="Times,serif" font-size="14.00">plot(peak: int, x: int, y: int, mode: str, labels: Union[List[str], None], cut_label_prec: int, center_label_prec: int)</text>
</g>
<!-- scludam.detection.DetectionResult -->
<g id="node2" class="node">
<title>scludam.detection.DetectionResult</title>
<polygon fill="none" stroke="black" points="211,-135.5 211,-294.5 417,-294.5 417,-135.5 211,-135.5"/>
<text text-anchor="middle" x="314" y="-279.3" font-family="Times,serif" font-size="14.00">scludam.detection.DetectionResult</text>
<polyline fill="none" stroke="black" points="211,-271.5 417,-271.5 "/>
<text text-anchor="start" x="219" y="-256.3" font-family="Times,serif" font-size="14.00">centers</text>
<text text-anchor="start" x="219" y="-241.3" font-family="Times,serif" font-size="14.00">counts : NDArray[np.number]</text>
<text text-anchor="start" x="219" y="-226.3" font-family="Times,serif" font-size="14.00">edges</text>
<text text-anchor="start" x="219" y="-211.3" font-family="Times,serif" font-size="14.00">indices</text>
<text text-anchor="start" x="219" y="-196.3" font-family="Times,serif" font-size="14.00">offsets</text>
<text text-anchor="start" x="219" y="-181.3" font-family="Times,serif" font-size="14.00">scores : NDArray[np.number]</text>
<text text-anchor="start" x="219" y="-166.3" font-family="Times,serif" font-size="14.00">sigmas : NDArray[np.number]</text>
<polyline fill="none" stroke="black" points="211,-158.5 417,-158.5 "/>
<text text-anchor="middle" x="314" y="-143.3" font-family="Times,serif" font-size="14.00"> </text>
</g>
<!-- scludam.detection.DetectionResult&#45;&gt;scludam.detection.CountPeakDetector -->
<g id="edge11" class="edge">
<title>scludam.detection.DetectionResult&#45;&gt;scludam.detection.CountPeakDetector</title>
<path fill="none" stroke="black" d="M289.71,-294.6C277.5,-342.95 266.37,-406.3 272,-463 272.21,-465.09 272.43,-467.2 272.66,-469.31"/>
<polygon fill="black" stroke="black" points="272.69,-469.57 277.36,-475.07 274.09,-481.49 269.42,-476 272.69,-469.57"/>
<text text-anchor="middle" x="303.5" y="-451.8" font-family="Times,serif" font-size="14.00" fill="green">_last_result</text>
</g>
<!-- scludam.detection.DetectionResult&#45;&gt;scludam.detection.CountPeakDetector -->
<g id="edge12" class="edge">
<title>scludam.detection.DetectionResult&#45;&gt;scludam.detection.CountPeakDetector</title>
<path fill="none" stroke="black" d="M326.11,-294.61C332.23,-343.09 337.82,-406.58 335,-463 334.9,-465.07 334.79,-467.15 334.67,-469.24"/>
<polygon fill="black" stroke="black" points="334.67,-469.34 338.31,-475.56 333.96,-481.32 330.32,-475.09 334.67,-469.34"/>
<text text-anchor="middle" x="367.5" y="-451.8" font-family="Times,serif" font-size="14.00" fill="green">_last_result</text>
</g>
<!-- scludam.fetcher.Config -->
<g id="node3" class="node">
<title>scludam.fetcher.Config</title>
<polygon fill="none" stroke="black" points="435.5,-128 435.5,-302 788.5,-302 788.5,-128 435.5,-128"/>
<text text-anchor="middle" x="612" y="-286.8" font-family="Times,serif" font-size="14.00">scludam.fetcher.Config</text>
<polyline fill="none" stroke="black" points="435.5,-279 788.5,-279 "/>
<text text-anchor="start" x="443.5" y="-263.8" font-family="Times,serif" font-size="14.00">MAIN_GAIA_ASTROMETRIC_EXCESS_NOISE : str</text>
<text text-anchor="start" x="443.5" y="-248.8" font-family="Times,serif" font-size="14.00">MAIN_GAIA_ASTROMETRIC_EXCESS_NOISE_SIG : str</text>
<text text-anchor="start" x="443.5" y="-233.8" font-family="Times,serif" font-size="14.00">MAIN_GAIA_BP_RP : str</text>
<text text-anchor="start" x="443.5" y="-218.8" font-family="Times,serif" font-size="14.00">MAIN_GAIA_BP_RP_EXCESS_FACTOR : str</text>
<text text-anchor="start" x="443.5" y="-203.8" font-family="Times,serif" font-size="14.00">MAIN_GAIA_DEC : str</text>
<text text-anchor="start" x="443.5" y="-188.8" font-family="Times,serif" font-size="14.00">MAIN_GAIA_RA : str</text>
<text text-anchor="start" x="443.5" y="-173.8" font-family="Times,serif" font-size="14.00">MAIN_GAIA_TABLE : str</text>
<text text-anchor="start" x="443.5" y="-158.8" font-family="Times,serif" font-size="14.00">ROW_LIMIT : int</text>
<polyline fill="none" stroke="black" points="435.5,-151 788.5,-151 "/>
<text text-anchor="middle" x="612" y="-135.8" font-family="Times,serif" font-size="14.00"> </text>
</g>
<!-- scludam.fetcher.Query -->
<g id="node4" class="node">
<title>scludam.fetcher.Query</title>
<polygon fill="none" stroke="black" points="807,-0.5 807,-429.5 1529,-429.5 1529,-0.5 807,-0.5"/>
<text text-anchor="middle" x="1168" y="-414.3" font-family="Times,serif" font-size="14.00">scludam.fetcher.Query</text>
<polyline fill="none" stroke="black" points="807,-406.5 1529,-406.5 "/>
<text text-anchor="start" x="815" y="-391.3" font-family="Times,serif" font-size="14.00">COUNT_QUERY_TEMPLATE : str</text>
<text text-anchor="start" x="815" y="-376.3" font-family="Times,serif" font-size="14.00">QUERY_TEMPLATE : str</text>
<text text-anchor="start" x="815" y="-361.3" font-family="Times,serif" font-size="14.00">columns : list</text>
<text text-anchor="start" x="815" y="-346.3" font-family="Times,serif" font-size="14.00">columns : list</text>
<text text-anchor="start" x="815" y="-331.3" font-family="Times,serif" font-size="14.00">conditions : List[LogicalExpression]</text>
<text text-anchor="start" x="815" y="-316.3" font-family="Times,serif" font-size="14.00">extra_columns : list</text>
<text text-anchor="start" x="815" y="-301.3" font-family="Times,serif" font-size="14.00">orderby : Optional[str]</text>
<text text-anchor="start" x="815" y="-286.3" font-family="Times,serif" font-size="14.00">orderby : str</text>
<text text-anchor="start" x="815" y="-271.3" font-family="Times,serif" font-size="14.00">row_limit : int</text>
<text text-anchor="start" x="815" y="-256.3" font-family="Times,serif" font-size="14.00">row_limit : int</text>
<text text-anchor="start" x="815" y="-241.3" font-family="Times,serif" font-size="14.00">table : str</text>
<polyline fill="none" stroke="black" points="807,-233.5 1529,-233.5 "/>
<text text-anchor="start" x="815" y="-218.3" font-family="Times,serif" font-size="14.00">_build_columns()</text>
<text text-anchor="start" x="815" y="-203.3" font-family="Times,serif" font-size="14.00">_build_conditions()</text>
<text text-anchor="start" x="815" y="-188.3" font-family="Times,serif" font-size="14.00">_validate_column(column: str)</text>
<text text-anchor="start" x="815" y="-173.3" font-family="Times,serif" font-size="14.00">_validate_operator(operator: str)</text>
<text text-anchor="start" x="815" y="-158.3" font-family="Times,serif" font-size="14.00">build()</text>
<text text-anchor="start" x="815" y="-143.3" font-family="Times,serif" font-size="14.00">build_count()</text>
<text text-anchor="start" x="815" y="-128.3" font-family="Times,serif" font-size="14.00">count()</text>
<text text-anchor="start" x="815" y="-113.3" font-family="Times,serif" font-size="14.00">get()</text>
<text text-anchor="start" x="815" y="-98.3" font-family="Times,serif" font-size="14.00">select()</text>
<text text-anchor="start" x="815" y="-83.3" font-family="Times,serif" font-size="14.00">top(row_limit: int)</text>
<text text-anchor="start" x="815" y="-68.3" font-family="Times,serif" font-size="14.00">where(condition: Union[Condition, List[Condition]])</text>
<text text-anchor="start" x="815" y="-53.3" font-family="Times,serif" font-size="14.00">where_aen_criterion(aen_value: Number, aen_sig_value: Number, aen_name: str, aen_sig_name: str)</text>
<text text-anchor="start" x="815" y="-38.3" font-family="Times,serif" font-size="14.00">where_arenou_criterion(bp_rp_name: str, bp_rp_ef_name: str)</text>
<text text-anchor="start" x="815" y="-23.3" font-family="Times,serif" font-size="14.00">where_in_circle(coords_or_name: Union[Coord, SkyCoord, str], radius: Union[int, float, Quantity], ra_name: str, dec_name: str)</text>
<text text-anchor="start" x="815" y="-8.3" font-family="Times,serif" font-size="14.00">where_or(condition: Union[Condition, List[Condition]])</text>
</g>
<!-- scludam.fetcher.SimbadResult -->
<g id="node5" class="node">
<title>scludam.fetcher.SimbadResult</title>
<polygon fill="none" stroke="black" points="1546.5,-173 1546.5,-257 1729.5,-257 1729.5,-173 1546.5,-173"/>
<text text-anchor="middle" x="1638" y="-241.8" font-family="Times,serif" font-size="14.00">scludam.fetcher.SimbadResult</text>
<polyline fill="none" stroke="black" points="1546.5,-234 1729.5,-234 "/>
<text text-anchor="start" x="1554.5" y="-218.8" font-family="Times,serif" font-size="14.00">coords : Optional[SkyCoord]</text>
<text text-anchor="start" x="1554.5" y="-203.8" font-family="Times,serif" font-size="14.00">table : Optional[Table]</text>
<polyline fill="none" stroke="black" points="1546.5,-196 1729.5,-196 "/>
<text text-anchor="middle" x="1638" y="-180.8" font-family="Times,serif" font-size="14.00"> </text>
</g>
<!-- scludam.fetcher.TableInfo -->
<g id="node6" class="node">
<title>scludam.fetcher.TableInfo</title>
<polygon fill="none" stroke="black" points="1748,-165.5 1748,-264.5 1908,-264.5 1908,-165.5 1748,-165.5"/>
<text text-anchor="middle" x="1828" y="-249.3" font-family="Times,serif" font-size="14.00">scludam.fetcher.TableInfo</text>
<polyline fill="none" stroke="black" points="1748,-241.5 1908,-241.5 "/>
<text text-anchor="start" x="1756" y="-226.3" font-family="Times,serif" font-size="14.00">columns : Table</text>
<text text-anchor="start" x="1756" y="-211.3" font-family="Times,serif" font-size="14.00">description : str</text>
<text text-anchor="start" x="1756" y="-196.3" font-family="Times,serif" font-size="14.00">name : str</text>
<polyline fill="none" stroke="black" points="1748,-188.5 1908,-188.5 "/>
<text text-anchor="middle" x="1828" y="-173.3" font-family="Times,serif" font-size="14.00"> </text>
</g>
<!-- scludam.masker.CenterMasker -->
<g id="node7" class="node">
<title>scludam.masker.CenterMasker</title>
<polygon fill="none" stroke="black" points="1926,-173 1926,-257 2112,-257 2112,-173 1926,-173"/>
<text text-anchor="middle" x="2019" y="-241.8" font-family="Times,serif" font-size="14.00">scludam.masker.CenterMasker</text>
<polyline fill="none" stroke="black" points="1926,-234 2112,-234 "/>
<text text-anchor="start" x="1934" y="-218.8" font-family="Times,serif" font-size="14.00">center : Union[list, np.ndarray]</text>
<text text-anchor="start" x="1934" y="-203.8" font-family="Times,serif" font-size="14.00">radius : Union[int, float]</text>
<polyline fill="none" stroke="black" points="1926,-196 2112,-196 "/>
<text text-anchor="start" x="1934" y="-180.8" font-family="Times,serif" font-size="14.00">mask(data: np.ndarray)</text>
</g>
<!-- scludam.masker.DataMasker -->
<g id="node9" class="node">
<title>scludam.masker.DataMasker</title>
<polygon fill="none" stroke="black" points="2237,-638.5 2237,-708.5 2413,-708.5 2413,-638.5 2237,-638.5"/>
<text text-anchor="middle" x="2325" y="-693.3" font-family="Times,serif" font-size="14.00">scludam.masker.DataMasker</text>
<polyline fill="none" stroke="black" points="2237,-685.5 2413,-685.5 "/>
<polyline fill="none" stroke="black" points="2237,-661.5 2413,-661.5 "/>
<text text-anchor="start" x="2245" y="-646.3" font-family="Times,serif" font-size="14.00">mask(data): np.ndarray</text>
</g>
<!-- scludam.masker.CenterMasker&#45;&gt;scludam.masker.DataMasker -->
<g id="edge1" class="edge">
<title>scludam.masker.CenterMasker&#45;&gt;scludam.masker.DataMasker</title>
<path fill="none" stroke="black" d="M2034.89,-257.06C2052.87,-301.38 2084.46,-373.25 2121,-430 2169.95,-506.02 2240.13,-584.38 2284.1,-630.74"/>
<polygon fill="none" stroke="black" points="2281.76,-633.36 2291.2,-638.18 2286.83,-628.53 2281.76,-633.36"/>
</g>
<!-- scludam.masker.CrustMasker -->
<g id="node8" class="node">
<title>scludam.masker.CrustMasker</title>
<polygon fill="none" stroke="black" points="2130.5,-173 2130.5,-257 2309.5,-257 2309.5,-173 2130.5,-173"/>
<text text-anchor="middle" x="2220" y="-241.8" font-family="Times,serif" font-size="14.00">scludam.masker.CrustMasker</text>
<polyline fill="none" stroke="black" points="2130.5,-234 2309.5,-234 "/>
<text text-anchor="start" x="2138.5" y="-218.8" font-family="Times,serif" font-size="14.00">mode : str</text>
<text text-anchor="start" x="2138.5" y="-203.8" font-family="Times,serif" font-size="14.00">percentage : Union[int, float]</text>
<polyline fill="none" stroke="black" points="2130.5,-196 2309.5,-196 "/>
<text text-anchor="start" x="2138.5" y="-180.8" font-family="Times,serif" font-size="14.00">mask(data: np.ndarray)</text>
</g>
<!-- scludam.masker.CrustMasker&#45;&gt;scludam.masker.DataMasker -->
<g id="edge2" class="edge">
<title>scludam.masker.CrustMasker&#45;&gt;scludam.masker.DataMasker</title>
<path fill="none" stroke="black" d="M2229.5,-257.32C2249.24,-343.14 2294.53,-540.03 2314.83,-628.29"/>
<polygon fill="none" stroke="black" points="2311.47,-629.28 2317.12,-638.24 2318.29,-627.71 2311.47,-629.28"/>
</g>
<!-- scludam.masker.DistanceMasker -->
<g id="node10" class="node">
<title>scludam.masker.DistanceMasker</title>
<polygon fill="none" stroke="black" points="2328,-158 2328,-272 2534,-272 2534,-158 2328,-158"/>
<text text-anchor="middle" x="2431" y="-256.8" font-family="Times,serif" font-size="14.00">scludam.masker.DistanceMasker</text>
<polyline fill="none" stroke="black" points="2328,-249 2534,-249 "/>
<text text-anchor="start" x="2336" y="-233.8" font-family="Times,serif" font-size="14.00">center : Union[list, np.ndarray, str]</text>
<text text-anchor="start" x="2336" y="-218.8" font-family="Times,serif" font-size="14.00">metric : str</text>
<text text-anchor="start" x="2336" y="-203.8" font-family="Times,serif" font-size="14.00">mode : str</text>
<text text-anchor="start" x="2336" y="-188.8" font-family="Times,serif" font-size="14.00">percentage : Union[int, float]</text>
<polyline fill="none" stroke="black" points="2328,-181 2534,-181 "/>
<text text-anchor="start" x="2336" y="-165.8" font-family="Times,serif" font-size="14.00">mask(data: np.ndarray)</text>
</g>
<!-- scludam.masker.DistanceMasker&#45;&gt;scludam.masker.DataMasker -->
<g id="edge3" class="edge">
<title>scludam.masker.DistanceMasker&#45;&gt;scludam.masker.DataMasker</title>
<path fill="none" stroke="black" d="M2417.9,-272.43C2396.52,-364.49 2354.59,-545.05 2335.24,-628.41"/>
<polygon fill="none" stroke="black" points="2331.79,-627.78 2332.94,-638.32 2338.61,-629.37 2331.79,-627.78"/>
</g>
<!-- scludam.masker.RangeMasker -->
<g id="node11" class="node">
<title>scludam.masker.RangeMasker</title>
<polygon fill="none" stroke="black" points="2552.5,-180.5 2552.5,-249.5 2737.5,-249.5 2737.5,-180.5 2552.5,-180.5"/>
<text text-anchor="middle" x="2645" y="-234.3" font-family="Times,serif" font-size="14.00">scludam.masker.RangeMasker</text>
<polyline fill="none" stroke="black" points="2552.5,-226.5 2737.5,-226.5 "/>
<text text-anchor="start" x="2560.5" y="-211.3" font-family="Times,serif" font-size="14.00">limits : Union[list, np.ndarray]</text>
<polyline fill="none" stroke="black" points="2552.5,-203.5 2737.5,-203.5 "/>
<text text-anchor="start" x="2560.5" y="-188.3" font-family="Times,serif" font-size="14.00">mask(data: np.ndarray)</text>
</g>
<!-- scludam.masker.RangeMasker&#45;&gt;scludam.masker.DataMasker -->
<g id="edge4" class="edge">
<title>scludam.masker.RangeMasker&#45;&gt;scludam.masker.DataMasker</title>
<path fill="none" stroke="black" d="M2632.4,-249.84C2615.4,-293.42 2582.64,-370.61 2543,-430 2491.39,-507.32 2416.29,-585.23 2369.07,-631.15"/>
<polygon fill="none" stroke="black" points="2366.5,-628.78 2361.74,-638.25 2371.36,-633.81 2366.5,-628.78"/>
</g>
<!-- scludam.stat_tests.DipDistTest -->
<g id="node12" class="node">
<title>scludam.stat_tests.DipDistTest</title>
<polygon fill="none" stroke="black" points="2755.5,-165.5 2755.5,-264.5 2940.5,-264.5 2940.5,-165.5 2755.5,-165.5"/>
<text text-anchor="middle" x="2848" y="-249.3" font-family="Times,serif" font-size="14.00">scludam.stat_tests.DipDistTest</text>
<polyline fill="none" stroke="black" points="2755.5,-241.5 2940.5,-241.5 "/>
<text text-anchor="start" x="2763.5" y="-226.3" font-family="Times,serif" font-size="14.00">metric : str</text>
<text text-anchor="start" x="2763.5" y="-211.3" font-family="Times,serif" font-size="14.00">n_samples : Optional[int]</text>
<text text-anchor="start" x="2763.5" y="-196.3" font-family="Times,serif" font-size="14.00">pvalue_threshold : float</text>
<polyline fill="none" stroke="black" points="2755.5,-188.5 2940.5,-188.5 "/>
<text text-anchor="start" x="2763.5" y="-173.3" font-family="Times,serif" font-size="14.00">test(data: Numeric2DArray)</text>
</g>
<!-- scludam.stat_tests.StatTest -->
<g id="node18" class="node">
<title>scludam.stat_tests.StatTest</title>
<polygon fill="none" stroke="black" points="2971.5,-638.5 2971.5,-708.5 3206.5,-708.5 3206.5,-638.5 2971.5,-638.5"/>
<text text-anchor="middle" x="3089" y="-693.3" font-family="Times,serif" font-size="14.00">scludam.stat_tests.StatTest</text>
<polyline fill="none" stroke="black" points="2971.5,-685.5 3206.5,-685.5 "/>
<polyline fill="none" stroke="black" points="2971.5,-661.5 3206.5,-661.5 "/>
<text text-anchor="start" x="2979.5" y="-646.3" font-family="Times,serif" font-size="14.00">test(data: Numeric2DArray): TestResult</text>
</g>
<!-- scludam.stat_tests.DipDistTest&#45;&gt;scludam.stat_tests.StatTest -->
<g id="edge5" class="edge">
<title>scludam.stat_tests.DipDistTest&#45;&gt;scludam.stat_tests.StatTest</title>
<path fill="none" stroke="black" d="M2869.86,-264.54C2889.85,-308.25 2920.68,-374.04 2950,-430 2987.24,-501.07 3034.36,-581.5 3063.06,-629.54"/>
<polygon fill="none" stroke="black" points="3060.23,-631.64 3068.37,-638.42 3066.24,-628.04 3060.23,-631.64"/>
</g>
<!-- scludam.stat_tests.DipDistTestResult -->
<g id="node13" class="node">
<title>scludam.stat_tests.DipDistTestResult</title>
<polygon fill="none" stroke="black" points="3801,-165.5 3801,-264.5 4021,-264.5 4021,-165.5 3801,-165.5"/>
<text text-anchor="middle" x="3911" y="-249.3" font-family="Times,serif" font-size="14.00">scludam.stat_tests.DipDistTestResult</text>
<polyline fill="none" stroke="black" points="3801,-241.5 4021,-241.5 "/>
<text text-anchor="start" x="3809" y="-226.3" font-family="Times,serif" font-size="14.00">dist</text>
<text text-anchor="start" x="3809" y="-211.3" font-family="Times,serif" font-size="14.00">pvalue : Number</text>
<text text-anchor="start" x="3809" y="-196.3" font-family="Times,serif" font-size="14.00">value : Number</text>
<polyline fill="none" stroke="black" points="3801,-188.5 4021,-188.5 "/>
<text text-anchor="middle" x="3911" y="-173.3" font-family="Times,serif" font-size="14.00"> </text>
</g>
<!-- scludam.stat_tests.TestResult -->
<g id="node19" class="node">
<title>scludam.stat_tests.TestResult</title>
<polygon fill="none" stroke="black" points="4062.5,-639 4062.5,-708 4239.5,-708 4239.5,-639 4062.5,-639"/>
<text text-anchor="middle" x="4151" y="-692.8" font-family="Times,serif" font-size="14.00">scludam.stat_tests.TestResult</text>
<polyline fill="none" stroke="black" points="4062.5,-685 4239.5,-685 "/>
<text text-anchor="start" x="4070.5" y="-669.8" font-family="Times,serif" font-size="14.00">rejectH0 : bool</text>
<polyline fill="none" stroke="black" points="4062.5,-662 4239.5,-662 "/>
<text text-anchor="middle" x="4151" y="-646.8" font-family="Times,serif" font-size="14.00"> </text>
</g>
<!-- scludam.stat_tests.DipDistTestResult&#45;&gt;scludam.stat_tests.TestResult -->
<g id="edge6" class="edge">
<title>scludam.stat_tests.DipDistTestResult&#45;&gt;scludam.stat_tests.TestResult</title>
<path fill="none" stroke="black" d="M3936.68,-264.85C3983.94,-354.73 4083.9,-544.87 4128.59,-629.87"/>
<polygon fill="none" stroke="black" points="4125.5,-631.51 4133.25,-638.74 4131.69,-628.26 4125.5,-631.51"/>
</g>
<!-- scludam.stat_tests.HopkinsTest -->
<g id="node14" class="node">
<title>scludam.stat_tests.HopkinsTest</title>
<polygon fill="none" stroke="black" points="2959,-143 2959,-287 3219,-287 3219,-143 2959,-143"/>
<text text-anchor="middle" x="3089" y="-271.8" font-family="Times,serif" font-size="14.00">scludam.stat_tests.HopkinsTest</text>
<polyline fill="none" stroke="black" points="2959,-264 3219,-264 "/>
<text text-anchor="start" x="2967" y="-248.8" font-family="Times,serif" font-size="14.00">metric : Union[str, DistanceMetric]</text>
<text text-anchor="start" x="2967" y="-233.8" font-family="Times,serif" font-size="14.00">n_iters : int</text>
<text text-anchor="start" x="2967" y="-218.8" font-family="Times,serif" font-size="14.00">n_samples : Optional[int]</text>
<text text-anchor="start" x="2967" y="-203.8" font-family="Times,serif" font-size="14.00">pvalue_threshold : float</text>
<text text-anchor="start" x="2967" y="-188.8" font-family="Times,serif" font-size="14.00">threshold : Optional[Number]</text>
<polyline fill="none" stroke="black" points="2959,-181 3219,-181 "/>
<text text-anchor="start" x="2967" y="-165.8" font-family="Times,serif" font-size="14.00">_get_pvalue(value: Number, n_samples: int)</text>
<text text-anchor="start" x="2967" y="-150.8" font-family="Times,serif" font-size="14.00">test(data: Numeric2DArray)</text>
</g>
<!-- scludam.stat_tests.HopkinsTest&#45;&gt;scludam.stat_tests.StatTest -->
<g id="edge7" class="edge">
<title>scludam.stat_tests.HopkinsTest&#45;&gt;scludam.stat_tests.StatTest</title>
<path fill="none" stroke="black" d="M3089,-287.33C3089,-382.72 3089,-549 3089,-628.16"/>
<polygon fill="none" stroke="black" points="3085.5,-628.28 3089,-638.28 3092.5,-628.28 3085.5,-628.28"/>
</g>
<!-- scludam.stat_tests.HopkinsTestResult -->
<g id="node15" class="node">
<title>scludam.stat_tests.HopkinsTestResult</title>
<polygon fill="none" stroke="black" points="4039.5,-173 4039.5,-257 4262.5,-257 4262.5,-173 4039.5,-173"/>
<text text-anchor="middle" x="4151" y="-241.8" font-family="Times,serif" font-size="14.00">scludam.stat_tests.HopkinsTestResult</text>
<polyline fill="none" stroke="black" points="4039.5,-234 4262.5,-234 "/>
<text text-anchor="start" x="4047.5" y="-218.8" font-family="Times,serif" font-size="14.00">pvalue : Number</text>
<text text-anchor="start" x="4047.5" y="-203.8" font-family="Times,serif" font-size="14.00">value : Number</text>
<polyline fill="none" stroke="black" points="4039.5,-196 4262.5,-196 "/>
<text text-anchor="middle" x="4151" y="-180.8" font-family="Times,serif" font-size="14.00"> </text>
</g>
<!-- scludam.stat_tests.HopkinsTestResult&#45;&gt;scludam.stat_tests.TestResult -->
<g id="edge8" class="edge">
<title>scludam.stat_tests.HopkinsTestResult&#45;&gt;scludam.stat_tests.TestResult</title>
<path fill="none" stroke="black" d="M4151,-257.32C4151,-343.26 4151,-540.6 4151,-628.67"/>
<polygon fill="none" stroke="black" points="4147.5,-628.85 4151,-638.85 4154.5,-628.85 4147.5,-628.85"/>
</g>
<!-- scludam.stat_tests.RipleyKTestResult -->
<g id="node16" class="node">
<title>scludam.stat_tests.RipleyKTestResult</title>
<polygon fill="none" stroke="black" points="4280.5,-165.5 4280.5,-264.5 4503.5,-264.5 4503.5,-165.5 4280.5,-165.5"/>
<text text-anchor="middle" x="4392" y="-249.3" font-family="Times,serif" font-size="14.00">scludam.stat_tests.RipleyKTestResult</text>
<polyline fill="none" stroke="black" points="4280.5,-241.5 4503.5,-241.5 "/>
<text text-anchor="start" x="4288.5" y="-226.3" font-family="Times,serif" font-size="14.00">l_function</text>
<text text-anchor="start" x="4288.5" y="-211.3" font-family="Times,serif" font-size="14.00">radii</text>
<text text-anchor="start" x="4288.5" y="-196.3" font-family="Times,serif" font-size="14.00">value : Number</text>
<polyline fill="none" stroke="black" points="4280.5,-188.5 4503.5,-188.5 "/>
<text text-anchor="middle" x="4392" y="-173.3" font-family="Times,serif" font-size="14.00"> </text>
</g>
<!-- scludam.stat_tests.RipleyKTestResult&#45;&gt;scludam.stat_tests.TestResult -->
<g id="edge9" class="edge">
<title>scludam.stat_tests.RipleyKTestResult&#45;&gt;scludam.stat_tests.TestResult</title>
<path fill="none" stroke="black" d="M4366.21,-264.85C4318.76,-354.73 4218.38,-544.87 4173.5,-629.87"/>
<polygon fill="none" stroke="black" points="4170.4,-628.26 4168.83,-638.74 4176.59,-631.53 4170.4,-628.26"/>
</g>
<!-- scludam.stat_tests.RipleysKTest -->
<g id="node17" class="node">
<title>scludam.stat_tests.RipleysKTest</title>
<polygon fill="none" stroke="black" points="3237.5,-98 3237.5,-332 3782.5,-332 3782.5,-98 3237.5,-98"/>
<text text-anchor="middle" x="3510" y="-316.8" font-family="Times,serif" font-size="14.00">scludam.stat_tests.RipleysKTest</text>
<polyline fill="none" stroke="black" points="3237.5,-309 3782.5,-309 "/>
<text text-anchor="start" x="3245.5" y="-293.8" font-family="Times,serif" font-size="14.00">_chiu_factors : dict</text>
<text text-anchor="start" x="3245.5" y="-278.8" font-family="Times,serif" font-size="14.00">_ripley_factors : dict</text>
<text text-anchor="start" x="3245.5" y="-263.8" font-family="Times,serif" font-size="14.00">_scaler : TransformerMixin</text>
<text text-anchor="start" x="3245.5" y="-248.8" font-family="Times,serif" font-size="14.00">factor : Optional[float]</text>
<text text-anchor="start" x="3245.5" y="-233.8" font-family="Times,serif" font-size="14.00">mode : str</text>
<text text-anchor="start" x="3245.5" y="-218.8" font-family="Times,serif" font-size="14.00">pvalue_threshold : float</text>
<text text-anchor="start" x="3245.5" y="-203.8" font-family="Times,serif" font-size="14.00">radii : Optional[Numeric1DArray]</text>
<text text-anchor="start" x="3245.5" y="-188.8" font-family="Times,serif" font-size="14.00">rk_estimator : Optional[RipleysKEstimator]</text>
<text text-anchor="start" x="3245.5" y="-173.8" font-family="Times,serif" font-size="14.00">rk_estimator : RipleysKEstimator</text>
<polyline fill="none" stroke="black" points="3237.5,-166 3782.5,-166 "/>
<text text-anchor="start" x="3245.5" y="-150.8" font-family="Times,serif" font-size="14.00">_check_pvalue_threshold(attribute, value)</text>
<text text-anchor="start" x="3245.5" y="-135.8" font-family="Times,serif" font-size="14.00">_empirical_csr_rule(l_function: Numeric2DArray, radii: Numeric2DArray, area: Number, n: int)</text>
<text text-anchor="start" x="3245.5" y="-120.8" font-family="Times,serif" font-size="14.00">_ks_rule(l_function: Numeric2DArray, radii: Numeric2DArray)</text>
<text text-anchor="start" x="3245.5" y="-105.8" font-family="Times,serif" font-size="14.00">test(data: Numeric2DArray)</text>
</g>
<!-- scludam.stat_tests.RipleysKTest&#45;&gt;scludam.stat_tests.StatTest -->
<g id="edge10" class="edge">
<title>scludam.stat_tests.RipleysKTest&#45;&gt;scludam.stat_tests.StatTest</title>
<path fill="none" stroke="black" d="M3402.95,-332.08C3312.87,-429.75 3189.16,-563.89 3127.38,-630.89"/>
<polygon fill="none" stroke="black" points="3124.72,-628.6 3120.51,-638.33 3129.87,-633.35 3124.72,-628.6"/>
</g>
<!-- scludam.synthetic.BivariateUniform -->
<g id="node20" class="node">
<title>scludam.synthetic.BivariateUniform</title>
<polygon fill="none" stroke="black" points="4522,-158 4522,-272 4848,-272 4848,-158 4522,-158"/>
<text text-anchor="middle" x="4685" y="-256.8" font-family="Times,serif" font-size="14.00">scludam.synthetic.BivariateUniform</text>
<polyline fill="none" stroke="black" points="4522,-249 4848,-249 "/>
<text text-anchor="start" x="4530" y="-233.8" font-family="Times,serif" font-size="14.00">dim : int</text>
<text text-anchor="start" x="4530" y="-218.8" font-family="Times,serif" font-size="14.00">locs : _SpecialForm</text>
<text text-anchor="start" x="4530" y="-203.8" font-family="Times,serif" font-size="14.00">scales : _SpecialForm</text>
<polyline fill="none" stroke="black" points="4522,-196 4848,-196 "/>
<text text-anchor="start" x="4530" y="-180.8" font-family="Times,serif" font-size="14.00">pdf(x: Union[Vector2, Vector2Array]): Numeric1DArray</text>
<text text-anchor="start" x="4530" y="-165.8" font-family="Times,serif" font-size="14.00">rvs(size: int): Vector2Array</text>
</g>
<!-- scludam.synthetic.EDSD -->
<g id="node21" class="node">
<title>scludam.synthetic.EDSD</title>
<polygon fill="none" stroke="black" points="4866,-83 4866,-347 5218,-347 5218,-83 4866,-83"/>
<text text-anchor="middle" x="5042" y="-331.8" font-family="Times,serif" font-size="14.00">scludam.synthetic.EDSD</text>
<polyline fill="none" stroke="black" points="4866,-324 5218,-324 "/>
<text text-anchor="start" x="4874" y="-308.8" font-family="Times,serif" font-size="14.00">w0 : float</text>
<text text-anchor="start" x="4874" y="-293.8" font-family="Times,serif" font-size="14.00">w0 : float</text>
<text text-anchor="start" x="4874" y="-278.8" font-family="Times,serif" font-size="14.00">wf : float</text>
<text text-anchor="start" x="4874" y="-263.8" font-family="Times,serif" font-size="14.00">wf : float</text>
<text text-anchor="start" x="4874" y="-248.8" font-family="Times,serif" font-size="14.00">wl : float</text>
<text text-anchor="start" x="4874" y="-233.8" font-family="Times,serif" font-size="14.00">wl : float</text>
<polyline fill="none" stroke="black" points="4866,-226 5218,-226 "/>
<text text-anchor="start" x="4874" y="-210.8" font-family="Times,serif" font-size="14.00">__init__(w0: float, wl: float, wf: float)</text>
<text text-anchor="start" x="4874" y="-195.8" font-family="Times,serif" font-size="14.00">_argcheck(wl: Number, w0: Number, wf: Number)</text>
<text text-anchor="start" x="4874" y="-180.8" font-family="Times,serif" font-size="14.00">_cdf(x, wl, w0, wf)</text>
<text text-anchor="start" x="4874" y="-165.8" font-family="Times,serif" font-size="14.00">_pdf(x, wl, w0, wf)</text>
<text text-anchor="start" x="4874" y="-150.8" font-family="Times,serif" font-size="14.00">_ppf(y, wl, w0, wf)</text>
<text text-anchor="start" x="4874" y="-135.8" font-family="Times,serif" font-size="14.00">cdf(x: Union[Number, Numeric1DArray]): Numeric1DArray</text>
<text text-anchor="start" x="4874" y="-120.8" font-family="Times,serif" font-size="14.00">pdf(x: Union[Number, Numeric1DArray]): Numeric1DArray</text>
<text text-anchor="start" x="4874" y="-105.8" font-family="Times,serif" font-size="14.00">ppf(y: Union[Number, Numeric1DArray]): Numeric1DArray</text>
<text text-anchor="start" x="4874" y="-90.8" font-family="Times,serif" font-size="14.00">rvs(size: int): Numeric1DArray</text>
</g>
<!-- scludam.synthetic.StarCluster -->
<g id="node22" class="node">
<title>scludam.synthetic.StarCluster</title>
<polygon fill="none" stroke="black" points="5236,-135.5 5236,-294.5 5528,-294.5 5528,-135.5 5236,-135.5"/>
<text text-anchor="middle" x="5382" y="-279.3" font-family="Times,serif" font-size="14.00">scludam.synthetic.StarCluster</text>
<polyline fill="none" stroke="black" points="5236,-271.5 5528,-271.5 "/>
<text text-anchor="start" x="5244" y="-256.3" font-family="Times,serif" font-size="14.00">n_stars : int</text>
<text text-anchor="start" x="5244" y="-241.3" font-family="Times,serif" font-size="14.00">pm : multi_rv_frozen</text>
<text text-anchor="start" x="5244" y="-226.3" font-family="Times,serif" font-size="14.00">representation_type : str</text>
<text text-anchor="start" x="5244" y="-211.3" font-family="Times,serif" font-size="14.00">space : multi_rv_frozen</text>
<polyline fill="none" stroke="black" points="5236,-203.5 5528,-203.5 "/>
<text text-anchor="start" x="5244" y="-188.3" font-family="Times,serif" font-size="14.00">pdf(data: pd.DataFrame): Numeric1DArray</text>
<text text-anchor="start" x="5244" y="-173.3" font-family="Times,serif" font-size="14.00">pm_pdf(data: pd.DataFrame): Numeric1DArray</text>
<text text-anchor="start" x="5244" y="-158.3" font-family="Times,serif" font-size="14.00">rvs(): pd.DataFrame</text>
<text text-anchor="start" x="5244" y="-143.3" font-family="Times,serif" font-size="14.00">space_pdf(data: pd.DataFrame): Numeric1DArray</text>
</g>
<!-- scludam.synthetic.StarField -->
<g id="node23" class="node">
<title>scludam.synthetic.StarField</title>
<polygon fill="none" stroke="black" points="5546,-135.5 5546,-294.5 5838,-294.5 5838,-135.5 5546,-135.5"/>
<text text-anchor="middle" x="5692" y="-279.3" font-family="Times,serif" font-size="14.00">scludam.synthetic.StarField</text>
<polyline fill="none" stroke="black" points="5546,-271.5 5838,-271.5 "/>
<text text-anchor="start" x="5554" y="-256.3" font-family="Times,serif" font-size="14.00">n_stars : int</text>
<text text-anchor="start" x="5554" y="-241.3" font-family="Times,serif" font-size="14.00">pm : multi_rv_frozen</text>
<text text-anchor="start" x="5554" y="-226.3" font-family="Times,serif" font-size="14.00">representation_type : str</text>
<text text-anchor="start" x="5554" y="-211.3" font-family="Times,serif" font-size="14.00">space : multi_rv_frozen</text>
<polyline fill="none" stroke="black" points="5546,-203.5 5838,-203.5 "/>
<text text-anchor="start" x="5554" y="-188.3" font-family="Times,serif" font-size="14.00">pdf(data: pd.DataFrame): Numeric1DArray</text>
<text text-anchor="start" x="5554" y="-173.3" font-family="Times,serif" font-size="14.00">pm_pdf(data: pd.DataFrame): Numeric1DArray</text>
<text text-anchor="start" x="5554" y="-158.3" font-family="Times,serif" font-size="14.00">rvs(): pd.DataFrame</text>
<text text-anchor="start" x="5554" y="-143.3" font-family="Times,serif" font-size="14.00">space_pdf(data: pd.DataFrame): Numeric1DArray</text>
</g>
<!-- scludam.synthetic.Synthetic -->
<g id="node24" class="node">
<title>scludam.synthetic.Synthetic</title>
<polygon fill="none" stroke="black" points="5607,-624 5607,-723 5777,-723 5777,-624 5607,-624"/>
<text text-anchor="middle" x="5692" y="-707.8" font-family="Times,serif" font-size="14.00">scludam.synthetic.Synthetic</text>
<polyline fill="none" stroke="black" points="5607,-700 5777,-700 "/>
<text text-anchor="start" x="5615" y="-684.8" font-family="Times,serif" font-size="14.00">clusters : List[StarCluster]</text>
<text text-anchor="start" x="5615" y="-669.8" font-family="Times,serif" font-size="14.00">representation_type : str</text>
<text text-anchor="start" x="5615" y="-654.8" font-family="Times,serif" font-size="14.00">star_field</text>
<polyline fill="none" stroke="black" points="5607,-647 5777,-647 "/>
<text text-anchor="start" x="5615" y="-631.8" font-family="Times,serif" font-size="14.00">rvs(): pd.DataFrame</text>
</g>
<!-- scludam.synthetic.StarField&#45;&gt;scludam.synthetic.Synthetic -->
<g id="edge13" class="edge">
<title>scludam.synthetic.StarField&#45;&gt;scludam.synthetic.Synthetic</title>
<path fill="none" stroke="black" d="M5692,-294.73C5692,-384.74 5692,-530.13 5692,-611.8"/>
<polygon fill="black" stroke="black" points="5692,-611.86 5696,-617.86 5692,-623.86 5688,-617.86 5692,-611.86"/>
<text text-anchor="middle" x="5718" y="-451.8" font-family="Times,serif" font-size="14.00" fill="green">star_field</text>
</g>
<!-- scludam.synthetic.TrivariateUniform -->
<g id="node25" class="node">
<title>scludam.synthetic.TrivariateUniform</title>
<polygon fill="none" stroke="black" points="5856,-158 5856,-272 6182,-272 6182,-158 5856,-158"/>
<text text-anchor="middle" x="6019" y="-256.8" font-family="Times,serif" font-size="14.00">scludam.synthetic.TrivariateUniform</text>
<polyline fill="none" stroke="black" points="5856,-249 6182,-249 "/>
<text text-anchor="start" x="5864" y="-233.8" font-family="Times,serif" font-size="14.00">dim : int</text>
<text text-anchor="start" x="5864" y="-218.8" font-family="Times,serif" font-size="14.00">locs : _SpecialForm</text>
<text text-anchor="start" x="5864" y="-203.8" font-family="Times,serif" font-size="14.00">scales : _SpecialForm</text>
<polyline fill="none" stroke="black" points="5856,-196 6182,-196 "/>
<text text-anchor="start" x="5864" y="-180.8" font-family="Times,serif" font-size="14.00">pdf(x: Union[Vector3, Vector3Array]): Numeric1DArray</text>
<text text-anchor="start" x="5864" y="-165.8" font-family="Times,serif" font-size="14.00">rvs(size: int): Vector3Array</text>
</g>
<!-- scludam.synthetic.UniformCircle -->
<g id="node26" class="node">
<title>scludam.synthetic.UniformCircle</title>
<polygon fill="none" stroke="black" points="6200,-158 6200,-272 6526,-272 6526,-158 6200,-158"/>
<text text-anchor="middle" x="6363" y="-256.8" font-family="Times,serif" font-size="14.00">scludam.synthetic.UniformCircle</text>
<polyline fill="none" stroke="black" points="6200,-249 6526,-249 "/>
<text text-anchor="start" x="6208" y="-233.8" font-family="Times,serif" font-size="14.00">center : _SpecialForm</text>
<text text-anchor="start" x="6208" y="-218.8" font-family="Times,serif" font-size="14.00">dim : int</text>
<text text-anchor="start" x="6208" y="-203.8" font-family="Times,serif" font-size="14.00">radius : Number</text>
<polyline fill="none" stroke="black" points="6200,-196 6526,-196 "/>
<text text-anchor="start" x="6208" y="-180.8" font-family="Times,serif" font-size="14.00">pdf(x: Union[Vector2, Vector2Array]): Numeric1DArray</text>
<text text-anchor="start" x="6208" y="-165.8" font-family="Times,serif" font-size="14.00">rvs(size: int): Vector2Array</text>
</g>
<!-- scludam.synthetic.UniformFrustum -->
<g id="node27" class="node">
<title>scludam.synthetic.UniformFrustum</title>
<polygon fill="none" stroke="black" points="6544,-128 6544,-302 6886,-302 6886,-128 6544,-128"/>
<text text-anchor="middle" x="6715" y="-286.8" font-family="Times,serif" font-size="14.00">scludam.synthetic.UniformFrustum</text>
<polyline fill="none" stroke="black" points="6544,-279 6886,-279 "/>
<text text-anchor="start" x="6552" y="-263.8" font-family="Times,serif" font-size="14.00">dim : int</text>
<text text-anchor="start" x="6552" y="-248.8" font-family="Times,serif" font-size="14.00">locs : _SpecialForm</text>
<text text-anchor="start" x="6552" y="-233.8" font-family="Times,serif" font-size="14.00">max_size_per_iter : int</text>
<text text-anchor="start" x="6552" y="-218.8" font-family="Times,serif" font-size="14.00">scales : _SpecialForm</text>
<polyline fill="none" stroke="black" points="6544,-211 6886,-211 "/>
<text text-anchor="start" x="6552" y="-195.8" font-family="Times,serif" font-size="14.00">_get_vertices()</text>
<text text-anchor="start" x="6552" y="-180.8" font-family="Times,serif" font-size="14.00">_is_inside_shape(data: Numeric2DArray)</text>
<text text-anchor="start" x="6552" y="-165.8" font-family="Times,serif" font-size="14.00">_volume()</text>
<text text-anchor="start" x="6552" y="-150.8" font-family="Times,serif" font-size="14.00">pdf(data: Union[Vector3, Vector3Array]): Numeric1DArray</text>
<text text-anchor="start" x="6552" y="-135.8" font-family="Times,serif" font-size="14.00">rvs(size: int): Vector3Array</text>
</g>
<!-- scludam.synthetic.UniformSphere -->
<g id="node28" class="node">
<title>scludam.synthetic.UniformSphere</title>
<polygon fill="none" stroke="black" points="6904,-158 6904,-272 7230,-272 7230,-158 6904,-158"/>
<text text-anchor="middle" x="7067" y="-256.8" font-family="Times,serif" font-size="14.00">scludam.synthetic.UniformSphere</text>
<polyline fill="none" stroke="black" points="6904,-249 7230,-249 "/>
<text text-anchor="start" x="6912" y="-233.8" font-family="Times,serif" font-size="14.00">center : _SpecialForm</text>
<text text-anchor="start" x="6912" y="-218.8" font-family="Times,serif" font-size="14.00">dim : int</text>
<text text-anchor="start" x="6912" y="-203.8" font-family="Times,serif" font-size="14.00">radius : Number</text>
<polyline fill="none" stroke="black" points="6904,-196 7230,-196 "/>
<text text-anchor="start" x="6912" y="-180.8" font-family="Times,serif" font-size="14.00">pdf(x: Union[Vector3, Vector3Array]): Numeric1DArray</text>
<text text-anchor="start" x="6912" y="-165.8" font-family="Times,serif" font-size="14.00">rvs(size: int): Vector3Array</text>
</g>
</g>
</svg>
