<?xml version="1.0" encoding="UTF-8" standalone="no"?>
<!DOCTYPE svg PUBLIC "-//W3C//DTD SVG 1.1//EN"
 "http://www.w3.org/Graphics/SVG/1.1/DTD/svg11.dtd">
<!-- Generated by graphviz version 2.43.0 (0)
 -->
<!-- Title: classes_scludam Pages: 1 -->
<svg width="636pt" height="604pt"
 viewBox="0.00 0.00 636.00 604.00" xmlns="http://www.w3.org/2000/svg" xmlns:xlink="http://www.w3.org/1999/xlink">
<g id="graph0" class="graph" transform="scale(1 1) rotate(0) translate(4 600)">
<title>classes_scludam</title>
<polygon fill="white" stroke="transparent" points="-4,4 -4,-600 632,-600 632,4 -4,4"/>
<!-- scludam.detection.CountPeakDetector -->
<g id="node1" class="node">
<title>scludam.detection.CountPeakDetector</title>
<polygon fill="none" stroke="black" points="0,-211.5 0,-595.5 628,-595.5 628,-211.5 0,-211.5"/>
<text text-anchor="middle" x="314" y="-580.3" font-family="Times,serif" font-size="14.00">scludam.detection.CountPeakDetector</text>
<polyline fill="none" stroke="black" points="0,-572.5 628,-572.5 "/>
<text text-anchor="start" x="8" y="-557.3" font-family="Times,serif" font-size="14.00">_data</text>
<text text-anchor="start" x="8" y="-542.3" font-family="Times,serif" font-size="14.00">_data : Optional[Numeric2DArray]</text>
<text text-anchor="start" x="8" y="-527.3" font-family="Times,serif" font-size="14.00">_last_result</text>
<text text-anchor="start" x="8" y="-512.3" font-family="Times,serif" font-size="14.00">_last_result : Optional[DetectionResult]</text>
<text text-anchor="start" x="8" y="-497.3" font-family="Times,serif" font-size="14.00">_offsets : _SpecialForm</text>
<text text-anchor="start" x="8" y="-482.3" font-family="Times,serif" font-size="14.00">_offsets : list</text>
<text text-anchor="start" x="8" y="-467.3" font-family="Times,serif" font-size="14.00">bin_shape : _SpecialForm</text>
<text text-anchor="start" x="8" y="-452.3" font-family="Times,serif" font-size="14.00">bin_shape : ndarray</text>
<text text-anchor="start" x="8" y="-437.3" font-family="Times,serif" font-size="14.00">mask : _SpecialForm</text>
<text text-anchor="start" x="8" y="-422.3" font-family="Times,serif" font-size="14.00">mask : ndarray</text>
<text text-anchor="start" x="8" y="-407.3" font-family="Times,serif" font-size="14.00">max_num_peaks : int</text>
<text text-anchor="start" x="8" y="-392.3" font-family="Times,serif" font-size="14.00">min_count : Number</text>
<text text-anchor="start" x="8" y="-377.3" font-family="Times,serif" font-size="14.00">min_dif : Number</text>
<text text-anchor="start" x="8" y="-362.3" font-family="Times,serif" font-size="14.00">min_interpeak_dist : int</text>
<text text-anchor="start" x="8" y="-347.3" font-family="Times,serif" font-size="14.00">min_score : Number</text>
<text text-anchor="start" x="8" y="-332.3" font-family="Times,serif" font-size="14.00">min_sigma_dif : Number</text>
<text text-anchor="start" x="8" y="-317.3" font-family="Times,serif" font-size="14.00">norm_mode : str</text>
<text text-anchor="start" x="8" y="-302.3" font-family="Times,serif" font-size="14.00">nyquist_offset : bool</text>
<text text-anchor="start" x="8" y="-287.3" font-family="Times,serif" font-size="14.00">remove_low_density_regions : bool</text>
<polyline fill="none" stroke="black" points="0,-279.5 628,-279.5 "/>
<text text-anchor="start" x="8" y="-264.3" font-family="Times,serif" font-size="14.00">_remove_low_density_regions(data: Numeric2DArray)</text>
<text text-anchor="start" x="8" y="-249.3" font-family="Times,serif" font-size="14.00">_set_nyquist_offsets()</text>
<text text-anchor="start" x="8" y="-234.3" font-family="Times,serif" font-size="14.00">detect(data: Numeric2DArray)</text>
<text text-anchor="start" x="8" y="-219.3" font-family="Times,serif" font-size="14.00">plot(peak: int, x: int, y: int, mode: str, labels: Union[List[str], None], cut_label_prec: int, center_label_prec: int)</text>
</g>
<!-- scludam.detection.DetectionResult -->
<g id="node2" class="node">
<title>scludam.detection.DetectionResult</title>
<polygon fill="none" stroke="black" points="211,-0.5 211,-159.5 417,-159.5 417,-0.5 211,-0.5"/>
<text text-anchor="middle" x="314" y="-144.3" font-family="Times,serif" font-size="14.00">scludam.detection.DetectionResult</text>
<polyline fill="none" stroke="black" points="211,-136.5 417,-136.5 "/>
<text text-anchor="start" x="219" y="-121.3" font-family="Times,serif" font-size="14.00">centers</text>
<text text-anchor="start" x="219" y="-106.3" font-family="Times,serif" font-size="14.00">counts : NDArray[np.number]</text>
<text text-anchor="start" x="219" y="-91.3" font-family="Times,serif" font-size="14.00">edges</text>
<text text-anchor="start" x="219" y="-76.3" font-family="Times,serif" font-size="14.00">indices</text>
<text text-anchor="start" x="219" y="-61.3" font-family="Times,serif" font-size="14.00">offsets</text>
<text text-anchor="start" x="219" y="-46.3" font-family="Times,serif" font-size="14.00">scores : NDArray[np.number]</text>
<text text-anchor="start" x="219" y="-31.3" font-family="Times,serif" font-size="14.00">sigmas : NDArray[np.number]</text>
<polyline fill="none" stroke="black" points="211,-23.5 417,-23.5 "/>
<text text-anchor="middle" x="314" y="-8.3" font-family="Times,serif" font-size="14.00"> </text>
</g>
<!-- scludam.detection.DetectionResult&#45;&gt;scludam.detection.CountPeakDetector -->
<g id="edge1" class="edge">
<title>scludam.detection.DetectionResult&#45;&gt;scludam.detection.CountPeakDetector</title>
<path fill="none" stroke="black" d="M276.88,-159.54C274.94,-165.69 273.27,-171.89 272,-178 270.56,-184.96 269.52,-192.06 268.85,-199.22"/>
<polygon fill="black" stroke="black" points="268.84,-199.37 272.43,-205.62 268.04,-211.34 264.45,-205.09 268.84,-199.37"/>
<text text-anchor="middle" x="303.5" y="-181.8" font-family="Times,serif" font-size="14.00" fill="green">_last_result</text>
</g>
<!-- scludam.detection.DetectionResult&#45;&gt;scludam.detection.CountPeakDetector -->
<g id="edge2" class="edge">
<title>scludam.detection.DetectionResult&#45;&gt;scludam.detection.CountPeakDetector</title>
<path fill="none" stroke="black" d="M332.5,-159.65C333.5,-165.83 334.36,-172 335,-178 335.75,-184.98 336.29,-192.09 336.64,-199.27"/>
<polygon fill="black" stroke="black" points="336.65,-199.41 340.86,-205.27 337.08,-211.4 332.87,-205.55 336.65,-199.41"/>
<text text-anchor="middle" x="367.5" y="-181.8" font-family="Times,serif" font-size="14.00" fill="green">_last_result</text>
</g>
</g>
</svg>
