<?xml version="1.0" encoding="UTF-8" standalone="no"?>
<!DOCTYPE svg PUBLIC "-//W3C//DTD SVG 1.1//EN"
 "http://www.w3.org/Graphics/SVG/1.1/DTD/svg11.dtd">
<!-- Generated by graphviz version 2.43.0 (0)
 -->
<!-- Title: packages_scludam Pages: 1 -->
<svg width="820pt" height="404pt"
 viewBox="0.00 0.00 819.73 404.00" xmlns="http://www.w3.org/2000/svg" xmlns:xlink="http://www.w3.org/1999/xlink">
<g id="graph0" class="graph" transform="scale(1 1) rotate(0) translate(4 400)">
<title>packages_scludam</title>
<polygon fill="white" stroke="transparent" points="-4,4 -4,-400 815.73,-400 815.73,4 -4,4"/>
<!-- scludam -->
<g id="node1" class="node">
<title>scludam</title>
<polygon fill="none" stroke="black" points="414.73,-36 352.73,-36 352.73,0 414.73,0 414.73,-36"/>
<text text-anchor="middle" x="383.73" y="-14.3" font-family="Times,serif" font-size="14.00">scludam</text>
</g>
<!-- scludam.detection -->
<g id="node2" class="node">
<title>scludam.detection</title>
<polygon fill="none" stroke="black" points="307.73,-180 191.73,-180 191.73,-144 307.73,-144 307.73,-180"/>
<text text-anchor="middle" x="249.73" y="-158.3" font-family="Times,serif" font-size="14.00">scludam.detection</text>
</g>
<!-- scludam&#45;&gt;scludam.detection -->
<g id="edge1" class="edge">
<title>scludam&#45;&gt;scludam.detection</title>
<path fill="none" stroke="black" d="M360.8,-36.05C348.13,-45.94 332.42,-58.99 319.73,-72 300.3,-91.93 280.95,-117.03 267.54,-135.5"/>
<polygon fill="black" stroke="black" points="261.64,-143.72 263.81,-132.97 264.55,-139.66 267.47,-135.6 267.47,-135.6 267.47,-135.6 264.55,-139.66 271.12,-138.22 261.64,-143.72 261.64,-143.72"/>
</g>
<!-- scludam.fetcher -->
<g id="node3" class="node">
<title>scludam.fetcher</title>
<polygon fill="none" stroke="black" points="811.73,-180 707.73,-180 707.73,-144 811.73,-144 811.73,-180"/>
<text text-anchor="middle" x="759.73" y="-158.3" font-family="Times,serif" font-size="14.00">scludam.fetcher</text>
</g>
<!-- scludam&#45;&gt;scludam.fetcher -->
<g id="edge2" class="edge">
<title>scludam&#45;&gt;scludam.fetcher</title>
<path fill="none" stroke="black" d="M414.82,-30.74C478.65,-54.85 625.17,-110.18 705.17,-140.39"/>
<polygon fill="black" stroke="black" points="714.58,-143.95 703.64,-144.63 709.91,-142.18 705.23,-140.42 705.23,-140.42 705.23,-140.42 709.91,-142.18 706.82,-136.21 714.58,-143.95 714.58,-143.95"/>
</g>
<!-- scludam.hkde -->
<g id="node4" class="node">
<title>scludam.hkde</title>
<polygon fill="none" stroke="black" points="108.73,-252 16.73,-252 16.73,-216 108.73,-216 108.73,-252"/>
<text text-anchor="middle" x="62.73" y="-230.3" font-family="Times,serif" font-size="14.00">scludam.hkde</text>
</g>
<!-- scludam&#45;&gt;scludam.hkde -->
<g id="edge3" class="edge">
<title>scludam&#45;&gt;scludam.hkde</title>
<path fill="none" stroke="black" d="M352.51,-18.81C280.61,-20.31 103.97,-35.38 30.73,-144 17.66,-163.39 29.04,-188.76 41.71,-207.45"/>
<polygon fill="black" stroke="black" points="47.74,-215.77 38.23,-210.31 44.8,-211.72 41.87,-207.67 41.87,-207.67 41.87,-207.67 44.8,-211.72 45.52,-205.03 47.74,-215.77 47.74,-215.77"/>
</g>
<!-- scludam.membership -->
<g id="node6" class="node">
<title>scludam.membership</title>
<polygon fill="none" stroke="black" points="173.73,-180 39.73,-180 39.73,-144 173.73,-144 173.73,-180"/>
<text text-anchor="middle" x="106.73" y="-158.3" font-family="Times,serif" font-size="14.00">scludam.membership</text>
</g>
<!-- scludam&#45;&gt;scludam.membership -->
<g id="edge4" class="edge">
<title>scludam&#45;&gt;scludam.membership</title>
<path fill="none" stroke="black" d="M352.5,-35.01C302.64,-60.57 204.99,-110.63 148.96,-139.35"/>
<polygon fill="black" stroke="black" points="140,-143.94 146.85,-135.38 144.45,-141.66 148.9,-139.38 148.9,-139.38 148.9,-139.38 144.45,-141.66 150.96,-143.39 140,-143.94 140,-143.94"/>
</g>
<!-- scludam.pipeline -->
<g id="node7" class="node">
<title>scludam.pipeline</title>
<polygon fill="none" stroke="black" points="438.73,-108 328.73,-108 328.73,-72 438.73,-72 438.73,-108"/>
<text text-anchor="middle" x="383.73" y="-86.3" font-family="Times,serif" font-size="14.00">scludam.pipeline</text>
</g>
<!-- scludam&#45;&gt;scludam.pipeline -->
<g id="edge5" class="edge">
<title>scludam&#45;&gt;scludam.pipeline</title>
<path fill="none" stroke="black" d="M383.73,-36.3C383.73,-44.02 383.73,-53.29 383.73,-61.89"/>
<polygon fill="black" stroke="black" points="383.73,-71.9 379.23,-61.9 383.73,-66.9 383.73,-61.9 383.73,-61.9 383.73,-61.9 383.73,-66.9 388.23,-61.9 383.73,-71.9 383.73,-71.9"/>
</g>
<!-- scludam.shdbscan -->
<g id="node10" class="node">
<title>scludam.shdbscan</title>
<polygon fill="none" stroke="black" points="555.73,-180 439.73,-180 439.73,-144 555.73,-144 555.73,-180"/>
<text text-anchor="middle" x="497.73" y="-158.3" font-family="Times,serif" font-size="14.00">scludam.shdbscan</text>
</g>
<!-- scludam&#45;&gt;scludam.shdbscan -->
<g id="edge6" class="edge">
<title>scludam&#45;&gt;scludam.shdbscan</title>
<path fill="none" stroke="black" d="M408.4,-36.02C421.14,-45.61 436.36,-58.38 447.73,-72 463.69,-91.12 477.19,-116.06 486.13,-134.68"/>
<polygon fill="black" stroke="black" points="490.37,-143.77 482.07,-136.61 488.26,-139.24 486.14,-134.71 486.14,-134.71 486.14,-134.71 488.26,-139.24 490.22,-132.8 490.37,-143.77 490.37,-143.77"/>
</g>
<!-- scludam.stat_tests -->
<g id="node11" class="node">
<title>scludam.stat_tests</title>
<polygon fill="none" stroke="black" points="689.73,-180 573.73,-180 573.73,-144 689.73,-144 689.73,-180"/>
<text text-anchor="middle" x="631.73" y="-158.3" font-family="Times,serif" font-size="14.00">scludam.stat_tests</text>
</g>
<!-- scludam&#45;&gt;scludam.stat_tests -->
<g id="edge7" class="edge">
<title>scludam&#45;&gt;scludam.stat_tests</title>
<path fill="none" stroke="black" d="M413.65,-36.13C458.52,-61.82 543.27,-110.35 592.88,-138.75"/>
<polygon fill="black" stroke="black" points="601.71,-143.81 590.8,-142.75 597.37,-141.33 593.03,-138.84 593.03,-138.84 593.03,-138.84 597.37,-141.33 595.27,-134.94 601.71,-143.81 601.71,-143.81"/>
</g>
<!-- scludam.masker -->
<g id="node5" class="node">
<title>scludam.masker</title>
<polygon fill="none" stroke="black" points="423.73,-252 317.73,-252 317.73,-216 423.73,-216 423.73,-252"/>
<text text-anchor="middle" x="370.73" y="-230.3" font-family="Times,serif" font-size="14.00">scludam.masker</text>
</g>
<!-- scludam.detection&#45;&gt;scludam.masker -->
<g id="edge8" class="edge">
<title>scludam.detection&#45;&gt;scludam.masker</title>
<path fill="none" stroke="black" d="M279.33,-180.12C295.3,-189.36 315.19,-200.87 332.34,-210.79"/>
<polygon fill="black" stroke="black" points="341.02,-215.81 330.11,-214.7 336.69,-213.31 332.36,-210.8 332.36,-210.8 332.36,-210.8 336.69,-213.31 334.62,-206.91 341.02,-215.81 341.02,-215.81"/>
</g>
<!-- scludam.plots -->
<g id="node8" class="node">
<title>scludam.plots</title>
<polygon fill="none" stroke="black" points="333.73,-324 241.73,-324 241.73,-288 333.73,-288 333.73,-324"/>
<text text-anchor="middle" x="287.73" y="-302.3" font-family="Times,serif" font-size="14.00">scludam.plots</text>
</g>
<!-- scludam.detection&#45;&gt;scludam.plots -->
<g id="edge9" class="edge">
<title>scludam.detection&#45;&gt;scludam.plots</title>
<path fill="none" stroke="black" d="M254.32,-180.13C260.82,-204.44 272.8,-249.18 280.5,-277.99"/>
<polygon fill="black" stroke="black" points="283.13,-287.81 276.2,-279.31 281.84,-282.98 280.55,-278.15 280.55,-278.15 280.55,-278.15 281.84,-282.98 284.9,-276.99 283.13,-287.81 283.13,-287.81"/>
</g>
<!-- scludam.type_utils -->
<g id="node13" class="node">
<title>scludam.type_utils</title>
<polygon fill="none" stroke="black" points="469.23,-396 350.23,-396 350.23,-360 469.23,-360 469.23,-396"/>
<text text-anchor="middle" x="409.73" y="-374.3" font-family="Times,serif" font-size="14.00">scludam.type_utils</text>
</g>
<!-- scludam.detection&#45;&gt;scludam.type_utils -->
<g id="edge10" class="edge">
<title>scludam.detection&#45;&gt;scludam.type_utils</title>
<path fill="none" stroke="black" d="M241.03,-180.04C226.18,-211.79 200.51,-280.71 232.73,-324 245.93,-341.72 296.18,-355.72 339.79,-364.87"/>
<polygon fill="black" stroke="black" points="349.84,-366.92 339.14,-369.33 344.94,-365.92 340.04,-364.92 340.04,-364.92 340.04,-364.92 344.94,-365.92 340.94,-360.51 349.84,-366.92 349.84,-366.92"/>
</g>
<!-- scludam.fetcher&#45;&gt;scludam.type_utils -->
<g id="edge11" class="edge">
<title>scludam.fetcher&#45;&gt;scludam.type_utils</title>
<path fill="none" stroke="black" d="M742.95,-180.42C710.89,-212.82 637.54,-282.76 563.73,-324 537.46,-338.68 506.42,-350.31 479.11,-358.9"/>
<polygon fill="black" stroke="black" points="469.23,-361.92 477.48,-354.69 474.01,-360.46 478.8,-358.99 478.8,-358.99 478.8,-358.99 474.01,-360.46 480.11,-363.3 469.23,-361.92 469.23,-361.92"/>
</g>
<!-- scludam.hkde&#45;&gt;scludam.plots -->
<g id="edge12" class="edge">
<title>scludam.hkde&#45;&gt;scludam.plots</title>
<path fill="none" stroke="black" d="M108.81,-249.33C144.45,-260.42 193.95,-275.82 231.85,-287.62"/>
<polygon fill="black" stroke="black" points="241.72,-290.68 230.83,-292.01 236.95,-289.2 232.17,-287.71 232.17,-287.71 232.17,-287.71 236.95,-289.2 233.51,-283.42 241.72,-290.68 241.72,-290.68"/>
</g>
<!-- scludam.rutils -->
<g id="node9" class="node">
<title>scludam.rutils</title>
<polygon fill="none" stroke="black" points="109.73,-324 15.73,-324 15.73,-288 109.73,-288 109.73,-324"/>
<text text-anchor="middle" x="62.73" y="-302.3" font-family="Times,serif" font-size="14.00">scludam.rutils</text>
</g>
<!-- scludam.hkde&#45;&gt;scludam.rutils -->
<g id="edge13" class="edge">
<title>scludam.hkde&#45;&gt;scludam.rutils</title>
<path fill="none" stroke="black" d="M62.73,-252.3C62.73,-260.02 62.73,-269.29 62.73,-277.89"/>
<polygon fill="black" stroke="black" points="62.73,-287.9 58.23,-277.9 62.73,-282.9 62.73,-277.9 62.73,-277.9 62.73,-277.9 62.73,-282.9 67.23,-277.9 62.73,-287.9 62.73,-287.9"/>
</g>
<!-- scludam.hkde&#45;&gt;scludam.type_utils -->
<g id="edge14" class="edge">
<title>scludam.hkde&#45;&gt;scludam.type_utils</title>
<path fill="none" stroke="black" d="M39.01,-252.16C15.88,-270.93 -13.13,-301.35 6.73,-324 28.31,-348.61 230.25,-365.38 339.81,-372.75"/>
<polygon fill="black" stroke="black" points="350.12,-373.44 339.84,-377.27 345.13,-373.11 340.14,-372.78 340.14,-372.78 340.14,-372.78 345.13,-373.11 340.44,-368.29 350.12,-373.44 350.12,-373.44"/>
</g>
<!-- scludam.synthetic -->
<g id="node12" class="node">
<title>scludam.synthetic</title>
<polygon fill="none" stroke="black" points="467.23,-324 352.23,-324 352.23,-288 467.23,-288 467.23,-324"/>
<text text-anchor="middle" x="409.73" y="-302.3" font-family="Times,serif" font-size="14.00">scludam.synthetic</text>
</g>
<!-- scludam.masker&#45;&gt;scludam.synthetic -->
<g id="edge15" class="edge">
<title>scludam.masker&#45;&gt;scludam.synthetic</title>
<path fill="none" stroke="black" d="M380.37,-252.3C384.86,-260.36 390.29,-270.11 395.26,-279.02"/>
<polygon fill="black" stroke="black" points="400.2,-287.9 391.41,-281.35 397.77,-283.53 395.34,-279.16 395.34,-279.16 395.34,-279.16 397.77,-283.53 399.27,-276.97 400.2,-287.9 400.2,-287.9"/>
</g>
<!-- scludam.membership&#45;&gt;scludam.hkde -->
<g id="edge16" class="edge">
<title>scludam.membership&#45;&gt;scludam.hkde</title>
<path fill="none" stroke="black" d="M95.86,-180.3C90.74,-188.44 84.54,-198.31 78.89,-207.3"/>
<polygon fill="black" stroke="black" points="73.48,-215.9 75,-205.03 76.15,-211.66 78.81,-207.43 78.81,-207.43 78.81,-207.43 76.15,-211.66 82.62,-209.82 73.48,-215.9 73.48,-215.9"/>
</g>
<!-- scludam.membership&#45;&gt;scludam.plots -->
<g id="edge17" class="edge">
<title>scludam.membership&#45;&gt;scludam.plots</title>
<path fill="none" stroke="black" d="M128.57,-180.13C160.77,-205.4 221.13,-252.75 257.55,-281.32"/>
<polygon fill="black" stroke="black" points="265.82,-287.81 255.18,-285.18 261.89,-284.72 257.96,-281.64 257.96,-281.64 257.96,-281.64 261.89,-284.72 260.73,-278.1 265.82,-287.81 265.82,-287.81"/>
</g>
<!-- scludam.membership&#45;&gt;scludam.type_utils -->
<g id="edge18" class="edge">
<title>scludam.membership&#45;&gt;scludam.type_utils</title>
<path fill="none" stroke="black" d="M113.34,-180.06C127.02,-213.1 161.69,-285.92 214.73,-324 251.38,-350.31 300.42,-363.56 340.15,-370.24"/>
<polygon fill="black" stroke="black" points="350.04,-371.79 339.46,-374.68 345.1,-371.02 340.16,-370.24 340.16,-370.24 340.16,-370.24 345.1,-371.02 340.86,-365.79 350.04,-371.79 350.04,-371.79"/>
</g>
<!-- scludam.pipeline&#45;&gt;scludam.detection -->
<g id="edge19" class="edge">
<title>scludam.pipeline&#45;&gt;scludam.detection</title>
<path fill="none" stroke="black" d="M350.95,-108.12C333.11,-117.45 310.84,-129.08 291.73,-139.06"/>
<polygon fill="black" stroke="black" points="282.64,-143.81 289.42,-135.19 287.07,-141.5 291.5,-139.18 291.5,-139.18 291.5,-139.18 287.07,-141.5 293.59,-143.17 282.64,-143.81 282.64,-143.81"/>
</g>
<!-- scludam.pipeline&#45;&gt;scludam.fetcher -->
<g id="edge20" class="edge">
<title>scludam.pipeline&#45;&gt;scludam.fetcher</title>
<path fill="none" stroke="black" d="M438.99,-98.5C500.05,-107.19 601.46,-122.81 697.69,-143.89"/>
<polygon fill="black" stroke="black" points="707.58,-146.08 696.84,-148.31 702.7,-145 697.82,-143.91 697.82,-143.91 697.82,-143.91 702.7,-145 698.79,-139.52 707.58,-146.08 707.58,-146.08"/>
</g>
<!-- scludam.pipeline&#45;&gt;scludam.masker -->
<g id="edge21" class="edge">
<title>scludam.pipeline&#45;&gt;scludam.masker</title>
<path fill="none" stroke="black" d="M382.17,-108.13C379.95,-132.33 375.88,-176.79 373.24,-205.61"/>
<polygon fill="black" stroke="black" points="372.31,-215.81 368.74,-205.44 372.76,-210.83 373.22,-205.85 373.22,-205.85 373.22,-205.85 372.76,-210.83 377.7,-206.26 372.31,-215.81 372.31,-215.81"/>
</g>
<!-- scludam.pipeline&#45;&gt;scludam.membership -->
<g id="edge22" class="edge">
<title>scludam.pipeline&#45;&gt;scludam.membership</title>
<path fill="none" stroke="black" d="M328.68,-104.91C287.22,-115.39 229.87,-129.88 183.86,-141.51"/>
<polygon fill="black" stroke="black" points="173.92,-144.02 182.51,-137.21 178.77,-142.8 183.62,-141.57 183.62,-141.57 183.62,-141.57 178.77,-142.8 184.72,-145.93 173.92,-144.02 173.92,-144.02"/>
</g>
<!-- scludam.pipeline&#45;&gt;scludam.plots -->
<g id="edge23" class="edge">
<title>scludam.pipeline&#45;&gt;scludam.plots</title>
<path fill="none" stroke="black" d="M370.97,-108.3C354.33,-131.62 325.41,-174.97 308.73,-216 300.63,-235.95 295.21,-259.74 291.92,-277.7"/>
<polygon fill="black" stroke="black" points="290.18,-287.79 287.44,-277.17 291.03,-282.86 291.88,-277.93 291.88,-277.93 291.88,-277.93 291.03,-282.86 296.31,-278.7 290.18,-287.79 290.18,-287.79"/>
</g>
<!-- scludam.pipeline&#45;&gt;scludam.shdbscan -->
<g id="edge24" class="edge">
<title>scludam.pipeline&#45;&gt;scludam.shdbscan</title>
<path fill="none" stroke="black" d="M411.62,-108.12C426.53,-117.28 445.06,-128.66 461.11,-138.52"/>
<polygon fill="black" stroke="black" points="469.74,-143.81 458.86,-142.41 465.48,-141.19 461.22,-138.58 461.22,-138.58 461.22,-138.58 465.48,-141.19 463.57,-134.74 469.74,-143.81 469.74,-143.81"/>
</g>
<!-- scludam.pipeline&#45;&gt;scludam.stat_tests -->
<g id="edge25" class="edge">
<title>scludam.pipeline&#45;&gt;scludam.stat_tests</title>
<path fill="none" stroke="black" d="M438.77,-106.54C475.61,-116.93 524.35,-130.69 563.62,-141.78"/>
<polygon fill="black" stroke="black" points="573.39,-144.53 562.55,-146.15 568.58,-143.17 563.77,-141.82 563.77,-141.82 563.77,-141.82 568.58,-143.17 564.99,-137.49 573.39,-144.53 573.39,-144.53"/>
</g>
<!-- scludam.utils -->
<g id="node14" class="node">
<title>scludam.utils</title>
<polygon fill="none" stroke="black" points="531.23,-252 442.23,-252 442.23,-216 531.23,-216 531.23,-252"/>
<text text-anchor="middle" x="486.73" y="-230.3" font-family="Times,serif" font-size="14.00">scludam.utils</text>
</g>
<!-- scludam.pipeline&#45;&gt;scludam.utils -->
<g id="edge26" class="edge">
<title>scludam.pipeline&#45;&gt;scludam.utils</title>
<path fill="none" stroke="black" d="M390.72,-108.04C398.81,-126.7 413.3,-157.04 430.73,-180 438.57,-190.33 448.5,-200.43 457.81,-209"/>
<polygon fill="black" stroke="black" points="465.43,-215.8 454.97,-212.49 461.7,-212.47 457.97,-209.14 457.97,-209.14 457.97,-209.14 461.7,-212.47 460.97,-205.78 465.43,-215.8 465.43,-215.8"/>
</g>
<!-- scludam.plots&#45;&gt;scludam.type_utils -->
<g id="edge27" class="edge">
<title>scludam.plots&#45;&gt;scludam.type_utils</title>
<path fill="none" stroke="black" d="M317.58,-324.12C333.68,-333.36 353.73,-344.87 371.02,-354.79"/>
<polygon fill="black" stroke="black" points="379.77,-359.81 368.86,-358.74 375.44,-357.32 371.1,-354.83 371.1,-354.83 371.1,-354.83 375.44,-357.32 373.34,-350.93 379.77,-359.81 379.77,-359.81"/>
</g>
<!-- scludam.shdbscan&#45;&gt;scludam.plots -->
<g id="edge28" class="edge">
<title>scludam.shdbscan&#45;&gt;scludam.plots</title>
<path fill="none" stroke="black" d="M516.7,-180.15C535.48,-199.19 558.98,-230.12 540.73,-252 512.23,-286.18 386.98,-277.52 343.73,-288 343.63,-288.02 343.53,-288.05 343.43,-288.07"/>
<polygon fill="black" stroke="black" points="333.76,-290.57 342.32,-283.71 338.6,-289.32 343.45,-288.07 343.45,-288.07 343.45,-288.07 338.6,-289.32 344.57,-292.43 333.76,-290.57 333.76,-290.57"/>
</g>
<!-- scludam.shdbscan&#45;&gt;scludam.type_utils -->
<g id="edge29" class="edge">
<title>scludam.shdbscan&#45;&gt;scludam.type_utils</title>
<path fill="none" stroke="black" d="M525.99,-180.03C538.16,-189.04 551.11,-201.3 557.73,-216 564.31,-230.59 563.3,-237 557.73,-252 540.14,-299.38 492.21,-334.2 455.62,-354.89"/>
<polygon fill="black" stroke="black" points="446.58,-359.84 453.19,-351.09 450.97,-357.44 455.35,-355.04 455.35,-355.04 455.35,-355.04 450.97,-357.44 457.52,-358.98 446.58,-359.84 446.58,-359.84"/>
</g>
<!-- scludam.shdbscan&#45;&gt;scludam.utils -->
<g id="edge30" class="edge">
<title>scludam.shdbscan&#45;&gt;scludam.utils</title>
<path fill="none" stroke="black" d="M495.01,-180.3C493.8,-188.02 492.35,-197.29 490.99,-205.89"/>
<polygon fill="black" stroke="black" points="489.42,-215.9 486.53,-205.32 490.2,-210.96 490.97,-206.02 490.97,-206.02 490.97,-206.02 490.2,-210.96 495.42,-206.72 489.42,-215.9 489.42,-215.9"/>
</g>
<!-- scludam.stat_tests&#45;&gt;scludam.type_utils -->
<g id="edge31" class="edge">
<title>scludam.stat_tests&#45;&gt;scludam.type_utils</title>
<path fill="none" stroke="black" d="M625.32,-180.44C612.6,-212.87 581.22,-282.86 533.73,-324 517.92,-337.7 498.03,-348.3 478.85,-356.28"/>
<polygon fill="black" stroke="black" points="469.5,-360 477.13,-352.12 474.15,-358.15 478.8,-356.3 478.8,-356.3 478.8,-356.3 474.15,-358.15 480.46,-360.48 469.5,-360 469.5,-360"/>
</g>
<!-- scludam.synthetic&#45;&gt;scludam.type_utils -->
<g id="edge32" class="edge">
<title>scludam.synthetic&#45;&gt;scludam.type_utils</title>
<path fill="none" stroke="black" d="M409.73,-324.3C409.73,-332.02 409.73,-341.29 409.73,-349.89"/>
<polygon fill="black" stroke="black" points="409.73,-359.9 405.23,-349.9 409.73,-354.9 409.73,-349.9 409.73,-349.9 409.73,-349.9 409.73,-354.9 414.23,-349.9 409.73,-359.9 409.73,-359.9"/>
</g>
<!-- scludam.utils&#45;&gt;scludam.type_utils -->
<g id="edge33" class="edge">
<title>scludam.utils&#45;&gt;scludam.type_utils</title>
<path fill="none" stroke="black" d="M488.56,-252.24C489.74,-271.08 489.18,-301.57 476.73,-324 470.26,-335.66 460.06,-345.68 449.56,-353.76"/>
<polygon fill="black" stroke="black" points="441.13,-359.82 446.62,-350.32 445.19,-356.9 449.25,-353.98 449.25,-353.98 449.25,-353.98 445.19,-356.9 451.88,-357.63 441.13,-359.82 441.13,-359.82"/>
</g>
</g>
</svg>
