<?xml version="1.0" encoding="UTF-8" standalone="no"?>
<!DOCTYPE svg PUBLIC "-//W3C//DTD SVG 1.1//EN"
 "http://www.w3.org/Graphics/SVG/1.1/DTD/svg11.dtd">
<!-- Generated by graphviz version 2.43.0 (0)
 -->
<!-- Title: packages_scludam Pages: 1 -->
<svg width="782pt" height="332pt"
 viewBox="0.00 0.00 782.00 332.00" xmlns="http://www.w3.org/2000/svg" xmlns:xlink="http://www.w3.org/1999/xlink">
<g id="graph0" class="graph" transform="scale(1 1) rotate(0) translate(4 328)">
<title>packages_scludam</title>
<polygon fill="white" stroke="transparent" points="-4,4 -4,-328 778,-328 778,4 -4,4"/>
<!-- scludam -->
<g id="node1" class="node">
<title>scludam</title>
<polygon fill="none" stroke="black" points="351,-36 289,-36 289,0 351,0 351,-36"/>
<text text-anchor="middle" x="320" y="-14.3" font-family="Times,serif" font-size="14.00">scludam</text>
</g>
<!-- scludam.detection -->
<g id="node2" class="node">
<title>scludam.detection</title>
<polygon fill="none" stroke="black" points="378,-108 262,-108 262,-72 378,-72 378,-108"/>
<text text-anchor="middle" x="320" y="-86.3" font-family="Times,serif" font-size="14.00">scludam.detection</text>
</g>
<!-- scludam&#45;&gt;scludam.detection -->
<g id="edge1" class="edge">
<title>scludam&#45;&gt;scludam.detection</title>
<path fill="none" stroke="black" d="M320,-36.3C320,-44.02 320,-53.29 320,-61.89"/>
<polygon fill="black" stroke="black" points="320,-71.9 315.5,-61.9 320,-66.9 320,-61.9 320,-61.9 320,-61.9 320,-66.9 324.5,-61.9 320,-71.9 320,-71.9"/>
</g>
<!-- scludam.fetcher -->
<g id="node3" class="node">
<title>scludam.fetcher</title>
<polygon fill="none" stroke="black" points="104,-252 0,-252 0,-216 104,-216 104,-252"/>
<text text-anchor="middle" x="52" y="-230.3" font-family="Times,serif" font-size="14.00">scludam.fetcher</text>
</g>
<!-- scludam&#45;&gt;scludam.fetcher -->
<g id="edge2" class="edge">
<title>scludam&#45;&gt;scludam.fetcher</title>
<path fill="none" stroke="black" d="M288.8,-22.72C235.01,-29.74 127.96,-46.56 101,-72 63.74,-107.16 54.53,-169.7 52.43,-205.61"/>
<polygon fill="black" stroke="black" points="51.98,-215.83 47.92,-205.65 52.2,-210.84 52.42,-205.84 52.42,-205.84 52.42,-205.84 52.2,-210.84 56.92,-206.04 51.98,-215.83 51.98,-215.83"/>
</g>
<!-- scludam.hkde -->
<g id="node4" class="node">
<title>scludam.hkde</title>
<polygon fill="none" stroke="black" points="488,-108 396,-108 396,-72 488,-72 488,-108"/>
<text text-anchor="middle" x="442" y="-86.3" font-family="Times,serif" font-size="14.00">scludam.hkde</text>
</g>
<!-- scludam&#45;&gt;scludam.hkde -->
<g id="edge3" class="edge">
<title>scludam&#45;&gt;scludam.hkde</title>
<path fill="none" stroke="black" d="M349.84,-36.12C365.94,-45.36 386,-56.87 403.29,-66.79"/>
<polygon fill="black" stroke="black" points="412.04,-71.81 401.13,-70.74 407.7,-69.32 403.37,-66.83 403.37,-66.83 403.37,-66.83 407.7,-69.32 405.61,-62.93 412.04,-71.81 412.04,-71.81"/>
</g>
<!-- scludam.membership -->
<g id="node6" class="node">
<title>scludam.membership</title>
<polygon fill="none" stroke="black" points="244,-108 110,-108 110,-72 244,-72 244,-108"/>
<text text-anchor="middle" x="177" y="-86.3" font-family="Times,serif" font-size="14.00">scludam.membership</text>
</g>
<!-- scludam&#45;&gt;scludam.membership -->
<g id="edge4" class="edge">
<title>scludam&#45;&gt;scludam.membership</title>
<path fill="none" stroke="black" d="M288.76,-31.68C267.06,-41.58 238.15,-55.58 215.11,-67.26"/>
<polygon fill="black" stroke="black" points="205.96,-71.94 212.82,-63.38 210.41,-69.66 214.86,-67.39 214.86,-67.39 214.86,-67.39 210.41,-69.66 216.91,-71.39 205.96,-71.94 205.96,-71.94"/>
</g>
<!-- scludam.shdbscan -->
<g id="node9" class="node">
<title>scludam.shdbscan</title>
<polygon fill="none" stroke="black" points="640,-108 524,-108 524,-72 640,-72 640,-108"/>
<text text-anchor="middle" x="582" y="-86.3" font-family="Times,serif" font-size="14.00">scludam.shdbscan</text>
</g>
<!-- scludam&#45;&gt;scludam.shdbscan -->
<g id="edge5" class="edge">
<title>scludam&#45;&gt;scludam.shdbscan</title>
<path fill="none" stroke="black" d="M351.08,-27.3C391.01,-37.97 461.41,-56.78 514.01,-70.84"/>
<polygon fill="black" stroke="black" points="523.95,-73.49 513.13,-75.26 519.12,-72.2 514.29,-70.91 514.29,-70.91 514.29,-70.91 519.12,-72.2 515.45,-66.56 523.95,-73.49 523.95,-73.49"/>
</g>
<!-- scludam.stat_tests -->
<g id="node10" class="node">
<title>scludam.stat_tests</title>
<polygon fill="none" stroke="black" points="774,-252 658,-252 658,-216 774,-216 774,-252"/>
<text text-anchor="middle" x="716" y="-230.3" font-family="Times,serif" font-size="14.00">scludam.stat_tests</text>
</g>
<!-- scludam&#45;&gt;scludam.stat_tests -->
<g id="edge6" class="edge">
<title>scludam&#45;&gt;scludam.stat_tests</title>
<path fill="none" stroke="black" d="M351.08,-20.22C423.92,-23.67 603.02,-35.71 649,-72 691.07,-105.2 707,-169.47 712.82,-205.97"/>
<polygon fill="black" stroke="black" points="714.26,-215.9 708.37,-206.66 713.54,-210.96 712.82,-206.01 712.82,-206.01 712.82,-206.01 713.54,-210.96 717.28,-205.36 714.26,-215.9 714.26,-215.9"/>
</g>
<!-- scludam.masker -->
<g id="node5" class="node">
<title>scludam.masker</title>
<polygon fill="none" stroke="black" points="304,-180 198,-180 198,-144 304,-144 304,-180"/>
<text text-anchor="middle" x="251" y="-158.3" font-family="Times,serif" font-size="14.00">scludam.masker</text>
</g>
<!-- scludam.detection&#45;&gt;scludam.masker -->
<g id="edge7" class="edge">
<title>scludam.detection&#45;&gt;scludam.masker</title>
<path fill="none" stroke="black" d="M302.94,-108.3C294.5,-116.86 284.18,-127.34 274.96,-136.7"/>
<polygon fill="black" stroke="black" points="267.86,-143.9 271.68,-133.61 271.37,-140.33 274.88,-136.77 274.88,-136.77 274.88,-136.77 271.37,-140.33 278.08,-139.93 267.86,-143.9 267.86,-143.9"/>
</g>
<!-- scludam.plots -->
<g id="node7" class="node">
<title>scludam.plots</title>
<polygon fill="none" stroke="black" points="414,-180 322,-180 322,-144 414,-144 414,-180"/>
<text text-anchor="middle" x="368" y="-158.3" font-family="Times,serif" font-size="14.00">scludam.plots</text>
</g>
<!-- scludam.detection&#45;&gt;scludam.plots -->
<g id="edge8" class="edge">
<title>scludam.detection&#45;&gt;scludam.plots</title>
<path fill="none" stroke="black" d="M331.87,-108.3C337.5,-116.53 344.35,-126.52 350.57,-135.58"/>
<polygon fill="black" stroke="black" points="356.27,-143.9 346.9,-138.19 353.44,-139.77 350.62,-135.65 350.62,-135.65 350.62,-135.65 353.44,-139.77 354.33,-133.1 356.27,-143.9 356.27,-143.9"/>
</g>
<!-- scludam.type_utils -->
<g id="node12" class="node">
<title>scludam.type_utils</title>
<polygon fill="none" stroke="black" points="427.5,-324 308.5,-324 308.5,-288 427.5,-288 427.5,-324"/>
<text text-anchor="middle" x="368" y="-302.3" font-family="Times,serif" font-size="14.00">scludam.type_utils</text>
</g>
<!-- scludam.detection&#45;&gt;scludam.type_utils -->
<g id="edge9" class="edge">
<title>scludam.detection&#45;&gt;scludam.type_utils</title>
<path fill="none" stroke="black" d="M261.8,-107.5C231.04,-117.52 197.85,-130.88 189,-144 174.95,-164.84 193.63,-242.46 202,-252 226.15,-279.53 264.58,-292.87 298.38,-299.29"/>
<polygon fill="black" stroke="black" points="308.24,-301 297.62,-303.73 303.31,-300.15 298.39,-299.29 298.39,-299.29 298.39,-299.29 303.31,-300.15 299.15,-294.86 308.24,-301 308.24,-301"/>
</g>
<!-- scludam.fetcher&#45;&gt;scludam.type_utils -->
<g id="edge10" class="edge">
<title>scludam.fetcher&#45;&gt;scludam.type_utils</title>
<path fill="none" stroke="black" d="M104.19,-248.66C108.85,-249.82 113.51,-250.95 118,-252 178.72,-266.25 248.13,-280.83 298.38,-291.08"/>
<polygon fill="black" stroke="black" points="308.49,-293.14 297.79,-295.55 303.59,-292.14 298.69,-291.14 298.69,-291.14 298.69,-291.14 303.59,-292.14 299.59,-286.73 308.49,-293.14 308.49,-293.14"/>
</g>
<!-- scludam.hkde&#45;&gt;scludam.plots -->
<g id="edge11" class="edge">
<title>scludam.hkde&#45;&gt;scludam.plots</title>
<path fill="none" stroke="black" d="M423.71,-108.3C414.57,-116.95 403.36,-127.55 393.4,-136.97"/>
<polygon fill="black" stroke="black" points="386.08,-143.9 390.25,-133.75 389.71,-140.46 393.35,-137.02 393.35,-137.02 393.35,-137.02 389.71,-140.46 396.44,-140.29 386.08,-143.9 386.08,-143.9"/>
</g>
<!-- scludam.rutils -->
<g id="node8" class="node">
<title>scludam.rutils</title>
<polygon fill="none" stroke="black" points="564,-180 470,-180 470,-144 564,-144 564,-180"/>
<text text-anchor="middle" x="517" y="-158.3" font-family="Times,serif" font-size="14.00">scludam.rutils</text>
</g>
<!-- scludam.hkde&#45;&gt;scludam.rutils -->
<g id="edge12" class="edge">
<title>scludam.hkde&#45;&gt;scludam.rutils</title>
<path fill="none" stroke="black" d="M460.54,-108.3C469.8,-116.95 481.16,-127.55 491.26,-136.97"/>
<polygon fill="black" stroke="black" points="498.67,-143.9 488.29,-140.36 495.02,-140.48 491.36,-137.07 491.36,-137.07 491.36,-137.07 495.02,-140.48 494.43,-133.78 498.67,-143.9 498.67,-143.9"/>
</g>
<!-- scludam.hkde&#45;&gt;scludam.type_utils -->
<g id="edge13" class="edge">
<title>scludam.hkde&#45;&gt;scludam.type_utils</title>
<path fill="none" stroke="black" d="M439.43,-108C436.45,-126.11 430.92,-155.49 423,-180 411.68,-215.05 393.84,-253.6 381.56,-278.49"/>
<polygon fill="black" stroke="black" points="377,-287.64 377.44,-276.68 379.23,-283.17 381.46,-278.69 381.46,-278.69 381.46,-278.69 379.23,-283.17 385.49,-280.7 377,-287.64 377,-287.64"/>
</g>
<!-- scludam.synthetic -->
<g id="node11" class="node">
<title>scludam.synthetic</title>
<polygon fill="none" stroke="black" points="326.5,-252 211.5,-252 211.5,-216 326.5,-216 326.5,-252"/>
<text text-anchor="middle" x="269" y="-230.3" font-family="Times,serif" font-size="14.00">scludam.synthetic</text>
</g>
<!-- scludam.masker&#45;&gt;scludam.synthetic -->
<g id="edge14" class="edge">
<title>scludam.masker&#45;&gt;scludam.synthetic</title>
<path fill="none" stroke="black" d="M255.45,-180.3C257.45,-188.1 259.87,-197.49 262.1,-206.17"/>
<polygon fill="black" stroke="black" points="264.6,-215.9 257.75,-207.33 263.36,-211.05 262.11,-206.21 262.11,-206.21 262.11,-206.21 263.36,-211.05 266.47,-205.09 264.6,-215.9 264.6,-215.9"/>
</g>
<!-- scludam.membership&#45;&gt;scludam -->
<g id="edge15" class="edge">
<title>scludam.membership&#45;&gt;scludam</title>
<path fill="none" stroke="black" d="M217.76,-71.93C237.93,-62.54 262.07,-50.79 281.87,-40.75"/>
<polygon fill="black" stroke="black" points="290.92,-36.12 284.06,-44.68 286.46,-38.4 282.01,-40.68 282.01,-40.68 282.01,-40.68 286.46,-38.4 279.96,-36.67 290.92,-36.12 290.92,-36.12"/>
</g>
<!-- scludam.membership&#45;&gt;scludam.plots -->
<g id="edge16" class="edge">
<title>scludam.membership&#45;&gt;scludam.plots</title>
<path fill="none" stroke="black" d="M223.72,-108.12C250.4,-117.9 284.01,-130.22 312.08,-140.51"/>
<polygon fill="black" stroke="black" points="321.76,-144.05 310.82,-144.84 317.06,-142.33 312.37,-140.61 312.37,-140.61 312.37,-140.61 317.06,-142.33 313.92,-136.39 321.76,-144.05 321.76,-144.05"/>
</g>
<!-- scludam.membership&#45;&gt;scludam.type_utils -->
<g id="edge17" class="edge">
<title>scludam.membership&#45;&gt;scludam.type_utils</title>
<path fill="none" stroke="black" d="M172.13,-108.39C164.23,-140.73 152.71,-210.58 187,-252 213.83,-284.42 259.34,-297.64 298.01,-302.78"/>
<polygon fill="black" stroke="black" points="308.19,-303.97 297.74,-307.28 303.23,-303.39 298.26,-302.81 298.26,-302.81 298.26,-302.81 303.23,-303.39 298.78,-298.34 308.19,-303.97 308.19,-303.97"/>
</g>
<!-- scludam.plots&#45;&gt;scludam.type_utils -->
<g id="edge18" class="edge">
<title>scludam.plots&#45;&gt;scludam.type_utils</title>
<path fill="none" stroke="black" d="M368,-180.13C368,-204.33 368,-248.79 368,-277.61"/>
<polygon fill="black" stroke="black" points="368,-287.81 363.5,-277.81 368,-282.81 368,-277.81 368,-277.81 368,-277.81 368,-282.81 372.5,-277.81 368,-287.81 368,-287.81"/>
</g>
<!-- scludam.shdbscan&#45;&gt;scludam.plots -->
<g id="edge19" class="edge">
<title>scludam.shdbscan&#45;&gt;scludam.plots</title>
<path fill="none" stroke="black" d="M529.92,-108.03C497.86,-118.52 456.76,-131.97 423.99,-142.68"/>
<polygon fill="black" stroke="black" points="414.11,-145.92 422.22,-138.53 418.86,-144.36 423.62,-142.81 423.62,-142.81 423.62,-142.81 418.86,-144.36 425.02,-147.08 414.11,-145.92 414.11,-145.92"/>
</g>
<!-- scludam.shdbscan&#45;&gt;scludam.type_utils -->
<g id="edge20" class="edge">
<title>scludam.shdbscan&#45;&gt;scludam.type_utils</title>
<path fill="none" stroke="black" d="M589.49,-108.38C602.13,-140.7 623.13,-210.52 589,-252 569.87,-275.24 495.03,-289.61 437.69,-297.42"/>
<polygon fill="black" stroke="black" points="427.56,-298.76 436.89,-292.99 432.52,-298.1 437.48,-297.45 437.48,-297.45 437.48,-297.45 432.52,-298.1 438.07,-301.91 427.56,-298.76 427.56,-298.76"/>
</g>
<!-- scludam.utils -->
<g id="node13" class="node">
<title>scludam.utils</title>
<polygon fill="none" stroke="black" points="580.5,-252 491.5,-252 491.5,-216 580.5,-216 580.5,-252"/>
<text text-anchor="middle" x="536" y="-230.3" font-family="Times,serif" font-size="14.00">scludam.utils</text>
</g>
<!-- scludam.shdbscan&#45;&gt;scludam.utils -->
<g id="edge21" class="edge">
<title>scludam.shdbscan&#45;&gt;scludam.utils</title>
<path fill="none" stroke="black" d="M582.78,-108.31C583.04,-126.67 581.8,-156.27 573,-180 569.41,-189.68 563.62,-199.25 557.67,-207.54"/>
<polygon fill="black" stroke="black" points="551.51,-215.66 553.97,-204.98 554.53,-211.68 557.55,-207.7 557.55,-207.7 557.55,-207.7 554.53,-211.68 561.14,-210.42 551.51,-215.66 551.51,-215.66"/>
</g>
<!-- scludam.stat_tests&#45;&gt;scludam.type_utils -->
<g id="edge22" class="edge">
<title>scludam.stat_tests&#45;&gt;scludam.type_utils</title>
<path fill="none" stroke="black" d="M657.89,-248.94C653.19,-250 648.52,-251.03 644,-252 574.04,-266.97 493.68,-282.18 437.78,-292.44"/>
<polygon fill="black" stroke="black" points="427.64,-294.3 436.66,-288.07 432.56,-293.4 437.48,-292.5 437.48,-292.5 437.48,-292.5 432.56,-293.4 438.29,-296.92 427.64,-294.3 427.64,-294.3"/>
</g>
<!-- scludam.synthetic&#45;&gt;scludam.type_utils -->
<g id="edge23" class="edge">
<title>scludam.synthetic&#45;&gt;scludam.type_utils</title>
<path fill="none" stroke="black" d="M293.22,-252.12C305.92,-261.11 321.66,-272.24 335.42,-281.97"/>
<polygon fill="black" stroke="black" points="343.69,-287.81 332.93,-285.71 339.61,-284.92 335.52,-282.04 335.52,-282.04 335.52,-282.04 339.61,-284.92 338.12,-278.36 343.69,-287.81 343.69,-287.81"/>
</g>
<!-- scludam.utils&#45;&gt;scludam.type_utils -->
<g id="edge24" class="edge">
<title>scludam.utils&#45;&gt;scludam.type_utils</title>
<path fill="none" stroke="black" d="M494.9,-252.12C471.83,-261.74 442.86,-273.81 418.43,-283.99"/>
<polygon fill="black" stroke="black" points="408.96,-287.93 416.46,-279.93 413.58,-286.01 418.19,-284.09 418.19,-284.09 418.19,-284.09 413.58,-286.01 419.93,-288.24 408.96,-287.93 408.96,-287.93"/>
</g>
</g>
</svg>
