<?xml version="1.0" encoding="UTF-8" standalone="no"?>
<!DOCTYPE svg PUBLIC "-//W3C//DTD SVG 1.1//EN"
 "http://www.w3.org/Graphics/SVG/1.1/DTD/svg11.dtd">
<!-- Generated by graphviz version 2.43.0 (0)
 -->
<!-- Title: packages_scludam Pages: 1 -->
<svg width="380pt" height="188pt"
 viewBox="0.00 0.00 379.50 188.00" xmlns="http://www.w3.org/2000/svg" xmlns:xlink="http://www.w3.org/1999/xlink">
<g id="graph0" class="graph" transform="scale(1 1) rotate(0) translate(4 184)">
<title>packages_scludam</title>
<polygon fill="white" stroke="transparent" points="-4,4 -4,-184 375.5,-184 375.5,4 -4,4"/>
<!-- scludam -->
<g id="node1" class="node">
<title>scludam</title>
<polygon fill="none" stroke="black" points="147,-36 85,-36 85,0 147,0 147,-36"/>
<text text-anchor="middle" x="116" y="-14.3" font-family="Times,serif" font-size="14.00">scludam</text>
</g>
<!-- scludam.fetcher -->
<g id="node2" class="node">
<title>scludam.fetcher</title>
<polygon fill="none" stroke="black" points="104,-108 0,-108 0,-72 104,-72 104,-108"/>
<text text-anchor="middle" x="52" y="-86.3" font-family="Times,serif" font-size="14.00">scludam.fetcher</text>
</g>
<!-- scludam&#45;&gt;scludam.fetcher -->
<g id="edge1" class="edge">
<title>scludam&#45;&gt;scludam.fetcher</title>
<path fill="none" stroke="black" d="M100.18,-36.3C92.43,-44.78 82.96,-55.14 74.48,-64.42"/>
<polygon fill="black" stroke="black" points="67.64,-71.9 71.06,-61.48 71.01,-68.21 74.39,-64.52 74.39,-64.52 74.39,-64.52 71.01,-68.21 77.71,-67.55 67.64,-71.9 67.64,-71.9"/>
</g>
<!-- scludam.stat_tests -->
<g id="node3" class="node">
<title>scludam.stat_tests</title>
<polygon fill="none" stroke="black" points="238,-108 122,-108 122,-72 238,-72 238,-108"/>
<text text-anchor="middle" x="180" y="-86.3" font-family="Times,serif" font-size="14.00">scludam.stat_tests</text>
</g>
<!-- scludam&#45;&gt;scludam.stat_tests -->
<g id="edge2" class="edge">
<title>scludam&#45;&gt;scludam.stat_tests</title>
<path fill="none" stroke="black" d="M131.82,-36.3C139.57,-44.78 149.04,-55.14 157.52,-64.42"/>
<polygon fill="black" stroke="black" points="164.36,-71.9 154.29,-67.55 160.99,-68.21 157.61,-64.52 157.61,-64.52 157.61,-64.52 160.99,-68.21 160.94,-61.48 164.36,-71.9 164.36,-71.9"/>
</g>
<!-- scludam.type_utils -->
<g id="node5" class="node">
<title>scludam.type_utils</title>
<polygon fill="none" stroke="black" points="239.5,-180 120.5,-180 120.5,-144 239.5,-144 239.5,-180"/>
<text text-anchor="middle" x="180" y="-158.3" font-family="Times,serif" font-size="14.00">scludam.type_utils</text>
</g>
<!-- scludam.fetcher&#45;&gt;scludam.type_utils -->
<g id="edge3" class="edge">
<title>scludam.fetcher&#45;&gt;scludam.type_utils</title>
<path fill="none" stroke="black" d="M83.31,-108.12C100.2,-117.36 121.25,-128.87 139.38,-138.79"/>
<polygon fill="black" stroke="black" points="148.57,-143.81 137.63,-142.96 144.18,-141.41 139.79,-139.01 139.79,-139.01 139.79,-139.01 144.18,-141.41 141.95,-135.06 148.57,-143.81 148.57,-143.81"/>
</g>
<!-- scludam.stat_tests&#45;&gt;scludam.type_utils -->
<g id="edge4" class="edge">
<title>scludam.stat_tests&#45;&gt;scludam.type_utils</title>
<path fill="none" stroke="black" d="M180,-108.3C180,-116.02 180,-125.29 180,-133.89"/>
<polygon fill="black" stroke="black" points="180,-143.9 175.5,-133.9 180,-138.9 180,-133.9 180,-133.9 180,-133.9 180,-138.9 184.5,-133.9 180,-143.9 180,-143.9"/>
</g>
<!-- scludam.synthetic -->
<g id="node4" class="node">
<title>scludam.synthetic</title>
<polygon fill="none" stroke="black" points="371.5,-108 256.5,-108 256.5,-72 371.5,-72 371.5,-108"/>
<text text-anchor="middle" x="314" y="-86.3" font-family="Times,serif" font-size="14.00">scludam.synthetic</text>
</g>
<!-- scludam.synthetic&#45;&gt;scludam.type_utils -->
<g id="edge5" class="edge">
<title>scludam.synthetic&#45;&gt;scludam.type_utils</title>
<path fill="none" stroke="black" d="M281.22,-108.12C263.37,-117.45 241.1,-129.08 222,-139.06"/>
<polygon fill="black" stroke="black" points="212.91,-143.81 219.69,-135.19 217.34,-141.5 221.77,-139.18 221.77,-139.18 221.77,-139.18 217.34,-141.5 223.85,-143.17 212.91,-143.81 212.91,-143.81"/>
</g>
</g>
</svg>
