<?xml version="1.0" encoding="UTF-8" standalone="no"?>
<!DOCTYPE svg PUBLIC "-//W3C//DTD SVG 1.1//EN"
 "http://www.w3.org/Graphics/SVG/1.1/DTD/svg11.dtd">
<!-- Generated by graphviz version 2.43.0 (0)
 -->
<!-- Title: packages_scludam Pages: 1 -->
<svg width="890pt" height="404pt"
 viewBox="0.00 0.00 890.00 404.00" xmlns="http://www.w3.org/2000/svg" xmlns:xlink="http://www.w3.org/1999/xlink">
<g id="graph0" class="graph" transform="scale(1 1) rotate(0) translate(4 400)">
<title>packages_scludam</title>
<polygon fill="white" stroke="transparent" points="-4,4 -4,-400 886,-400 886,4 -4,4"/>
<!-- scludam -->
<g id="node1" class="node">
<title>scludam</title>
<polygon fill="none" stroke="black" points="419,-36 357,-36 357,0 419,0 419,-36"/>
<text text-anchor="middle" x="388" y="-14.3" font-family="Times,serif" font-size="14.00">scludam</text>
</g>
<!-- scludam.detection -->
<g id="node2" class="node">
<title>scludam.detection</title>
<polygon fill="none" stroke="black" points="500,-180 384,-180 384,-144 500,-144 500,-180"/>
<text text-anchor="middle" x="442" y="-158.3" font-family="Times,serif" font-size="14.00">scludam.detection</text>
</g>
<!-- scludam&#45;&gt;scludam.detection -->
<g id="edge1" class="edge">
<title>scludam&#45;&gt;scludam.detection</title>
<path fill="none" stroke="black" d="M394.51,-36.13C403.8,-60.54 420.92,-105.57 431.87,-134.36"/>
<polygon fill="black" stroke="black" points="435.46,-143.81 427.7,-136.06 433.69,-139.14 431.91,-134.46 431.91,-134.46 431.91,-134.46 433.69,-139.14 436.11,-132.86 435.46,-143.81 435.46,-143.81"/>
</g>
<!-- scludam.fetcher -->
<g id="node3" class="node">
<title>scludam.fetcher</title>
<polygon fill="none" stroke="black" points="214,-180 110,-180 110,-144 214,-144 214,-180"/>
<text text-anchor="middle" x="162" y="-158.3" font-family="Times,serif" font-size="14.00">scludam.fetcher</text>
</g>
<!-- scludam&#45;&gt;scludam.fetcher -->
<g id="edge2" class="edge">
<title>scludam&#45;&gt;scludam.fetcher</title>
<path fill="none" stroke="black" d="M360.74,-36.13C320.02,-61.72 243.25,-109.95 197.97,-138.4"/>
<polygon fill="black" stroke="black" points="189.36,-143.81 195.43,-134.68 193.59,-141.15 197.82,-138.49 197.82,-138.49 197.82,-138.49 193.59,-141.15 200.22,-142.3 189.36,-143.81 189.36,-143.81"/>
</g>
<!-- scludam.hkde -->
<g id="node4" class="node">
<title>scludam.hkde</title>
<polygon fill="none" stroke="black" points="92,-180 0,-180 0,-144 92,-144 92,-180"/>
<text text-anchor="middle" x="46" y="-158.3" font-family="Times,serif" font-size="14.00">scludam.hkde</text>
</g>
<!-- scludam&#45;&gt;scludam.hkde -->
<g id="edge3" class="edge">
<title>scludam&#45;&gt;scludam.hkde</title>
<path fill="none" stroke="black" d="M356.81,-29.89C327.69,-40.22 283.11,-56.43 245,-72 191.8,-93.73 131.71,-120.99 91.61,-139.58"/>
<polygon fill="black" stroke="black" points="82.37,-143.87 89.54,-135.58 86.9,-141.76 91.44,-139.66 91.44,-139.66 91.44,-139.66 86.9,-141.76 93.33,-143.74 82.37,-143.87 82.37,-143.87"/>
</g>
<!-- scludam.membership -->
<g id="node6" class="node">
<title>scludam.membership</title>
<polygon fill="none" stroke="black" points="366,-180 232,-180 232,-144 366,-144 366,-180"/>
<text text-anchor="middle" x="299" y="-158.3" font-family="Times,serif" font-size="14.00">scludam.membership</text>
</g>
<!-- scludam&#45;&gt;scludam.membership -->
<g id="edge4" class="edge">
<title>scludam&#45;&gt;scludam.membership</title>
<path fill="none" stroke="black" d="M372.68,-36.13C354.72,-60.65 326.05,-105.97 310.08,-134.74"/>
<polygon fill="black" stroke="black" points="305.18,-143.81 305.97,-132.87 307.56,-139.41 309.93,-135.01 309.93,-135.01 309.93,-135.01 307.56,-139.41 313.89,-137.15 305.18,-143.81 305.18,-143.81"/>
</g>
<!-- scludam.pipeline -->
<g id="node7" class="node">
<title>scludam.pipeline</title>
<polygon fill="none" stroke="black" points="583,-108 473,-108 473,-72 583,-72 583,-108"/>
<text text-anchor="middle" x="528" y="-86.3" font-family="Times,serif" font-size="14.00">scludam.pipeline</text>
</g>
<!-- scludam&#45;&gt;scludam.pipeline -->
<g id="edge5" class="edge">
<title>scludam&#45;&gt;scludam.pipeline</title>
<path fill="none" stroke="black" d="M419.07,-34.54C438.3,-44.15 463.27,-56.64 484.45,-67.23"/>
<polygon fill="black" stroke="black" points="493.58,-71.79 482.62,-71.34 489.11,-69.55 484.63,-67.32 484.63,-67.32 484.63,-67.32 489.11,-69.55 486.65,-63.29 493.58,-71.79 493.58,-71.79"/>
</g>
<!-- scludam.shdbscan -->
<g id="node10" class="node">
<title>scludam.shdbscan</title>
<polygon fill="none" stroke="black" points="748,-180 632,-180 632,-144 748,-144 748,-180"/>
<text text-anchor="middle" x="690" y="-158.3" font-family="Times,serif" font-size="14.00">scludam.shdbscan</text>
</g>
<!-- scludam&#45;&gt;scludam.shdbscan -->
<g id="edge6" class="edge">
<title>scludam&#45;&gt;scludam.shdbscan</title>
<path fill="none" stroke="black" d="M419.07,-22.36C460.6,-27.88 535.51,-41.45 592,-72 622.34,-88.41 650.79,-116.17 669.13,-136.33"/>
<polygon fill="black" stroke="black" points="675.89,-143.91 665.88,-139.43 672.56,-140.17 669.24,-136.44 669.24,-136.44 669.24,-136.44 672.56,-140.17 672.6,-133.45 675.89,-143.91 675.89,-143.91"/>
</g>
<!-- scludam.stat_tests -->
<g id="node11" class="node">
<title>scludam.stat_tests</title>
<polygon fill="none" stroke="black" points="882,-180 766,-180 766,-144 882,-144 882,-180"/>
<text text-anchor="middle" x="824" y="-158.3" font-family="Times,serif" font-size="14.00">scludam.stat_tests</text>
</g>
<!-- scludam&#45;&gt;scludam.stat_tests -->
<g id="edge7" class="edge">
<title>scludam&#45;&gt;scludam.stat_tests</title>
<path fill="none" stroke="black" d="M419.38,-23.72C465.93,-31.2 555.66,-47.51 629,-72 684.06,-90.39 744.42,-119.41 783.18,-139.28"/>
<polygon fill="black" stroke="black" points="792.07,-143.88 781.13,-143.29 787.63,-141.58 783.19,-139.29 783.19,-139.29 783.19,-139.29 787.63,-141.58 785.26,-135.29 792.07,-143.88 792.07,-143.88"/>
</g>
<!-- scludam.masker -->
<g id="node5" class="node">
<title>scludam.masker</title>
<polygon fill="none" stroke="black" points="581,-252 475,-252 475,-216 581,-216 581,-252"/>
<text text-anchor="middle" x="528" y="-230.3" font-family="Times,serif" font-size="14.00">scludam.masker</text>
</g>
<!-- scludam.detection&#45;&gt;scludam.masker -->
<g id="edge8" class="edge">
<title>scludam.detection&#45;&gt;scludam.masker</title>
<path fill="none" stroke="black" d="M463.26,-180.3C474.09,-189.12 487.42,-199.97 499.16,-209.53"/>
<polygon fill="black" stroke="black" points="506.99,-215.9 496.39,-213.07 503.11,-212.74 499.23,-209.58 499.23,-209.58 499.23,-209.58 503.11,-212.74 502.07,-206.09 506.99,-215.9 506.99,-215.9"/>
</g>
<!-- scludam.plots -->
<g id="node8" class="node">
<title>scludam.plots</title>
<polygon fill="none" stroke="black" points="457,-252 365,-252 365,-216 457,-216 457,-252"/>
<text text-anchor="middle" x="411" y="-230.3" font-family="Times,serif" font-size="14.00">scludam.plots</text>
</g>
<!-- scludam.detection&#45;&gt;scludam.plots -->
<g id="edge9" class="edge">
<title>scludam.detection&#45;&gt;scludam.plots</title>
<path fill="none" stroke="black" d="M434.34,-180.3C430.81,-188.27 426.54,-197.9 422.63,-206.74"/>
<polygon fill="black" stroke="black" points="418.57,-215.9 418.51,-204.93 420.6,-211.32 422.62,-206.75 422.62,-206.75 422.62,-206.75 420.6,-211.32 426.74,-208.57 418.57,-215.9 418.57,-215.9"/>
</g>
<!-- scludam.type_utils -->
<g id="node13" class="node">
<title>scludam.type_utils</title>
<polygon fill="none" stroke="black" points="470.5,-396 351.5,-396 351.5,-360 470.5,-360 470.5,-396"/>
<text text-anchor="middle" x="411" y="-374.3" font-family="Times,serif" font-size="14.00">scludam.type_utils</text>
</g>
<!-- scludam.detection&#45;&gt;scludam.type_utils -->
<g id="edge10" class="edge">
<title>scludam.detection&#45;&gt;scludam.type_utils</title>
<path fill="none" stroke="black" d="M396.45,-180.02C380.75,-188.34 364.89,-200.07 356,-216 331.02,-260.74 365.16,-318.79 389.76,-351.55"/>
<polygon fill="black" stroke="black" points="396.08,-359.7 386.39,-354.56 393.01,-355.75 389.95,-351.8 389.95,-351.8 389.95,-351.8 393.01,-355.75 393.51,-349.04 396.08,-359.7 396.08,-359.7"/>
</g>
<!-- scludam.fetcher&#45;&gt;scludam.type_utils -->
<g id="edge11" class="edge">
<title>scludam.fetcher&#45;&gt;scludam.type_utils</title>
<path fill="none" stroke="black" d="M177.62,-180.11C206.1,-210.8 269.05,-276.46 329,-324 342.75,-334.9 358.79,-345.65 373.01,-354.59"/>
<polygon fill="black" stroke="black" points="381.6,-359.91 370.73,-358.47 377.35,-357.28 373.1,-354.65 373.1,-354.65 373.1,-354.65 377.35,-357.28 375.47,-350.82 381.6,-359.91 381.6,-359.91"/>
</g>
<!-- scludam.hkde&#45;&gt;scludam.plots -->
<g id="edge12" class="edge">
<title>scludam.hkde&#45;&gt;scludam.plots</title>
<path fill="none" stroke="black" d="M92.09,-177.73C95.1,-178.54 98.08,-179.3 101,-180 188.78,-200.98 292.45,-216.96 354.89,-225.65"/>
<polygon fill="black" stroke="black" points="364.92,-227.04 354.4,-230.13 359.97,-226.35 355.02,-225.67 355.02,-225.67 355.02,-225.67 359.97,-226.35 355.63,-221.21 364.92,-227.04 364.92,-227.04"/>
</g>
<!-- scludam.rutils -->
<g id="node9" class="node">
<title>scludam.rutils</title>
<polygon fill="none" stroke="black" points="168,-252 74,-252 74,-216 168,-216 168,-252"/>
<text text-anchor="middle" x="121" y="-230.3" font-family="Times,serif" font-size="14.00">scludam.rutils</text>
</g>
<!-- scludam.hkde&#45;&gt;scludam.rutils -->
<g id="edge13" class="edge">
<title>scludam.hkde&#45;&gt;scludam.rutils</title>
<path fill="none" stroke="black" d="M64.54,-180.3C73.8,-188.95 85.16,-199.55 95.26,-208.97"/>
<polygon fill="black" stroke="black" points="102.67,-215.9 92.29,-212.36 99.02,-212.48 95.36,-209.07 95.36,-209.07 95.36,-209.07 99.02,-212.48 98.43,-205.78 102.67,-215.9 102.67,-215.9"/>
</g>
<!-- scludam.hkde&#45;&gt;scludam.type_utils -->
<g id="edge14" class="edge">
<title>scludam.hkde&#45;&gt;scludam.type_utils</title>
<path fill="none" stroke="black" d="M45.01,-180.23C44.82,-199.92 47.55,-232 65,-252 135.41,-332.73 262.07,-361.33 341.06,-371.46"/>
<polygon fill="black" stroke="black" points="351.4,-372.71 340.93,-375.98 346.44,-372.11 341.47,-371.51 341.47,-371.51 341.47,-371.51 346.44,-372.11 342.02,-367.04 351.4,-372.71 351.4,-372.71"/>
</g>
<!-- scludam.synthetic -->
<g id="node12" class="node">
<title>scludam.synthetic</title>
<polygon fill="none" stroke="black" points="570.5,-324 455.5,-324 455.5,-288 570.5,-288 570.5,-324"/>
<text text-anchor="middle" x="513" y="-302.3" font-family="Times,serif" font-size="14.00">scludam.synthetic</text>
</g>
<!-- scludam.masker&#45;&gt;scludam.synthetic -->
<g id="edge15" class="edge">
<title>scludam.masker&#45;&gt;scludam.synthetic</title>
<path fill="none" stroke="black" d="M524.29,-252.3C522.64,-260.02 520.65,-269.29 518.81,-277.89"/>
<polygon fill="black" stroke="black" points="516.67,-287.9 514.36,-277.17 517.71,-283.01 518.76,-278.12 518.76,-278.12 518.76,-278.12 517.71,-283.01 523.16,-279.06 516.67,-287.9 516.67,-287.9"/>
</g>
<!-- scludam.membership&#45;&gt;scludam -->
<g id="edge16" class="edge">
<title>scludam.membership&#45;&gt;scludam</title>
<path fill="none" stroke="black" d="M314.36,-143.81C332.34,-119.26 361.01,-73.93 376.96,-45.19"/>
<polygon fill="black" stroke="black" points="381.85,-36.13 381.06,-47.07 379.47,-40.53 377.1,-44.93 377.1,-44.93 377.1,-44.93 379.47,-40.53 373.14,-42.79 381.85,-36.13 381.85,-36.13"/>
</g>
<!-- scludam.membership&#45;&gt;scludam.plots -->
<g id="edge17" class="edge">
<title>scludam.membership&#45;&gt;scludam.plots</title>
<path fill="none" stroke="black" d="M326.4,-180.12C340.91,-189.19 358.92,-200.45 374.59,-210.24"/>
<polygon fill="black" stroke="black" points="383.5,-215.81 372.63,-214.33 379.26,-213.16 375.02,-210.51 375.02,-210.51 375.02,-210.51 379.26,-213.16 377.4,-206.69 383.5,-215.81 383.5,-215.81"/>
</g>
<!-- scludam.membership&#45;&gt;scludam.type_utils -->
<g id="edge18" class="edge">
<title>scludam.membership&#45;&gt;scludam.type_utils</title>
<path fill="none" stroke="black" d="M301.49,-180.28C306.59,-211.24 320.42,-277.31 351,-324 358.21,-335.01 368.3,-345.13 378.14,-353.5"/>
<polygon fill="black" stroke="black" points="385.93,-359.83 375.33,-357.02 382.05,-356.68 378.17,-353.52 378.17,-353.52 378.17,-353.52 382.05,-356.68 381.01,-350.03 385.93,-359.83 385.93,-359.83"/>
</g>
<!-- scludam.pipeline&#45;&gt;scludam.detection -->
<g id="edge19" class="edge">
<title>scludam.pipeline&#45;&gt;scludam.detection</title>
<path fill="none" stroke="black" d="M506.74,-108.3C495.91,-117.12 482.58,-127.97 470.84,-137.53"/>
<polygon fill="black" stroke="black" points="463.01,-143.9 467.93,-134.09 466.89,-140.74 470.77,-137.58 470.77,-137.58 470.77,-137.58 466.89,-140.74 473.61,-141.07 463.01,-143.9 463.01,-143.9"/>
</g>
<!-- scludam.pipeline&#45;&gt;scludam.fetcher -->
<g id="edge20" class="edge">
<title>scludam.pipeline&#45;&gt;scludam.fetcher</title>
<path fill="none" stroke="black" d="M472.85,-98.89C413.61,-107.74 316.55,-123.34 223.97,-143.89"/>
<polygon fill="black" stroke="black" points="214.16,-146.1 222.93,-139.52 219.04,-145 223.91,-143.91 223.91,-143.91 223.91,-143.91 219.04,-145 224.9,-148.3 214.16,-146.1 214.16,-146.1"/>
</g>
<!-- scludam.pipeline&#45;&gt;scludam.masker -->
<g id="edge21" class="edge">
<title>scludam.pipeline&#45;&gt;scludam.masker</title>
<path fill="none" stroke="black" d="M533.82,-108.44C536.93,-118.67 540.43,-131.92 542,-144 544.06,-159.87 544.06,-164.13 542,-180 540.9,-188.49 538.84,-197.57 536.63,-205.76"/>
<polygon fill="black" stroke="black" points="533.82,-215.56 532.26,-204.71 535.2,-210.75 536.58,-205.95 536.58,-205.95 536.58,-205.95 535.2,-210.75 540.91,-207.19 533.82,-215.56 533.82,-215.56"/>
</g>
<!-- scludam.pipeline&#45;&gt;scludam.membership -->
<g id="edge22" class="edge">
<title>scludam.pipeline&#45;&gt;scludam.membership</title>
<path fill="none" stroke="black" d="M472.86,-107.86C440.33,-117.8 398.98,-130.44 364.76,-140.9"/>
<polygon fill="black" stroke="black" points="354.86,-143.93 363.1,-136.7 359.64,-142.46 364.42,-141 364.42,-141 364.42,-141 359.64,-142.46 365.73,-145.31 354.86,-143.93 354.86,-143.93"/>
</g>
<!-- scludam.pipeline&#45;&gt;scludam.plots -->
<g id="edge23" class="edge">
<title>scludam.pipeline&#45;&gt;scludam.plots</title>
<path fill="none" stroke="black" d="M528.44,-108.13C528.08,-127.44 524.81,-158.88 509,-180 498.19,-194.43 482.27,-205.38 466.38,-213.47"/>
<polygon fill="black" stroke="black" points="457.07,-217.91 464.16,-209.54 461.58,-215.76 466.09,-213.6 466.09,-213.6 466.09,-213.6 461.58,-215.76 468.03,-217.67 457.07,-217.91 457.07,-217.91"/>
</g>
<!-- scludam.pipeline&#45;&gt;scludam.shdbscan -->
<g id="edge24" class="edge">
<title>scludam.pipeline&#45;&gt;scludam.shdbscan</title>
<path fill="none" stroke="black" d="M567.63,-108.12C589.78,-117.69 617.56,-129.7 641.06,-139.85"/>
<polygon fill="black" stroke="black" points="650.5,-143.93 639.53,-144.1 645.91,-141.95 641.32,-139.97 641.32,-139.97 641.32,-139.97 645.91,-141.95 643.1,-135.83 650.5,-143.93 650.5,-143.93"/>
</g>
<!-- scludam.pipeline&#45;&gt;scludam.stat_tests -->
<g id="edge25" class="edge">
<title>scludam.pipeline&#45;&gt;scludam.stat_tests</title>
<path fill="none" stroke="black" d="M583.14,-103.42C627.31,-113.44 691.11,-128.1 755.93,-143.76"/>
<polygon fill="black" stroke="black" points="765.91,-146.18 755.14,-148.2 761.05,-145.01 756.19,-143.83 756.19,-143.83 756.19,-143.83 761.05,-145.01 757.25,-139.45 765.91,-146.18 765.91,-146.18"/>
</g>
<!-- scludam.utils -->
<g id="node14" class="node">
<title>scludam.utils</title>
<polygon fill="none" stroke="black" points="688.5,-252 599.5,-252 599.5,-216 688.5,-216 688.5,-252"/>
<text text-anchor="middle" x="644" y="-230.3" font-family="Times,serif" font-size="14.00">scludam.utils</text>
</g>
<!-- scludam.pipeline&#45;&gt;scludam.utils -->
<g id="edge26" class="edge">
<title>scludam.pipeline&#45;&gt;scludam.utils</title>
<path fill="none" stroke="black" d="M541.99,-108.13C562.28,-132.97 600.01,-179.15 623.46,-207.86"/>
<polygon fill="black" stroke="black" points="629.96,-215.81 620.15,-210.91 626.79,-211.94 623.63,-208.07 623.63,-208.07 623.63,-208.07 626.79,-211.94 627.12,-205.22 629.96,-215.81 629.96,-215.81"/>
</g>
<!-- scludam.plots&#45;&gt;scludam.type_utils -->
<g id="edge27" class="edge">
<title>scludam.plots&#45;&gt;scludam.type_utils</title>
<path fill="none" stroke="black" d="M411,-252.13C411,-276.33 411,-320.79 411,-349.61"/>
<polygon fill="black" stroke="black" points="411,-359.81 406.5,-349.81 411,-354.81 411,-349.81 411,-349.81 411,-349.81 411,-354.81 415.5,-349.81 411,-359.81 411,-359.81"/>
</g>
<!-- scludam.shdbscan&#45;&gt;scludam.plots -->
<g id="edge28" class="edge">
<title>scludam.shdbscan&#45;&gt;scludam.plots</title>
<path fill="none" stroke="black" d="M631.71,-175.66C588.65,-185.27 528.4,-199.26 467.01,-215.81"/>
<polygon fill="black" stroke="black" points="457.15,-218.49 465.62,-211.52 461.97,-217.18 466.8,-215.87 466.8,-215.87 466.8,-215.87 461.97,-217.18 467.98,-220.21 457.15,-218.49 457.15,-218.49"/>
</g>
<!-- scludam.shdbscan&#45;&gt;scludam.type_utils -->
<g id="edge29" class="edge">
<title>scludam.shdbscan&#45;&gt;scludam.type_utils</title>
<path fill="none" stroke="black" d="M696.58,-180.31C702.55,-198.95 708.9,-229.01 698,-252 676.36,-297.67 654.99,-300.98 610,-324 569.6,-344.68 520.33,-357.88 480.92,-365.94"/>
<polygon fill="black" stroke="black" points="470.87,-367.93 479.81,-361.57 475.77,-366.96 480.68,-365.99 480.68,-365.99 480.68,-365.99 475.77,-366.96 481.55,-370.4 470.87,-367.93 470.87,-367.93"/>
</g>
<!-- scludam.shdbscan&#45;&gt;scludam.utils -->
<g id="edge30" class="edge">
<title>scludam.shdbscan&#45;&gt;scludam.utils</title>
<path fill="none" stroke="black" d="M678.63,-180.3C673.28,-188.44 666.8,-198.31 660.89,-207.3"/>
<polygon fill="black" stroke="black" points="655.24,-215.9 656.97,-205.07 657.99,-211.72 660.73,-207.54 660.73,-207.54 660.73,-207.54 657.99,-211.72 664.49,-210.01 655.24,-215.9 655.24,-215.9"/>
</g>
<!-- scludam.stat_tests&#45;&gt;scludam.type_utils -->
<g id="edge31" class="edge">
<title>scludam.stat_tests&#45;&gt;scludam.type_utils</title>
<path fill="none" stroke="black" d="M811.48,-180.02C786.01,-213.32 724.64,-287.08 655,-324 600.63,-352.83 531.52,-365.98 480.74,-371.98"/>
<polygon fill="black" stroke="black" points="470.52,-373.12 479.96,-367.54 475.49,-372.57 480.46,-372.01 480.46,-372.01 480.46,-372.01 475.49,-372.57 480.96,-376.48 470.52,-373.12 470.52,-373.12"/>
</g>
<!-- scludam.synthetic&#45;&gt;scludam.type_utils -->
<g id="edge32" class="edge">
<title>scludam.synthetic&#45;&gt;scludam.type_utils</title>
<path fill="none" stroke="black" d="M488.05,-324.12C474.96,-333.11 458.74,-344.24 444.56,-353.97"/>
<polygon fill="black" stroke="black" points="436.05,-359.81 441.75,-350.44 440.17,-356.98 444.29,-354.15 444.29,-354.15 444.29,-354.15 440.17,-356.98 446.84,-357.86 436.05,-359.81 436.05,-359.81"/>
</g>
<!-- scludam.utils&#45;&gt;scludam.type_utils -->
<g id="edge33" class="edge">
<title>scludam.utils&#45;&gt;scludam.type_utils</title>
<path fill="none" stroke="black" d="M635.88,-252.32C625.61,-272.41 606.07,-305.16 580,-324 550.86,-345.05 513.09,-357.93 480.65,-365.71"/>
<polygon fill="black" stroke="black" points="470.77,-367.96 479.52,-361.35 475.64,-366.85 480.52,-365.74 480.52,-365.74 480.52,-365.74 475.64,-366.85 481.52,-370.12 470.77,-367.96 470.77,-367.96"/>
</g>
</g>
</svg>
