<?xml version="1.0" encoding="UTF-8" standalone="no"?>
<!DOCTYPE svg PUBLIC "-//W3C//DTD SVG 1.1//EN"
 "http://www.w3.org/Graphics/SVG/1.1/DTD/svg11.dtd">
<!-- Generated by graphviz version 2.43.0 (0)
 -->
<!-- Title: packages_scludam Pages: 1 -->
<svg width="593pt" height="332pt"
 viewBox="0.00 0.00 593.00 332.00" xmlns="http://www.w3.org/2000/svg" xmlns:xlink="http://www.w3.org/1999/xlink">
<g id="graph0" class="graph" transform="scale(1 1) rotate(0) translate(4 328)">
<title>packages_scludam</title>
<polygon fill="white" stroke="transparent" points="-4,4 -4,-328 589,-328 589,4 -4,4"/>
<!-- scludam -->
<g id="node1" class="node">
<title>scludam</title>
<polygon fill="none" stroke="black" points="344,-36 282,-36 282,0 344,0 344,-36"/>
<text text-anchor="middle" x="313" y="-14.3" font-family="Times,serif" font-size="14.00">scludam</text>
</g>
<!-- scludam.detection -->
<g id="node2" class="node">
<title>scludam.detection</title>
<polygon fill="none" stroke="black" points="328,-108 212,-108 212,-72 328,-72 328,-108"/>
<text text-anchor="middle" x="270" y="-86.3" font-family="Times,serif" font-size="14.00">scludam.detection</text>
</g>
<!-- scludam&#45;&gt;scludam.detection -->
<g id="edge1" class="edge">
<title>scludam&#45;&gt;scludam.detection</title>
<path fill="none" stroke="black" d="M302.37,-36.3C297.37,-44.44 291.31,-54.31 285.79,-63.3"/>
<polygon fill="black" stroke="black" points="280.51,-71.9 281.91,-61.02 283.12,-67.64 285.74,-63.37 285.74,-63.37 285.74,-63.37 283.12,-67.64 289.58,-65.73 280.51,-71.9 280.51,-71.9"/>
</g>
<!-- scludam.fetcher -->
<g id="node3" class="node">
<title>scludam.fetcher</title>
<polygon fill="none" stroke="black" points="104,-180 0,-180 0,-144 104,-144 104,-180"/>
<text text-anchor="middle" x="52" y="-158.3" font-family="Times,serif" font-size="14.00">scludam.fetcher</text>
</g>
<!-- scludam&#45;&gt;scludam.fetcher -->
<g id="edge2" class="edge">
<title>scludam&#45;&gt;scludam.fetcher</title>
<path fill="none" stroke="black" d="M281.83,-33.17C259.62,-43.47 229.17,-58.01 203,-72 162.94,-93.41 118.26,-120.11 87.97,-138.65"/>
<polygon fill="black" stroke="black" points="79.43,-143.89 85.6,-134.82 83.7,-141.28 87.96,-138.66 87.96,-138.66 87.96,-138.66 83.7,-141.28 90.31,-142.49 79.43,-143.89 79.43,-143.89"/>
</g>
<!-- scludam.shdbscan -->
<g id="node6" class="node">
<title>scludam.shdbscan</title>
<polygon fill="none" stroke="black" points="477,-180 361,-180 361,-144 477,-144 477,-180"/>
<text text-anchor="middle" x="419" y="-158.3" font-family="Times,serif" font-size="14.00">scludam.shdbscan</text>
</g>
<!-- scludam&#45;&gt;scludam.shdbscan -->
<g id="edge3" class="edge">
<title>scludam&#45;&gt;scludam.shdbscan</title>
<path fill="none" stroke="black" d="M325.79,-36.13C344.25,-60.86 378.51,-106.76 399.96,-135.49"/>
<polygon fill="black" stroke="black" points="406.17,-143.81 396.58,-138.49 403.18,-139.8 400.19,-135.8 400.19,-135.8 400.19,-135.8 403.18,-139.8 403.79,-133.11 406.17,-143.81 406.17,-143.81"/>
</g>
<!-- scludam.stat_tests -->
<g id="node7" class="node">
<title>scludam.stat_tests</title>
<polygon fill="none" stroke="black" points="585,-108 469,-108 469,-72 585,-72 585,-108"/>
<text text-anchor="middle" x="527" y="-86.3" font-family="Times,serif" font-size="14.00">scludam.stat_tests</text>
</g>
<!-- scludam&#45;&gt;scludam.stat_tests -->
<g id="edge4" class="edge">
<title>scludam&#45;&gt;scludam.stat_tests</title>
<path fill="none" stroke="black" d="M344.12,-29.18C375.71,-39.51 425.49,-55.79 465.14,-68.76"/>
<polygon fill="black" stroke="black" points="474.72,-71.9 463.82,-73.07 469.97,-70.35 465.22,-68.79 465.22,-68.79 465.22,-68.79 469.97,-70.35 466.62,-64.51 474.72,-71.9 474.72,-71.9"/>
</g>
<!-- scludam.masker -->
<g id="node4" class="node">
<title>scludam.masker</title>
<polygon fill="none" stroke="black" points="228,-180 122,-180 122,-144 228,-144 228,-180"/>
<text text-anchor="middle" x="175" y="-158.3" font-family="Times,serif" font-size="14.00">scludam.masker</text>
</g>
<!-- scludam.detection&#45;&gt;scludam.masker -->
<g id="edge5" class="edge">
<title>scludam.detection&#45;&gt;scludam.masker</title>
<path fill="none" stroke="black" d="M246.52,-108.3C234.44,-117.2 219.55,-128.18 206.48,-137.8"/>
<polygon fill="black" stroke="black" points="198.21,-143.9 203.59,-134.34 202.24,-140.93 206.26,-137.96 206.26,-137.96 206.26,-137.96 202.24,-140.93 208.93,-141.59 198.21,-143.9 198.21,-143.9"/>
</g>
<!-- scludam.plots -->
<g id="node5" class="node">
<title>scludam.plots</title>
<polygon fill="none" stroke="black" points="376,-252 284,-252 284,-216 376,-216 376,-252"/>
<text text-anchor="middle" x="330" y="-230.3" font-family="Times,serif" font-size="14.00">scludam.plots</text>
</g>
<!-- scludam.detection&#45;&gt;scludam.plots -->
<g id="edge6" class="edge">
<title>scludam.detection&#45;&gt;scludam.plots</title>
<path fill="none" stroke="black" d="M277.24,-108.13C287.55,-132.54 306.58,-177.57 318.75,-206.36"/>
<polygon fill="black" stroke="black" points="322.74,-215.81 314.7,-208.35 320.79,-211.21 318.84,-206.6 318.84,-206.6 318.84,-206.6 320.79,-211.21 322.99,-204.85 322.74,-215.81 322.74,-215.81"/>
</g>
<!-- scludam.type_utils -->
<g id="node9" class="node">
<title>scludam.type_utils</title>
<polygon fill="none" stroke="black" points="389.5,-324 270.5,-324 270.5,-288 389.5,-288 389.5,-324"/>
<text text-anchor="middle" x="330" y="-302.3" font-family="Times,serif" font-size="14.00">scludam.type_utils</text>
</g>
<!-- scludam.detection&#45;&gt;scludam.type_utils -->
<g id="edge7" class="edge">
<title>scludam.detection&#45;&gt;scludam.type_utils</title>
<path fill="none" stroke="black" d="M266.44,-108.38C261.06,-138.96 253.57,-203.69 275,-252 279.91,-263.06 288.31,-272.97 297.08,-281.15"/>
<polygon fill="black" stroke="black" points="304.81,-287.87 294.32,-284.71 301.04,-284.59 297.27,-281.31 297.27,-281.31 297.27,-281.31 301.04,-284.59 300.22,-277.91 304.81,-287.87 304.81,-287.87"/>
</g>
<!-- scludam.fetcher&#45;&gt;scludam.type_utils -->
<g id="edge8" class="edge">
<title>scludam.fetcher&#45;&gt;scludam.type_utils</title>
<path fill="none" stroke="black" d="M57.18,-180.26C64.19,-200.61 78.72,-233.92 103,-252 148.31,-285.73 211.69,-298.43 259.97,-303.01"/>
<polygon fill="black" stroke="black" points="270.03,-303.87 259.68,-307.5 265.04,-303.45 260.06,-303.02 260.06,-303.02 260.06,-303.02 265.04,-303.45 260.44,-298.54 270.03,-303.87 270.03,-303.87"/>
</g>
<!-- scludam.synthetic -->
<g id="node8" class="node">
<title>scludam.synthetic</title>
<polygon fill="none" stroke="black" points="227.5,-252 112.5,-252 112.5,-216 227.5,-216 227.5,-252"/>
<text text-anchor="middle" x="170" y="-230.3" font-family="Times,serif" font-size="14.00">scludam.synthetic</text>
</g>
<!-- scludam.masker&#45;&gt;scludam.synthetic -->
<g id="edge9" class="edge">
<title>scludam.masker&#45;&gt;scludam.synthetic</title>
<path fill="none" stroke="black" d="M173.76,-180.3C173.21,-188.02 172.55,-197.29 171.94,-205.89"/>
<polygon fill="black" stroke="black" points="171.22,-215.9 167.45,-205.6 171.58,-210.91 171.93,-205.92 171.93,-205.92 171.93,-205.92 171.58,-210.91 176.42,-206.24 171.22,-215.9 171.22,-215.9"/>
</g>
<!-- scludam.plots&#45;&gt;scludam.type_utils -->
<g id="edge10" class="edge">
<title>scludam.plots&#45;&gt;scludam.type_utils</title>
<path fill="none" stroke="black" d="M330,-252.3C330,-260.02 330,-269.29 330,-277.89"/>
<polygon fill="black" stroke="black" points="330,-287.9 325.5,-277.9 330,-282.9 330,-277.9 330,-277.9 330,-277.9 330,-282.9 334.5,-277.9 330,-287.9 330,-287.9"/>
</g>
<!-- scludam.shdbscan&#45;&gt;scludam.plots -->
<g id="edge11" class="edge">
<title>scludam.shdbscan&#45;&gt;scludam.plots</title>
<path fill="none" stroke="black" d="M397,-180.3C385.79,-189.12 372,-199.97 359.85,-209.53"/>
<polygon fill="black" stroke="black" points="351.75,-215.9 356.83,-206.18 355.68,-212.8 359.61,-209.71 359.61,-209.71 359.61,-209.71 355.68,-212.8 362.39,-213.25 351.75,-215.9 351.75,-215.9"/>
</g>
<!-- scludam.shdbscan&#45;&gt;scludam.type_utils -->
<g id="edge12" class="edge">
<title>scludam.shdbscan&#45;&gt;scludam.type_utils</title>
<path fill="none" stroke="black" d="M455.51,-180.08C469.6,-188.71 484.18,-200.65 492,-216 499.27,-230.25 501.39,-239.05 492,-252 470.99,-280.99 433.65,-294.41 400.12,-300.51"/>
<polygon fill="black" stroke="black" points="389.85,-302.18 399,-296.13 394.79,-301.38 399.72,-300.57 399.72,-300.57 399.72,-300.57 394.79,-301.38 400.45,-305.02 389.85,-302.18 389.85,-302.18"/>
</g>
<!-- scludam.utils -->
<g id="node10" class="node">
<title>scludam.utils</title>
<polygon fill="none" stroke="black" points="483.5,-252 394.5,-252 394.5,-216 483.5,-216 483.5,-252"/>
<text text-anchor="middle" x="439" y="-230.3" font-family="Times,serif" font-size="14.00">scludam.utils</text>
</g>
<!-- scludam.shdbscan&#45;&gt;scludam.utils -->
<g id="edge13" class="edge">
<title>scludam.shdbscan&#45;&gt;scludam.utils</title>
<path fill="none" stroke="black" d="M423.94,-180.3C426.17,-188.1 428.85,-197.49 431.33,-206.17"/>
<polygon fill="black" stroke="black" points="434.11,-215.9 427.04,-207.52 432.74,-211.09 431.37,-206.28 431.37,-206.28 431.37,-206.28 432.74,-211.09 435.69,-205.04 434.11,-215.9 434.11,-215.9"/>
</g>
<!-- scludam.stat_tests&#45;&gt;scludam.type_utils -->
<g id="edge14" class="edge">
<title>scludam.stat_tests&#45;&gt;scludam.type_utils</title>
<path fill="none" stroke="black" d="M530.82,-108.38C536.84,-140.71 544.55,-210.55 510,-252 483.29,-284.05 438.26,-297.29 399.93,-302.53"/>
<polygon fill="black" stroke="black" points="389.83,-303.75 399.22,-298.08 394.79,-303.15 399.75,-302.55 399.75,-302.55 399.75,-302.55 394.79,-303.15 400.29,-307.02 389.83,-303.75 389.83,-303.75"/>
</g>
<!-- scludam.synthetic&#45;&gt;scludam.type_utils -->
<g id="edge15" class="edge">
<title>scludam.synthetic&#45;&gt;scludam.type_utils</title>
<path fill="none" stroke="black" d="M209.14,-252.12C231.01,-261.69 258.46,-273.7 281.66,-283.85"/>
<polygon fill="black" stroke="black" points="290.99,-287.93 280.02,-288.05 286.41,-285.93 281.83,-283.92 281.83,-283.92 281.83,-283.92 286.41,-285.93 283.63,-279.8 290.99,-287.93 290.99,-287.93"/>
</g>
<!-- scludam.utils&#45;&gt;scludam.type_utils -->
<g id="edge16" class="edge">
<title>scludam.utils&#45;&gt;scludam.type_utils</title>
<path fill="none" stroke="black" d="M412.34,-252.12C398.22,-261.19 380.69,-272.45 365.44,-282.24"/>
<polygon fill="black" stroke="black" points="356.77,-287.81 362.75,-278.62 360.97,-285.11 365.18,-282.41 365.18,-282.41 365.18,-282.41 360.97,-285.11 367.61,-286.19 356.77,-287.81 356.77,-287.81"/>
</g>
</g>
</svg>
