<?xml version="1.0" encoding="UTF-8" standalone="no"?>
<!DOCTYPE svg PUBLIC "-//W3C//DTD SVG 1.1//EN"
 "http://www.w3.org/Graphics/SVG/1.1/DTD/svg11.dtd">
<!-- Generated by graphviz version 2.43.0 (0)
 -->
<!-- Title: packages_scludam Pages: 1 -->
<svg width="795pt" height="404pt"
 viewBox="0.00 0.00 795.28 404.00" xmlns="http://www.w3.org/2000/svg" xmlns:xlink="http://www.w3.org/1999/xlink">
<g id="graph0" class="graph" transform="scale(1 1) rotate(0) translate(4 400)">
<title>packages_scludam</title>
<polygon fill="white" stroke="transparent" points="-4,4 -4,-400 791.28,-400 791.28,4 -4,4"/>
<!-- scludam -->
<g id="node1" class="node">
<title>scludam</title>
<polygon fill="none" stroke="black" points="369.28,-36 307.28,-36 307.28,0 369.28,0 369.28,-36"/>
<text text-anchor="middle" x="338.28" y="-14.3" font-family="Times,serif" font-size="14.00">scludam</text>
</g>
<!-- scludam.detection -->
<g id="node2" class="node">
<title>scludam.detection</title>
<polygon fill="none" stroke="black" points="481.28,-180 365.28,-180 365.28,-144 481.28,-144 481.28,-180"/>
<text text-anchor="middle" x="423.28" y="-158.3" font-family="Times,serif" font-size="14.00">scludam.detection</text>
</g>
<!-- scludam&#45;&gt;scludam.detection -->
<g id="edge1" class="edge">
<title>scludam&#45;&gt;scludam.detection</title>
<path fill="none" stroke="black" d="M366.53,-36.22C379.25,-45.36 393.38,-57.66 402.28,-72 413.83,-90.61 419.03,-115 421.37,-133.54"/>
<polygon fill="black" stroke="black" points="422.45,-143.69 416.92,-134.22 421.92,-138.72 421.39,-133.75 421.39,-133.75 421.39,-133.75 421.92,-138.72 425.87,-133.28 422.45,-143.69 422.45,-143.69"/>
</g>
<!-- scludam.fetcher -->
<g id="node3" class="node">
<title>scludam.fetcher</title>
<polygon fill="none" stroke="black" points="119.28,-180 15.28,-180 15.28,-144 119.28,-144 119.28,-180"/>
<text text-anchor="middle" x="67.28" y="-158.3" font-family="Times,serif" font-size="14.00">scludam.fetcher</text>
</g>
<!-- scludam&#45;&gt;scludam.fetcher -->
<g id="edge2" class="edge">
<title>scludam&#45;&gt;scludam.fetcher</title>
<path fill="none" stroke="black" d="M307.2,-35.29C258.44,-60.84 163.91,-110.37 109.19,-139.04"/>
<polygon fill="black" stroke="black" points="100.11,-143.8 106.88,-135.17 104.54,-141.48 108.97,-139.16 108.97,-139.16 108.97,-139.16 104.54,-141.48 111.06,-143.14 100.11,-143.8 100.11,-143.8"/>
</g>
<!-- scludam.hkde -->
<g id="node4" class="node">
<title>scludam.hkde</title>
<polygon fill="none" stroke="black" points="137.28,-252 45.28,-252 45.28,-216 137.28,-216 137.28,-252"/>
<text text-anchor="middle" x="91.28" y="-230.3" font-family="Times,serif" font-size="14.00">scludam.hkde</text>
</g>
<!-- scludam&#45;&gt;scludam.hkde -->
<g id="edge3" class="edge">
<title>scludam&#45;&gt;scludam.hkde</title>
<path fill="none" stroke="black" d="M307.18,-19.48C238.18,-22.45 73.17,-40.56 6.28,-144 -2.4,-157.44 -1.48,-166.01 6.28,-180 13.42,-192.85 25.1,-202.99 37.55,-210.81"/>
<polygon fill="black" stroke="black" points="46.25,-215.86 35.35,-214.73 41.93,-213.35 37.6,-210.84 37.6,-210.84 37.6,-210.84 41.93,-213.35 39.86,-206.95 46.25,-215.86 46.25,-215.86"/>
</g>
<!-- scludam.membership -->
<g id="node6" class="node">
<title>scludam.membership</title>
<polygon fill="none" stroke="black" points="271.28,-180 137.28,-180 137.28,-144 271.28,-144 271.28,-180"/>
<text text-anchor="middle" x="204.28" y="-158.3" font-family="Times,serif" font-size="14.00">scludam.membership</text>
</g>
<!-- scludam&#45;&gt;scludam.membership -->
<g id="edge4" class="edge">
<title>scludam&#45;&gt;scludam.membership</title>
<path fill="none" stroke="black" d="M315.35,-36.05C302.68,-45.94 286.98,-58.99 274.28,-72 254.85,-91.93 235.51,-117.03 222.09,-135.5"/>
<polygon fill="black" stroke="black" points="216.19,-143.72 218.36,-132.97 219.1,-139.66 222.02,-135.6 222.02,-135.6 222.02,-135.6 219.1,-139.66 225.67,-138.22 216.19,-143.72 216.19,-143.72"/>
</g>
<!-- scludam.pipeline -->
<g id="node7" class="node">
<title>scludam.pipeline</title>
<polygon fill="none" stroke="black" points="393.28,-108 283.28,-108 283.28,-72 393.28,-72 393.28,-108"/>
<text text-anchor="middle" x="338.28" y="-86.3" font-family="Times,serif" font-size="14.00">scludam.pipeline</text>
</g>
<!-- scludam&#45;&gt;scludam.pipeline -->
<g id="edge5" class="edge">
<title>scludam&#45;&gt;scludam.pipeline</title>
<path fill="none" stroke="black" d="M338.28,-36.3C338.28,-44.02 338.28,-53.29 338.28,-61.89"/>
<polygon fill="black" stroke="black" points="338.28,-71.9 333.78,-61.9 338.28,-66.9 338.28,-61.9 338.28,-61.9 338.28,-61.9 338.28,-66.9 342.78,-61.9 338.28,-71.9 338.28,-71.9"/>
</g>
<!-- scludam.shdbscan -->
<g id="node10" class="node">
<title>scludam.shdbscan</title>
<polygon fill="none" stroke="black" points="653.28,-180 537.28,-180 537.28,-144 653.28,-144 653.28,-180"/>
<text text-anchor="middle" x="595.28" y="-158.3" font-family="Times,serif" font-size="14.00">scludam.shdbscan</text>
</g>
<!-- scludam&#45;&gt;scludam.shdbscan -->
<g id="edge6" class="edge">
<title>scludam&#45;&gt;scludam.shdbscan</title>
<path fill="none" stroke="black" d="M369.28,-36.13C415.88,-61.88 503.98,-110.55 555.34,-138.93"/>
<polygon fill="black" stroke="black" points="564.17,-143.81 553.25,-142.91 559.8,-141.39 555.42,-138.97 555.42,-138.97 555.42,-138.97 559.8,-141.39 557.6,-135.04 564.17,-143.81 564.17,-143.81"/>
</g>
<!-- scludam.stat_tests -->
<g id="node11" class="node">
<title>scludam.stat_tests</title>
<polygon fill="none" stroke="black" points="787.28,-180 671.28,-180 671.28,-144 787.28,-144 787.28,-180"/>
<text text-anchor="middle" x="729.28" y="-158.3" font-family="Times,serif" font-size="14.00">scludam.stat_tests</text>
</g>
<!-- scludam&#45;&gt;scludam.stat_tests -->
<g id="edge7" class="edge">
<title>scludam&#45;&gt;scludam.stat_tests</title>
<path fill="none" stroke="black" d="M369.29,-30.26C434.97,-54.11 588.92,-110.02 672.64,-140.43"/>
<polygon fill="black" stroke="black" points="682.25,-143.92 671.31,-144.73 677.55,-142.21 672.85,-140.5 672.85,-140.5 672.85,-140.5 677.55,-142.21 674.38,-136.27 682.25,-143.92 682.25,-143.92"/>
</g>
<!-- scludam.masker -->
<g id="node5" class="node">
<title>scludam.masker</title>
<polygon fill="none" stroke="black" points="418.28,-252 312.28,-252 312.28,-216 418.28,-216 418.28,-252"/>
<text text-anchor="middle" x="365.28" y="-230.3" font-family="Times,serif" font-size="14.00">scludam.masker</text>
</g>
<!-- scludam.detection&#45;&gt;scludam.masker -->
<g id="edge8" class="edge">
<title>scludam.detection&#45;&gt;scludam.masker</title>
<path fill="none" stroke="black" d="M408.95,-180.3C401.99,-188.7 393.51,-198.93 385.88,-208.14"/>
<polygon fill="black" stroke="black" points="379.46,-215.9 382.37,-205.32 382.65,-212.05 385.84,-208.2 385.84,-208.2 385.84,-208.2 382.65,-212.05 389.3,-211.07 379.46,-215.9 379.46,-215.9"/>
</g>
<!-- scludam.plots -->
<g id="node8" class="node">
<title>scludam.plots</title>
<polygon fill="none" stroke="black" points="324.28,-324 232.28,-324 232.28,-288 324.28,-288 324.28,-324"/>
<text text-anchor="middle" x="278.28" y="-302.3" font-family="Times,serif" font-size="14.00">scludam.plots</text>
</g>
<!-- scludam.detection&#45;&gt;scludam.plots -->
<g id="edge9" class="edge">
<title>scludam.detection&#45;&gt;scludam.plots</title>
<path fill="none" stroke="black" d="M429.8,-180.14C435.94,-199.45 442.18,-230.9 427.28,-252 421.51,-260.19 373.88,-276.27 334,-288.58"/>
<polygon fill="black" stroke="black" points="324.32,-291.54 332.57,-284.31 329.1,-290.08 333.89,-288.61 333.89,-288.61 333.89,-288.61 329.1,-290.08 335.2,-292.92 324.32,-291.54 324.32,-291.54"/>
</g>
<!-- scludam.type_utils -->
<g id="node13" class="node">
<title>scludam.type_utils</title>
<polygon fill="none" stroke="black" points="411.78,-396 292.78,-396 292.78,-360 411.78,-360 411.78,-396"/>
<text text-anchor="middle" x="352.28" y="-374.3" font-family="Times,serif" font-size="14.00">scludam.type_utils</text>
</g>
<!-- scludam.detection&#45;&gt;scludam.type_utils -->
<g id="edge10" class="edge">
<title>scludam.detection&#45;&gt;scludam.type_utils</title>
<path fill="none" stroke="black" d="M443.99,-180.14C478.26,-210.62 539.76,-275.58 505.28,-324 486.23,-350.76 452.7,-364.13 421.87,-370.77"/>
<polygon fill="black" stroke="black" points="411.97,-372.69 420.93,-366.36 416.88,-371.74 421.79,-370.78 421.79,-370.78 421.79,-370.78 416.88,-371.74 422.65,-375.2 411.97,-372.69 411.97,-372.69"/>
</g>
<!-- scludam.fetcher&#45;&gt;scludam.type_utils -->
<g id="edge11" class="edge">
<title>scludam.fetcher&#45;&gt;scludam.type_utils</title>
<path fill="none" stroke="black" d="M100.52,-180.12C115.86,-189.23 133.46,-201.54 146.28,-216 182.02,-256.3 160.74,-288.54 201.28,-324 224.11,-343.96 254.91,-356.54 282.75,-364.39"/>
<polygon fill="black" stroke="black" points="292.45,-366.98 281.63,-368.75 287.62,-365.69 282.79,-364.41 282.79,-364.41 282.79,-364.41 287.62,-365.69 283.95,-360.06 292.45,-366.98 292.45,-366.98"/>
</g>
<!-- scludam.hkde&#45;&gt;scludam.plots -->
<g id="edge12" class="edge">
<title>scludam.hkde&#45;&gt;scludam.plots</title>
<path fill="none" stroke="black" d="M137.03,-252.12C163.05,-261.86 195.81,-274.13 223.23,-284.39"/>
<polygon fill="black" stroke="black" points="232.69,-287.93 221.74,-288.64 228.01,-286.18 223.32,-284.43 223.32,-284.43 223.32,-284.43 228.01,-286.18 224.9,-280.21 232.69,-287.93 232.69,-287.93"/>
</g>
<!-- scludam.rutils -->
<g id="node9" class="node">
<title>scludam.rutils</title>
<polygon fill="none" stroke="black" points="138.28,-324 44.28,-324 44.28,-288 138.28,-288 138.28,-324"/>
<text text-anchor="middle" x="91.28" y="-302.3" font-family="Times,serif" font-size="14.00">scludam.rutils</text>
</g>
<!-- scludam.hkde&#45;&gt;scludam.rutils -->
<g id="edge13" class="edge">
<title>scludam.hkde&#45;&gt;scludam.rutils</title>
<path fill="none" stroke="black" d="M91.28,-252.3C91.28,-260.02 91.28,-269.29 91.28,-277.89"/>
<polygon fill="black" stroke="black" points="91.28,-287.9 86.78,-277.9 91.28,-282.9 91.28,-277.9 91.28,-277.9 91.28,-277.9 91.28,-282.9 95.78,-277.9 91.28,-287.9 91.28,-287.9"/>
</g>
<!-- scludam.hkde&#45;&gt;scludam.type_utils -->
<g id="edge14" class="edge">
<title>scludam.hkde&#45;&gt;scludam.type_utils</title>
<path fill="none" stroke="black" d="M67.71,-252.03C44.71,-270.68 15.82,-301.01 35.28,-324 66.31,-360.64 198.85,-371.97 282.41,-375.46"/>
<polygon fill="black" stroke="black" points="292.6,-375.86 282.44,-379.96 287.61,-375.66 282.61,-375.47 282.61,-375.47 282.61,-375.47 287.61,-375.66 282.79,-370.97 292.6,-375.86 292.6,-375.86"/>
</g>
<!-- scludam.membership&#45;&gt;scludam.hkde -->
<g id="edge15" class="edge">
<title>scludam.membership&#45;&gt;scludam.hkde</title>
<path fill="none" stroke="black" d="M176.64,-180.12C161.87,-189.28 143.49,-200.66 127.58,-210.52"/>
<polygon fill="black" stroke="black" points="119.03,-215.81 125.17,-206.72 123.28,-213.18 127.53,-210.54 127.53,-210.54 127.53,-210.54 123.28,-213.18 129.9,-214.37 119.03,-215.81 119.03,-215.81"/>
</g>
<!-- scludam.membership&#45;&gt;scludam.plots -->
<g id="edge16" class="edge">
<title>scludam.membership&#45;&gt;scludam.plots</title>
<path fill="none" stroke="black" d="M213.21,-180.13C225.99,-204.65 249.61,-249.97 264.6,-278.74"/>
<polygon fill="black" stroke="black" points="269.33,-287.81 260.71,-281.02 267.02,-283.38 264.71,-278.94 264.71,-278.94 264.71,-278.94 267.02,-283.38 268.7,-276.86 269.33,-287.81 269.33,-287.81"/>
</g>
<!-- scludam.membership&#45;&gt;scludam.type_utils -->
<g id="edge17" class="edge">
<title>scludam.membership&#45;&gt;scludam.type_utils</title>
<path fill="none" stroke="black" d="M201.13,-180.09C196.26,-211.91 190.61,-280.95 223.28,-324 237.89,-343.24 260.69,-355.53 283.1,-363.37"/>
<polygon fill="black" stroke="black" points="292.65,-366.46 281.75,-367.66 287.89,-364.92 283.13,-363.38 283.13,-363.38 283.13,-363.38 287.89,-364.92 284.52,-359.1 292.65,-366.46 292.65,-366.46"/>
</g>
<!-- scludam.pipeline&#45;&gt;scludam.detection -->
<g id="edge18" class="edge">
<title>scludam.pipeline&#45;&gt;scludam.detection</title>
<path fill="none" stroke="black" d="M359.3,-108.3C370,-117.12 383.17,-127.97 394.78,-137.53"/>
<polygon fill="black" stroke="black" points="402.52,-143.9 391.94,-141.01 398.66,-140.72 394.8,-137.54 394.8,-137.54 394.8,-137.54 398.66,-140.72 397.66,-134.06 402.52,-143.9 402.52,-143.9"/>
</g>
<!-- scludam.pipeline&#45;&gt;scludam.fetcher -->
<g id="edge19" class="edge">
<title>scludam.pipeline&#45;&gt;scludam.fetcher</title>
<path fill="none" stroke="black" d="M282.92,-104.58C242.84,-114.5 187.12,-128.48 129.52,-143.7"/>
<polygon fill="black" stroke="black" points="119.51,-146.36 128.02,-139.44 124.34,-145.07 129.17,-143.79 129.17,-143.79 129.17,-143.79 124.34,-145.07 130.32,-148.14 119.51,-146.36 119.51,-146.36"/>
</g>
<!-- scludam.pipeline&#45;&gt;scludam.masker -->
<g id="edge20" class="edge">
<title>scludam.pipeline&#45;&gt;scludam.masker</title>
<path fill="none" stroke="black" d="M341.54,-108.13C346.14,-132.33 354.6,-176.79 360.08,-205.61"/>
<polygon fill="black" stroke="black" points="362.02,-215.81 355.73,-206.83 361.08,-210.9 360.15,-205.99 360.15,-205.99 360.15,-205.99 361.08,-210.9 364.57,-205.15 362.02,-215.81 362.02,-215.81"/>
</g>
<!-- scludam.pipeline&#45;&gt;scludam.membership -->
<g id="edge21" class="edge">
<title>scludam.pipeline&#45;&gt;scludam.membership</title>
<path fill="none" stroke="black" d="M305.5,-108.12C287.66,-117.45 265.39,-129.08 246.28,-139.06"/>
<polygon fill="black" stroke="black" points="237.19,-143.81 243.97,-135.19 241.62,-141.5 246.05,-139.18 246.05,-139.18 246.05,-139.18 241.62,-141.5 248.14,-143.17 237.19,-143.81 237.19,-143.81"/>
</g>
<!-- scludam.pipeline&#45;&gt;scludam.plots -->
<g id="edge22" class="edge">
<title>scludam.pipeline&#45;&gt;scludam.plots</title>
<path fill="none" stroke="black" d="M333.48,-108.15C323.08,-145.25 298.42,-233.19 285.88,-277.9"/>
<polygon fill="black" stroke="black" points="283.12,-287.77 281.48,-276.92 284.47,-282.95 285.82,-278.14 285.82,-278.14 285.82,-278.14 284.47,-282.95 290.15,-279.35 283.12,-287.77 283.12,-287.77"/>
</g>
<!-- scludam.pipeline&#45;&gt;scludam.shdbscan -->
<g id="edge23" class="edge">
<title>scludam.pipeline&#45;&gt;scludam.shdbscan</title>
<path fill="none" stroke="black" d="M393.42,-106.02C432.61,-116.69 485.48,-131.09 527.29,-142.48"/>
<polygon fill="black" stroke="black" points="537.12,-145.16 526.29,-146.87 532.29,-143.84 527.47,-142.53 527.47,-142.53 527.47,-142.53 532.29,-143.84 528.65,-138.19 537.12,-145.16 537.12,-145.16"/>
</g>
<!-- scludam.pipeline&#45;&gt;scludam.stat_tests -->
<g id="edge24" class="edge">
<title>scludam.pipeline&#45;&gt;scludam.stat_tests</title>
<path fill="none" stroke="black" d="M393.3,-98.52C455.89,-107.41 561.33,-123.38 661.29,-143.89"/>
<polygon fill="black" stroke="black" points="671.25,-145.95 660.55,-148.33 666.36,-144.93 661.46,-143.92 661.46,-143.92 661.46,-143.92 666.36,-144.93 662.37,-139.51 671.25,-145.95 671.25,-145.95"/>
</g>
<!-- scludam.utils -->
<g id="node14" class="node">
<title>scludam.utils</title>
<polygon fill="none" stroke="black" points="639.78,-252 550.78,-252 550.78,-216 639.78,-216 639.78,-252"/>
<text text-anchor="middle" x="595.28" y="-230.3" font-family="Times,serif" font-size="14.00">scludam.utils</text>
</g>
<!-- scludam.pipeline&#45;&gt;scludam.utils -->
<g id="edge25" class="edge">
<title>scludam.pipeline&#45;&gt;scludam.utils</title>
<path fill="none" stroke="black" d="M393.52,-104.16C423.51,-112.77 460.45,-125.83 490.28,-144 510.16,-156.1 510.7,-164.77 528.28,-180 539.83,-190 552.93,-200.53 564.47,-209.55"/>
<polygon fill="black" stroke="black" points="572.55,-215.82 561.89,-213.25 568.6,-212.76 564.65,-209.69 564.65,-209.69 564.65,-209.69 568.6,-212.76 567.41,-206.14 572.55,-215.82 572.55,-215.82"/>
</g>
<!-- scludam.plots&#45;&gt;scludam.type_utils -->
<g id="edge26" class="edge">
<title>scludam.plots&#45;&gt;scludam.type_utils</title>
<path fill="none" stroke="black" d="M296.58,-324.3C305.72,-332.95 316.92,-343.55 326.88,-352.97"/>
<polygon fill="black" stroke="black" points="334.2,-359.9 323.85,-356.29 330.57,-356.46 326.94,-353.02 326.94,-353.02 326.94,-353.02 330.57,-356.46 330.03,-349.75 334.2,-359.9 334.2,-359.9"/>
</g>
<!-- scludam.shdbscan&#45;&gt;scludam.plots -->
<g id="edge27" class="edge">
<title>scludam.shdbscan&#45;&gt;scludam.plots</title>
<path fill="none" stroke="black" d="M570.49,-180.12C541.5,-199.55 491.57,-231.25 445.28,-252 409.44,-268.07 367.26,-281.41 334.26,-290.69"/>
<polygon fill="black" stroke="black" points="324.33,-293.44 332.77,-286.44 329.15,-292.11 333.97,-290.77 333.97,-290.77 333.97,-290.77 329.15,-292.11 335.17,-295.11 324.33,-293.44 324.33,-293.44"/>
</g>
<!-- scludam.shdbscan&#45;&gt;scludam.type_utils -->
<g id="edge28" class="edge">
<title>scludam.shdbscan&#45;&gt;scludam.type_utils</title>
<path fill="none" stroke="black" d="M620.21,-180.14C631.34,-189.33 643.29,-201.71 649.28,-216 655.48,-230.75 657.29,-238.15 649.28,-252 603.36,-331.45 494.35,-360.4 421.95,-370.95"/>
<polygon fill="black" stroke="black" points="411.99,-372.32 421.28,-366.5 416.94,-371.64 421.9,-370.96 421.9,-370.96 421.9,-370.96 416.94,-371.64 422.51,-375.42 411.99,-372.32 411.99,-372.32"/>
</g>
<!-- scludam.shdbscan&#45;&gt;scludam.utils -->
<g id="edge29" class="edge">
<title>scludam.shdbscan&#45;&gt;scludam.utils</title>
<path fill="none" stroke="black" d="M595.28,-180.3C595.28,-188.02 595.28,-197.29 595.28,-205.89"/>
<polygon fill="black" stroke="black" points="595.28,-215.9 590.78,-205.9 595.28,-210.9 595.28,-205.9 595.28,-205.9 595.28,-205.9 595.28,-210.9 599.78,-205.9 595.28,-215.9 595.28,-215.9"/>
</g>
<!-- scludam.stat_tests&#45;&gt;scludam.type_utils -->
<g id="edge30" class="edge">
<title>scludam.stat_tests&#45;&gt;scludam.type_utils</title>
<path fill="none" stroke="black" d="M721.89,-180.19C706.49,-213.8 667.54,-288.06 610.28,-324 553.41,-359.7 476.88,-371.88 421.97,-375.78"/>
<polygon fill="black" stroke="black" points="411.97,-376.42 421.67,-371.29 416.96,-376.1 421.95,-375.78 421.95,-375.78 421.95,-375.78 416.96,-376.1 422.24,-380.27 411.97,-376.42 411.97,-376.42"/>
</g>
<!-- scludam.synthetic -->
<g id="node12" class="node">
<title>scludam.synthetic</title>
<polygon fill="none" stroke="black" points="495.78,-324 380.78,-324 380.78,-288 495.78,-288 495.78,-324"/>
<text text-anchor="middle" x="438.28" y="-302.3" font-family="Times,serif" font-size="14.00">scludam.synthetic</text>
</g>
<!-- scludam.synthetic&#45;&gt;scludam.type_utils -->
<g id="edge31" class="edge">
<title>scludam.synthetic&#45;&gt;scludam.type_utils</title>
<path fill="none" stroke="black" d="M417.03,-324.3C406.2,-333.12 392.87,-343.97 381.12,-353.53"/>
<polygon fill="black" stroke="black" points="373.3,-359.9 378.21,-350.09 377.18,-356.74 381.05,-353.58 381.05,-353.58 381.05,-353.58 377.18,-356.74 383.89,-357.07 373.3,-359.9 373.3,-359.9"/>
</g>
<!-- scludam.utils&#45;&gt;scludam.type_utils -->
<g id="edge32" class="edge">
<title>scludam.utils&#45;&gt;scludam.type_utils</title>
<path fill="none" stroke="black" d="M550.55,-243.01C489.13,-254.41 384.82,-275.31 372.28,-288 356.42,-304.07 352.02,-329.85 351.24,-349.54"/>
<polygon fill="black" stroke="black" points="351.13,-359.75 346.74,-349.7 351.18,-354.75 351.24,-349.75 351.24,-349.75 351.24,-349.75 351.18,-354.75 355.74,-349.8 351.13,-359.75 351.13,-359.75"/>
</g>
</g>
</svg>
