<?xml version="1.0" encoding="UTF-8" standalone="no"?>
<!DOCTYPE svg PUBLIC "-//W3C//DTD SVG 1.1//EN"
 "http://www.w3.org/Graphics/SVG/1.1/DTD/svg11.dtd">
<!-- Generated by graphviz version 2.43.0 (0)
 -->
<!-- Title: packages_scludam Pages: 1 -->
<svg width="867pt" height="332pt"
 viewBox="0.00 0.00 867.00 332.00" xmlns="http://www.w3.org/2000/svg" xmlns:xlink="http://www.w3.org/1999/xlink">
<g id="graph0" class="graph" transform="scale(1 1) rotate(0) translate(4 328)">
<title>packages_scludam</title>
<polygon fill="white" stroke="transparent" points="-4,4 -4,-328 863,-328 863,4 -4,4"/>
<!-- scludam -->
<g id="node1" class="node">
<title>scludam</title>
<polygon fill="none" stroke="black" points="281,-36 219,-36 219,0 281,0 281,-36"/>
<text text-anchor="middle" x="250" y="-14.3" font-family="Times,serif" font-size="14.00">scludam</text>
</g>
<!-- scludam.detection -->
<g id="node2" class="node">
<title>scludam.detection</title>
<polygon fill="none" stroke="black" points="372,-108 256,-108 256,-72 372,-72 372,-108"/>
<text text-anchor="middle" x="314" y="-86.3" font-family="Times,serif" font-size="14.00">scludam.detection</text>
</g>
<!-- scludam&#45;&gt;scludam.detection -->
<g id="edge1" class="edge">
<title>scludam&#45;&gt;scludam.detection</title>
<path fill="none" stroke="black" d="M265.82,-36.3C273.57,-44.78 283.04,-55.14 291.52,-64.42"/>
<polygon fill="black" stroke="black" points="298.36,-71.9 288.29,-67.55 294.99,-68.21 291.61,-64.52 291.61,-64.52 291.61,-64.52 294.99,-68.21 294.94,-61.48 298.36,-71.9 298.36,-71.9"/>
</g>
<!-- scludam.fetcher -->
<g id="node3" class="node">
<title>scludam.fetcher</title>
<polygon fill="none" stroke="black" points="238,-108 134,-108 134,-72 238,-72 238,-108"/>
<text text-anchor="middle" x="186" y="-86.3" font-family="Times,serif" font-size="14.00">scludam.fetcher</text>
</g>
<!-- scludam&#45;&gt;scludam.fetcher -->
<g id="edge2" class="edge">
<title>scludam&#45;&gt;scludam.fetcher</title>
<path fill="none" stroke="black" d="M234.18,-36.3C226.43,-44.78 216.96,-55.14 208.48,-64.42"/>
<polygon fill="black" stroke="black" points="201.64,-71.9 205.06,-61.48 205.01,-68.21 208.39,-64.52 208.39,-64.52 208.39,-64.52 205.01,-68.21 211.71,-67.55 201.64,-71.9 201.64,-71.9"/>
</g>
<!-- scludam.shdbscan -->
<g id="node11" class="node">
<title>scludam.shdbscan</title>
<polygon fill="none" stroke="black" points="859,-180 743,-180 743,-144 859,-144 859,-180"/>
<text text-anchor="middle" x="801" y="-158.3" font-family="Times,serif" font-size="14.00">scludam.shdbscan</text>
</g>
<!-- scludam&#45;&gt;scludam.shdbscan -->
<g id="edge3" class="edge">
<title>scludam&#45;&gt;scludam.shdbscan</title>
<path fill="none" stroke="black" d="M281.16,-33.17C284.11,-34.23 287.09,-35.2 290,-36 403.74,-67.35 438.41,-43.92 553,-72 623.81,-89.35 702.57,-119.59 751.94,-139.95"/>
<polygon fill="black" stroke="black" points="761.41,-143.88 750.45,-144.2 756.8,-141.96 752.18,-140.05 752.18,-140.05 752.18,-140.05 756.8,-141.96 753.9,-135.89 761.41,-143.88 761.41,-143.88"/>
</g>
<!-- scludam.stat_tests -->
<g id="node12" class="node">
<title>scludam.stat_tests</title>
<polygon fill="none" stroke="black" points="116,-108 0,-108 0,-72 116,-72 116,-108"/>
<text text-anchor="middle" x="58" y="-86.3" font-family="Times,serif" font-size="14.00">scludam.stat_tests</text>
</g>
<!-- scludam&#45;&gt;scludam.stat_tests -->
<g id="edge4" class="edge">
<title>scludam&#45;&gt;scludam.stat_tests</title>
<path fill="none" stroke="black" d="M218.72,-30.4C190.58,-40.66 148.55,-55.99 114.52,-68.39"/>
<polygon fill="black" stroke="black" points="104.7,-71.97 112.55,-64.32 109.4,-70.26 114.1,-68.55 114.1,-68.55 114.1,-68.55 109.4,-70.26 115.64,-72.78 104.7,-71.97 104.7,-71.97"/>
</g>
<!-- scludam.masker -->
<g id="node5" class="node">
<title>scludam.masker</title>
<polygon fill="none" stroke="black" points="413,-180 307,-180 307,-144 413,-144 413,-180"/>
<text text-anchor="middle" x="360" y="-158.3" font-family="Times,serif" font-size="14.00">scludam.masker</text>
</g>
<!-- scludam.detection&#45;&gt;scludam.masker -->
<g id="edge5" class="edge">
<title>scludam.detection&#45;&gt;scludam.masker</title>
<path fill="none" stroke="black" d="M325.37,-108.3C330.72,-116.44 337.2,-126.31 343.11,-135.3"/>
<polygon fill="black" stroke="black" points="348.76,-143.9 339.51,-138.01 346.01,-139.72 343.27,-135.54 343.27,-135.54 343.27,-135.54 346.01,-139.72 347.03,-133.07 348.76,-143.9 348.76,-143.9"/>
</g>
<!-- scludam.plots -->
<g id="node9" class="node">
<title>scludam.plots</title>
<polygon fill="none" stroke="black" points="323,-252 231,-252 231,-216 323,-216 323,-252"/>
<text text-anchor="middle" x="277" y="-230.3" font-family="Times,serif" font-size="14.00">scludam.plots</text>
</g>
<!-- scludam.detection&#45;&gt;scludam.plots -->
<g id="edge6" class="edge">
<title>scludam.detection&#45;&gt;scludam.plots</title>
<path fill="none" stroke="black" d="M291.85,-108.13C281.59,-117.48 270.48,-130 265,-144 257.22,-163.88 261.19,-187.94 266.57,-206.04"/>
<polygon fill="black" stroke="black" points="269.73,-215.67 262.34,-207.57 268.17,-210.92 266.61,-206.17 266.61,-206.17 266.61,-206.17 268.17,-210.92 270.89,-204.76 269.73,-215.67 269.73,-215.67"/>
</g>
<!-- scludam.type_utils -->
<g id="node14" class="node">
<title>scludam.type_utils</title>
<polygon fill="none" stroke="black" points="299.5,-324 180.5,-324 180.5,-288 299.5,-288 299.5,-324"/>
<text text-anchor="middle" x="240" y="-302.3" font-family="Times,serif" font-size="14.00">scludam.type_utils</text>
</g>
<!-- scludam.detection&#45;&gt;scludam.type_utils -->
<g id="edge7" class="edge">
<title>scludam.detection&#45;&gt;scludam.type_utils</title>
<path fill="none" stroke="black" d="M291.84,-108.23C280.43,-117.88 266.89,-130.64 257,-144 235.83,-172.6 229.98,-181.33 222,-216 217.21,-236.8 222.53,-260.5 228.59,-278.21"/>
<polygon fill="black" stroke="black" points="232.18,-287.88 224.48,-280.07 230.44,-283.19 228.7,-278.51 228.7,-278.51 228.7,-278.51 230.44,-283.19 232.92,-276.94 232.18,-287.88 232.18,-287.88"/>
</g>
<!-- scludam.fetcher&#45;&gt;scludam.type_utils -->
<g id="edge8" class="edge">
<title>scludam.fetcher&#45;&gt;scludam.type_utils</title>
<path fill="none" stroke="black" d="M182.36,-108.28C176.79,-138.69 168.79,-203.18 189,-252 193.45,-262.75 201.19,-272.56 209.32,-280.74"/>
<polygon fill="black" stroke="black" points="216.81,-287.77 206.44,-284.21 213.16,-284.35 209.52,-280.93 209.52,-280.93 209.52,-280.93 213.16,-284.35 212.6,-277.65 216.81,-287.77 216.81,-287.77"/>
</g>
<!-- scludam.hkde -->
<g id="node4" class="node">
<title>scludam.hkde</title>
<polygon fill="none" stroke="black" points="523,-180 431,-180 431,-144 523,-144 523,-180"/>
<text text-anchor="middle" x="477" y="-158.3" font-family="Times,serif" font-size="14.00">scludam.hkde</text>
</g>
<!-- scludam.rutils -->
<g id="node10" class="node">
<title>scludam.rutils</title>
<polygon fill="none" stroke="black" points="587,-252 493,-252 493,-216 587,-216 587,-252"/>
<text text-anchor="middle" x="540" y="-230.3" font-family="Times,serif" font-size="14.00">scludam.rutils</text>
</g>
<!-- scludam.hkde&#45;&gt;scludam.rutils -->
<g id="edge9" class="edge">
<title>scludam.hkde&#45;&gt;scludam.rutils</title>
<path fill="none" stroke="black" d="M492.57,-180.3C500.2,-188.78 509.52,-199.14 517.88,-208.42"/>
<polygon fill="black" stroke="black" points="524.61,-215.9 514.57,-211.47 521.26,-212.18 517.92,-208.46 517.92,-208.46 517.92,-208.46 521.26,-212.18 521.26,-205.45 524.61,-215.9 524.61,-215.9"/>
</g>
<!-- scludam.synthetic -->
<g id="node13" class="node">
<title>scludam.synthetic</title>
<polygon fill="none" stroke="black" points="474.5,-252 359.5,-252 359.5,-216 474.5,-216 474.5,-252"/>
<text text-anchor="middle" x="417" y="-230.3" font-family="Times,serif" font-size="14.00">scludam.synthetic</text>
</g>
<!-- scludam.hkde&#45;&gt;scludam.synthetic -->
<g id="edge10" class="edge">
<title>scludam.hkde&#45;&gt;scludam.synthetic</title>
<path fill="none" stroke="black" d="M462.17,-180.3C454.98,-188.7 446.2,-198.93 438.31,-208.14"/>
<polygon fill="black" stroke="black" points="431.66,-215.9 434.75,-205.37 434.91,-212.1 438.17,-208.3 438.17,-208.3 438.17,-208.3 434.91,-212.1 441.59,-211.23 431.66,-215.9 431.66,-215.9"/>
</g>
<!-- scludam.utils -->
<g id="node15" class="node">
<title>scludam.utils</title>
<polygon fill="none" stroke="black" points="694.5,-252 605.5,-252 605.5,-216 694.5,-216 694.5,-252"/>
<text text-anchor="middle" x="650" y="-230.3" font-family="Times,serif" font-size="14.00">scludam.utils</text>
</g>
<!-- scludam.hkde&#45;&gt;scludam.utils -->
<g id="edge11" class="edge">
<title>scludam.hkde&#45;&gt;scludam.utils</title>
<path fill="none" stroke="black" d="M519.32,-180.12C543.18,-189.78 573.17,-201.91 598.4,-212.12"/>
<polygon fill="black" stroke="black" points="607.82,-215.93 596.86,-216.35 603.18,-214.06 598.55,-212.18 598.55,-212.18 598.55,-212.18 603.18,-214.06 600.23,-208.01 607.82,-215.93 607.82,-215.93"/>
</g>
<!-- scludam.masker&#45;&gt;scludam.synthetic -->
<g id="edge12" class="edge">
<title>scludam.masker&#45;&gt;scludam.synthetic</title>
<path fill="none" stroke="black" d="M374.09,-180.3C380.92,-188.7 389.26,-198.93 396.76,-208.14"/>
<polygon fill="black" stroke="black" points="403.07,-215.9 393.27,-210.98 399.92,-212.02 396.76,-208.14 396.76,-208.14 396.76,-208.14 399.92,-212.02 400.25,-205.3 403.07,-215.9 403.07,-215.9"/>
</g>
<!-- scludam.membership -->
<g id="node6" class="node">
<title>scludam.membership</title>
<polygon fill="none" stroke="black" points="544,-108 410,-108 410,-72 544,-72 544,-108"/>
<text text-anchor="middle" x="477" y="-86.3" font-family="Times,serif" font-size="14.00">scludam.membership</text>
</g>
<!-- scludam.membership&#45;&gt;scludam.hkde -->
<g id="edge13" class="edge">
<title>scludam.membership&#45;&gt;scludam.hkde</title>
<path fill="none" stroke="black" d="M477,-108.3C477,-116.02 477,-125.29 477,-133.89"/>
<polygon fill="black" stroke="black" points="477,-143.9 472.5,-133.9 477,-138.9 477,-133.9 477,-133.9 477,-133.9 477,-138.9 481.5,-133.9 477,-143.9 477,-143.9"/>
</g>
<!-- scludam.membership&#45;&gt;scludam.masker -->
<g id="edge14" class="edge">
<title>scludam.membership&#45;&gt;scludam.masker</title>
<path fill="none" stroke="black" d="M448.38,-108.12C433.08,-117.28 414.06,-128.66 397.58,-138.52"/>
<polygon fill="black" stroke="black" points="388.73,-143.81 395,-134.81 393.02,-141.24 397.31,-138.68 397.31,-138.68 397.31,-138.68 393.02,-141.24 399.62,-142.54 388.73,-143.81 388.73,-143.81"/>
</g>
<!-- scludam.plot_gauss_err -->
<g id="node8" class="node">
<title>scludam.plot_gauss_err</title>
<polygon fill="none" stroke="black" points="725,-180 579,-180 579,-144 725,-144 725,-180"/>
<text text-anchor="middle" x="652" y="-158.3" font-family="Times,serif" font-size="14.00">scludam.plot_gauss_err</text>
</g>
<!-- scludam.membership&#45;&gt;scludam.plot_gauss_err -->
<g id="edge15" class="edge">
<title>scludam.membership&#45;&gt;scludam.plot_gauss_err</title>
<path fill="none" stroke="black" d="M519.81,-108.12C543.95,-117.78 574.28,-129.91 599.81,-140.12"/>
<polygon fill="black" stroke="black" points="609.33,-143.93 598.37,-144.4 604.69,-142.07 600.04,-140.22 600.04,-140.22 600.04,-140.22 604.69,-142.07 601.72,-136.04 609.33,-143.93 609.33,-143.93"/>
</g>
<!-- scludam.membership&#45;&gt;scludam.plots -->
<g id="edge16" class="edge">
<title>scludam.membership&#45;&gt;scludam.plots</title>
<path fill="none" stroke="black" d="M409.65,-103.63C365.66,-113.21 313.59,-127.51 298,-144 282.45,-160.45 277.71,-186.19 276.56,-205.76"/>
<polygon fill="black" stroke="black" points="276.24,-215.9 272.05,-205.77 276.4,-210.91 276.55,-205.91 276.55,-205.91 276.55,-205.91 276.4,-210.91 281.05,-206.05 276.24,-215.9 276.24,-215.9"/>
</g>
<!-- scludam.membership&#45;&gt;scludam.utils -->
<g id="edge17" class="edge">
<title>scludam.membership&#45;&gt;scludam.utils</title>
<path fill="none" stroke="black" d="M494.82,-108.21C520.7,-133.18 566.03,-176.83 570,-180 583.34,-190.67 598.83,-201.29 612.61,-210.2"/>
<polygon fill="black" stroke="black" points="621.37,-215.78 610.52,-214.2 617.16,-213.09 612.94,-210.41 612.94,-210.41 612.94,-210.41 617.16,-213.09 615.36,-206.61 621.37,-215.78 621.37,-215.78"/>
</g>
<!-- scludam.pipeline -->
<g id="node7" class="node">
<title>scludam.pipeline</title>
<polygon fill="none" stroke="black" points="409,-36 299,-36 299,0 409,0 409,-36"/>
<text text-anchor="middle" x="354" y="-14.3" font-family="Times,serif" font-size="14.00">scludam.pipeline</text>
</g>
<!-- scludam.plots&#45;&gt;scludam.plots -->
<g id="edge18" class="edge">
<title>scludam.plots&#45;&gt;scludam.plots</title>
<path fill="none" stroke="black" d="M323.02,-220.83C333.41,-222.02 341,-226.41 341,-234 341,-238.86 337.88,-242.41 332.91,-244.65"/>
<polygon fill="black" stroke="black" points="323.02,-247.17 331.6,-240.34 327.87,-245.94 332.71,-244.7 332.71,-244.7 332.71,-244.7 327.87,-245.94 333.83,-249.06 323.02,-247.17 323.02,-247.17"/>
</g>
<!-- scludam.plots&#45;&gt;scludam.type_utils -->
<g id="edge19" class="edge">
<title>scludam.plots&#45;&gt;scludam.type_utils</title>
<path fill="none" stroke="black" d="M267.85,-252.3C263.6,-260.36 258.44,-270.11 253.73,-279.02"/>
<polygon fill="black" stroke="black" points="249.04,-287.9 249.74,-276.95 251.38,-283.48 253.71,-279.05 253.71,-279.05 253.71,-279.05 251.38,-283.48 257.69,-281.16 249.04,-287.9 249.04,-287.9"/>
</g>
<!-- scludam.shdbscan&#45;&gt;scludam.plots -->
<g id="edge20" class="edge">
<title>scludam.shdbscan&#45;&gt;scludam.plots</title>
<path fill="none" stroke="black" d="M742.65,-178.37C739.73,-178.96 736.84,-179.51 734,-180 565.08,-209.17 519.19,-188.5 350,-216 344.54,-216.89 338.88,-217.95 333.24,-219.1"/>
<polygon fill="black" stroke="black" points="323.15,-221.26 331.99,-214.77 328.04,-220.21 332.93,-219.17 332.93,-219.17 332.93,-219.17 328.04,-220.21 333.87,-223.57 323.15,-221.26 323.15,-221.26"/>
</g>
<!-- scludam.shdbscan&#45;&gt;scludam.type_utils -->
<g id="edge21" class="edge">
<title>scludam.shdbscan&#45;&gt;scludam.type_utils</title>
<path fill="none" stroke="black" d="M788.07,-180.19C771.26,-201.12 739.76,-235.68 704,-252 635.42,-283.29 421.67,-297.09 309.82,-302.3"/>
<polygon fill="black" stroke="black" points="299.65,-302.76 309.43,-297.81 304.64,-302.53 309.64,-302.3 309.64,-302.3 309.64,-302.3 304.64,-302.53 309.84,-306.8 299.65,-302.76 299.65,-302.76"/>
</g>
<!-- scludam.shdbscan&#45;&gt;scludam.utils -->
<g id="edge22" class="edge">
<title>scludam.shdbscan&#45;&gt;scludam.utils</title>
<path fill="none" stroke="black" d="M764.06,-180.12C743.51,-189.65 717.75,-201.59 695.91,-211.72"/>
<polygon fill="black" stroke="black" points="686.82,-215.93 694,-207.64 691.36,-213.83 695.89,-211.73 695.89,-211.73 695.89,-211.73 691.36,-213.83 697.78,-215.81 686.82,-215.93 686.82,-215.93"/>
</g>
<!-- scludam.stat_tests&#45;&gt;scludam.type_utils -->
<g id="edge23" class="edge">
<title>scludam.stat_tests&#45;&gt;scludam.type_utils</title>
<path fill="none" stroke="black" d="M68.48,-108.03C87.71,-138.61 130.84,-204.08 176,-252 185.86,-262.46 197.73,-272.8 208.56,-281.54"/>
<polygon fill="black" stroke="black" points="216.59,-287.88 205.95,-285.21 212.67,-284.78 208.74,-281.68 208.74,-281.68 208.74,-281.68 212.67,-284.78 211.53,-278.15 216.59,-287.88 216.59,-287.88"/>
</g>
<!-- scludam.synthetic&#45;&gt;scludam.type_utils -->
<g id="edge24" class="edge">
<title>scludam.synthetic&#45;&gt;scludam.type_utils</title>
<path fill="none" stroke="black" d="M373.7,-252.12C349.29,-261.78 318.6,-273.91 292.79,-284.12"/>
<polygon fill="black" stroke="black" points="283.16,-287.93 290.8,-280.07 287.81,-286.09 292.46,-284.25 292.46,-284.25 292.46,-284.25 287.81,-286.09 294.11,-288.44 283.16,-287.93 283.16,-287.93"/>
</g>
</g>
</svg>
