<?xml version="1.0" encoding="UTF-8" standalone="no"?>
<!DOCTYPE svg PUBLIC "-//W3C//DTD SVG 1.1//EN"
 "http://www.w3.org/Graphics/SVG/1.1/DTD/svg11.dtd">
<!-- Generated by graphviz version 2.43.0 (0)
 -->
<!-- Title: packages_scludam Pages: 1 -->
<svg width="470pt" height="332pt"
 viewBox="0.00 0.00 470.00 332.00" xmlns="http://www.w3.org/2000/svg" xmlns:xlink="http://www.w3.org/1999/xlink">
<g id="graph0" class="graph" transform="scale(1 1) rotate(0) translate(4 328)">
<title>packages_scludam</title>
<polygon fill="white" stroke="transparent" points="-4,4 -4,-328 466,-328 466,4 -4,4"/>
<!-- scludam -->
<g id="node1" class="node">
<title>scludam</title>
<polygon fill="none" stroke="black" points="349,-36 287,-36 287,0 349,0 349,-36"/>
<text text-anchor="middle" x="318" y="-14.3" font-family="Times,serif" font-size="14.00">scludam</text>
</g>
<!-- scludam.detection -->
<g id="node2" class="node">
<title>scludam.detection</title>
<polygon fill="none" stroke="black" points="259,-108 143,-108 143,-72 259,-72 259,-108"/>
<text text-anchor="middle" x="201" y="-86.3" font-family="Times,serif" font-size="14.00">scludam.detection</text>
</g>
<!-- scludam&#45;&gt;scludam.detection -->
<g id="edge1" class="edge">
<title>scludam&#45;&gt;scludam.detection</title>
<path fill="none" stroke="black" d="M289.38,-36.12C274.08,-45.28 255.06,-56.66 238.58,-66.52"/>
<polygon fill="black" stroke="black" points="229.73,-71.81 236,-62.81 234.02,-69.24 238.31,-66.68 238.31,-66.68 238.31,-66.68 234.02,-69.24 240.62,-70.54 229.73,-71.81 229.73,-71.81"/>
</g>
<!-- scludam.fetcher -->
<g id="node3" class="node">
<title>scludam.fetcher</title>
<polygon fill="none" stroke="black" points="376,-252 272,-252 272,-216 376,-216 376,-252"/>
<text text-anchor="middle" x="324" y="-230.3" font-family="Times,serif" font-size="14.00">scludam.fetcher</text>
</g>
<!-- scludam&#45;&gt;scludam.fetcher -->
<g id="edge2" class="edge">
<title>scludam&#45;&gt;scludam.fetcher</title>
<path fill="none" stroke="black" d="M318.48,-36.15C319.52,-73.17 321.98,-160.82 323.23,-205.61"/>
<polygon fill="black" stroke="black" points="323.52,-215.77 318.74,-205.9 323.38,-210.77 323.24,-205.77 323.24,-205.77 323.24,-205.77 323.38,-210.77 327.73,-205.65 323.52,-215.77 323.52,-215.77"/>
</g>
<!-- scludam.stat_tests -->
<g id="node6" class="node">
<title>scludam.stat_tests</title>
<polygon fill="none" stroke="black" points="462,-108 346,-108 346,-72 462,-72 462,-108"/>
<text text-anchor="middle" x="404" y="-86.3" font-family="Times,serif" font-size="14.00">scludam.stat_tests</text>
</g>
<!-- scludam&#45;&gt;scludam.stat_tests -->
<g id="edge3" class="edge">
<title>scludam&#45;&gt;scludam.stat_tests</title>
<path fill="none" stroke="black" d="M339.26,-36.3C350.09,-45.12 363.42,-55.97 375.16,-65.53"/>
<polygon fill="black" stroke="black" points="382.99,-71.9 372.39,-69.07 379.11,-68.74 375.23,-65.58 375.23,-65.58 375.23,-65.58 379.11,-68.74 378.07,-62.09 382.99,-71.9 382.99,-71.9"/>
</g>
<!-- scludam.masker -->
<g id="node4" class="node">
<title>scludam.masker</title>
<polygon fill="none" stroke="black" points="106,-180 0,-180 0,-144 106,-144 106,-180"/>
<text text-anchor="middle" x="53" y="-158.3" font-family="Times,serif" font-size="14.00">scludam.masker</text>
</g>
<!-- scludam.detection&#45;&gt;scludam.masker -->
<g id="edge4" class="edge">
<title>scludam.detection&#45;&gt;scludam.masker</title>
<path fill="none" stroke="black" d="M164.8,-108.12C144.74,-117.61 119.63,-129.49 98.29,-139.58"/>
<polygon fill="black" stroke="black" points="89.09,-143.93 96.2,-135.59 93.61,-141.79 98.13,-139.66 98.13,-139.66 98.13,-139.66 93.61,-141.79 100.05,-143.72 89.09,-143.93 89.09,-143.93"/>
</g>
<!-- scludam.plots -->
<g id="node5" class="node">
<title>scludam.plots</title>
<polygon fill="none" stroke="black" points="216,-180 124,-180 124,-144 216,-144 216,-180"/>
<text text-anchor="middle" x="170" y="-158.3" font-family="Times,serif" font-size="14.00">scludam.plots</text>
</g>
<!-- scludam.detection&#45;&gt;scludam.plots -->
<g id="edge5" class="edge">
<title>scludam.detection&#45;&gt;scludam.plots</title>
<path fill="none" stroke="black" d="M193.34,-108.3C189.81,-116.27 185.54,-125.9 181.63,-134.74"/>
<polygon fill="black" stroke="black" points="177.57,-143.9 177.51,-132.93 179.6,-139.32 181.62,-134.75 181.62,-134.75 181.62,-134.75 179.6,-139.32 185.74,-136.57 177.57,-143.9 177.57,-143.9"/>
</g>
<!-- scludam.type_utils -->
<g id="node8" class="node">
<title>scludam.type_utils</title>
<polygon fill="none" stroke="black" points="343.5,-324 224.5,-324 224.5,-288 343.5,-288 343.5,-324"/>
<text text-anchor="middle" x="284" y="-302.3" font-family="Times,serif" font-size="14.00">scludam.type_utils</text>
</g>
<!-- scludam.detection&#45;&gt;scludam.type_utils -->
<g id="edge6" class="edge">
<title>scludam.detection&#45;&gt;scludam.type_utils</title>
<path fill="none" stroke="black" d="M209.16,-108.02C214,-118.34 220.11,-131.81 225,-144 243.96,-191.22 245.18,-204.34 263,-252 266.24,-260.66 269.91,-270.06 273.27,-278.51"/>
<polygon fill="black" stroke="black" points="277.02,-287.88 269.13,-280.27 275.16,-283.24 273.3,-278.6 273.3,-278.6 273.3,-278.6 275.16,-283.24 277.48,-276.92 277.02,-287.88 277.02,-287.88"/>
</g>
<!-- scludam.fetcher&#45;&gt;scludam.type_utils -->
<g id="edge7" class="edge">
<title>scludam.fetcher&#45;&gt;scludam.type_utils</title>
<path fill="none" stroke="black" d="M314.11,-252.3C309.51,-260.36 303.94,-270.11 298.85,-279.02"/>
<polygon fill="black" stroke="black" points="293.77,-287.9 294.83,-276.98 296.25,-283.55 298.74,-279.21 298.74,-279.21 298.74,-279.21 296.25,-283.55 302.64,-281.45 293.77,-287.9 293.77,-287.9"/>
</g>
<!-- scludam.synthetic -->
<g id="node7" class="node">
<title>scludam.synthetic</title>
<polygon fill="none" stroke="black" points="163.5,-252 48.5,-252 48.5,-216 163.5,-216 163.5,-252"/>
<text text-anchor="middle" x="106" y="-230.3" font-family="Times,serif" font-size="14.00">scludam.synthetic</text>
</g>
<!-- scludam.masker&#45;&gt;scludam.synthetic -->
<g id="edge8" class="edge">
<title>scludam.masker&#45;&gt;scludam.synthetic</title>
<path fill="none" stroke="black" d="M66.1,-180.3C72.39,-188.61 80.05,-198.72 86.96,-207.86"/>
<polygon fill="black" stroke="black" points="93.05,-215.9 83.43,-210.64 90.03,-211.91 87.01,-207.92 87.01,-207.92 87.01,-207.92 90.03,-211.91 90.6,-205.21 93.05,-215.9 93.05,-215.9"/>
</g>
<!-- scludam.stat_tests&#45;&gt;scludam.type_utils -->
<g id="edge9" class="edge">
<title>scludam.stat_tests&#45;&gt;scludam.type_utils</title>
<path fill="none" stroke="black" d="M406.84,-108.3C411.05,-139.89 415.46,-207.71 385,-252 375.75,-265.44 362,-275.72 347.59,-283.48"/>
<polygon fill="black" stroke="black" points="338.57,-288 345.5,-279.5 343.04,-285.76 347.51,-283.52 347.51,-283.52 347.51,-283.52 343.04,-285.76 349.53,-287.55 338.57,-288 338.57,-288"/>
</g>
<!-- scludam.synthetic&#45;&gt;scludam.type_utils -->
<g id="edge10" class="edge">
<title>scludam.synthetic&#45;&gt;scludam.type_utils</title>
<path fill="none" stroke="black" d="M149.54,-252.12C174.2,-261.82 205.22,-274.02 231.25,-284.26"/>
<polygon fill="black" stroke="black" points="240.6,-287.93 229.64,-288.46 235.94,-286.1 231.29,-284.27 231.29,-284.27 231.29,-284.27 235.94,-286.1 232.94,-280.08 240.6,-287.93 240.6,-287.93"/>
</g>
</g>
</svg>
