<?xml version="1.0" encoding="UTF-8" standalone="no"?>
<!DOCTYPE svg PUBLIC "-//W3C//DTD SVG 1.1//EN"
 "http://www.w3.org/Graphics/SVG/1.1/DTD/svg11.dtd">
<!-- Generated by graphviz version 2.43.0 (0)
 -->
<!-- Title: packages_scludam Pages: 1 -->
<svg width="686pt" height="332pt"
 viewBox="0.00 0.00 685.50 332.00" xmlns="http://www.w3.org/2000/svg" xmlns:xlink="http://www.w3.org/1999/xlink">
<g id="graph0" class="graph" transform="scale(1 1) rotate(0) translate(4 328)">
<title>packages_scludam</title>
<polygon fill="white" stroke="transparent" points="-4,4 -4,-328 681.5,-328 681.5,4 -4,4"/>
<!-- scludam -->
<g id="node1" class="node">
<title>scludam</title>
<polygon fill="none" stroke="black" points="442.5,-36 380.5,-36 380.5,0 442.5,0 442.5,-36"/>
<text text-anchor="middle" x="411.5" y="-14.3" font-family="Times,serif" font-size="14.00">scludam</text>
</g>
<!-- scludam.detection -->
<g id="node2" class="node">
<title>scludam.detection</title>
<polygon fill="none" stroke="black" points="278.5,-108 162.5,-108 162.5,-72 278.5,-72 278.5,-108"/>
<text text-anchor="middle" x="220.5" y="-86.3" font-family="Times,serif" font-size="14.00">scludam.detection</text>
</g>
<!-- scludam&#45;&gt;scludam.detection -->
<g id="edge1" class="edge">
<title>scludam&#45;&gt;scludam.detection</title>
<path fill="none" stroke="black" d="M380.39,-30.4C352.39,-40.66 310.57,-55.99 276.73,-68.39"/>
<polygon fill="black" stroke="black" points="266.96,-71.97 274.8,-64.31 271.65,-70.25 276.35,-68.53 276.35,-68.53 276.35,-68.53 271.65,-70.25 277.9,-72.76 266.96,-71.97 266.96,-71.97"/>
</g>
<!-- scludam.fetcher -->
<g id="node3" class="node">
<title>scludam.fetcher</title>
<polygon fill="none" stroke="black" points="677.5,-108 573.5,-108 573.5,-72 677.5,-72 677.5,-108"/>
<text text-anchor="middle" x="625.5" y="-86.3" font-family="Times,serif" font-size="14.00">scludam.fetcher</text>
</g>
<!-- scludam&#45;&gt;scludam.fetcher -->
<g id="edge2" class="edge">
<title>scludam&#45;&gt;scludam.fetcher</title>
<path fill="none" stroke="black" d="M442.62,-29.18C474.21,-39.51 523.99,-55.79 563.64,-68.76"/>
<polygon fill="black" stroke="black" points="573.22,-71.9 562.32,-73.07 568.47,-70.35 563.72,-68.79 563.72,-68.79 563.72,-68.79 568.47,-70.35 565.12,-64.51 573.22,-71.9 573.22,-71.9"/>
</g>
<!-- scludam.hkde -->
<g id="node4" class="node">
<title>scludam.hkde</title>
<polygon fill="none" stroke="black" points="311.5,-180 219.5,-180 219.5,-144 311.5,-144 311.5,-180"/>
<text text-anchor="middle" x="265.5" y="-158.3" font-family="Times,serif" font-size="14.00">scludam.hkde</text>
</g>
<!-- scludam&#45;&gt;scludam.hkde -->
<g id="edge3" class="edge">
<title>scludam&#45;&gt;scludam.hkde</title>
<path fill="none" stroke="black" d="M393.89,-36.13C368.13,-61.18 320.05,-107.95 290.59,-136.59"/>
<polygon fill="black" stroke="black" points="283.17,-143.81 287.2,-133.61 286.76,-140.32 290.34,-136.84 290.34,-136.84 290.34,-136.84 286.76,-140.32 293.48,-140.06 283.17,-143.81 283.17,-143.81"/>
</g>
<!-- scludam.shdbscan -->
<g id="node8" class="node">
<title>scludam.shdbscan</title>
<polygon fill="none" stroke="black" points="514.5,-180 398.5,-180 398.5,-144 514.5,-144 514.5,-180"/>
<text text-anchor="middle" x="456.5" y="-158.3" font-family="Times,serif" font-size="14.00">scludam.shdbscan</text>
</g>
<!-- scludam&#45;&gt;scludam.shdbscan -->
<g id="edge4" class="edge">
<title>scludam&#45;&gt;scludam.shdbscan</title>
<path fill="none" stroke="black" d="M413.87,-36.07C416.68,-54.24 422.08,-83.66 430.5,-108 433.62,-117.01 437.9,-126.46 442.09,-134.86"/>
<polygon fill="black" stroke="black" points="446.72,-143.8 438.13,-136.98 444.42,-139.36 442.12,-134.92 442.12,-134.92 442.12,-134.92 444.42,-139.36 446.12,-132.85 446.72,-143.8 446.72,-143.8"/>
</g>
<!-- scludam.stat_tests -->
<g id="node9" class="node">
<title>scludam.stat_tests</title>
<polygon fill="none" stroke="black" points="555.5,-108 439.5,-108 439.5,-72 555.5,-72 555.5,-108"/>
<text text-anchor="middle" x="497.5" y="-86.3" font-family="Times,serif" font-size="14.00">scludam.stat_tests</text>
</g>
<!-- scludam&#45;&gt;scludam.stat_tests -->
<g id="edge5" class="edge">
<title>scludam&#45;&gt;scludam.stat_tests</title>
<path fill="none" stroke="black" d="M432.76,-36.3C443.59,-45.12 456.92,-55.97 468.66,-65.53"/>
<polygon fill="black" stroke="black" points="476.49,-71.9 465.89,-69.07 472.61,-68.74 468.73,-65.58 468.73,-65.58 468.73,-65.58 472.61,-68.74 471.57,-62.09 476.49,-71.9 476.49,-71.9"/>
</g>
<!-- scludam.masker -->
<g id="node5" class="node">
<title>scludam.masker</title>
<polygon fill="none" stroke="black" points="113.5,-180 7.5,-180 7.5,-144 113.5,-144 113.5,-180"/>
<text text-anchor="middle" x="60.5" y="-158.3" font-family="Times,serif" font-size="14.00">scludam.masker</text>
</g>
<!-- scludam.detection&#45;&gt;scludam.masker -->
<g id="edge6" class="edge">
<title>scludam.detection&#45;&gt;scludam.masker</title>
<path fill="none" stroke="black" d="M181.36,-108.12C159.49,-117.69 132.04,-129.7 108.84,-139.85"/>
<polygon fill="black" stroke="black" points="99.51,-143.93 106.87,-135.8 104.09,-141.93 108.67,-139.92 108.67,-139.92 108.67,-139.92 104.09,-141.93 110.48,-144.05 99.51,-143.93 99.51,-143.93"/>
</g>
<!-- scludam.plots -->
<g id="node6" class="node">
<title>scludam.plots</title>
<polygon fill="none" stroke="black" points="413.5,-252 321.5,-252 321.5,-216 413.5,-216 413.5,-252"/>
<text text-anchor="middle" x="367.5" y="-230.3" font-family="Times,serif" font-size="14.00">scludam.plots</text>
</g>
<!-- scludam.detection&#45;&gt;scludam.plots -->
<g id="edge7" class="edge">
<title>scludam.detection&#45;&gt;scludam.plots</title>
<path fill="none" stroke="black" d="M265.82,-108.01C284.43,-116.66 305.16,-128.64 320.5,-144 338.06,-161.58 350.61,-187.1 358.3,-206.3"/>
<polygon fill="black" stroke="black" points="361.88,-215.7 354.12,-207.95 360.1,-211.02 358.32,-206.35 358.32,-206.35 358.32,-206.35 360.1,-211.02 362.53,-204.75 361.88,-215.7 361.88,-215.7"/>
</g>
<!-- scludam.type_utils -->
<g id="node11" class="node">
<title>scludam.type_utils</title>
<polygon fill="none" stroke="black" points="481,-324 362,-324 362,-288 481,-288 481,-324"/>
<text text-anchor="middle" x="421.5" y="-302.3" font-family="Times,serif" font-size="14.00">scludam.type_utils</text>
</g>
<!-- scludam.detection&#45;&gt;scludam.type_utils -->
<g id="edge8" class="edge">
<title>scludam.detection&#45;&gt;scludam.type_utils</title>
<path fill="none" stroke="black" d="M209.44,-108.15C190.37,-140.09 156.49,-209.3 190.5,-252 210.4,-276.99 291.14,-291.16 351.59,-298.45"/>
<polygon fill="black" stroke="black" points="361.87,-299.64 351.41,-302.95 356.9,-299.06 351.93,-298.48 351.93,-298.48 351.93,-298.48 356.9,-299.06 352.45,-294.02 361.87,-299.64 361.87,-299.64"/>
</g>
<!-- scludam.fetcher&#45;&gt;scludam.type_utils -->
<g id="edge9" class="edge">
<title>scludam.fetcher&#45;&gt;scludam.type_utils</title>
<path fill="none" stroke="black" d="M623.92,-108.07C620.04,-140.5 607.14,-211.39 566.5,-252 546.15,-272.33 517.38,-284.93 490.83,-292.71"/>
<polygon fill="black" stroke="black" points="481.16,-295.36 489.61,-288.37 485.98,-294.04 490.81,-292.71 490.81,-292.71 490.81,-292.71 485.98,-294.04 492,-297.05 481.16,-295.36 481.16,-295.36"/>
</g>
<!-- scludam.hkde&#45;&gt;scludam.plots -->
<g id="edge10" class="edge">
<title>scludam.hkde&#45;&gt;scludam.plots</title>
<path fill="none" stroke="black" d="M290.45,-180.12C303.54,-189.11 319.76,-200.24 333.94,-209.97"/>
<polygon fill="black" stroke="black" points="342.45,-215.81 331.66,-213.86 338.33,-212.98 334.21,-210.15 334.21,-210.15 334.21,-210.15 338.33,-212.98 336.75,-206.44 342.45,-215.81 342.45,-215.81"/>
</g>
<!-- scludam.rutils -->
<g id="node7" class="node">
<title>scludam.rutils</title>
<polygon fill="none" stroke="black" points="303.5,-252 209.5,-252 209.5,-216 303.5,-216 303.5,-252"/>
<text text-anchor="middle" x="256.5" y="-230.3" font-family="Times,serif" font-size="14.00">scludam.rutils</text>
</g>
<!-- scludam.hkde&#45;&gt;scludam.rutils -->
<g id="edge11" class="edge">
<title>scludam.hkde&#45;&gt;scludam.rutils</title>
<path fill="none" stroke="black" d="M263.28,-180.3C262.28,-188.02 261.09,-197.29 259.99,-205.89"/>
<polygon fill="black" stroke="black" points="258.7,-215.9 255.51,-205.4 259.34,-210.94 259.97,-205.98 259.97,-205.98 259.97,-205.98 259.34,-210.94 264.44,-206.55 258.7,-215.9 258.7,-215.9"/>
</g>
<!-- scludam.hkde&#45;&gt;scludam.type_utils -->
<g id="edge12" class="edge">
<title>scludam.hkde&#45;&gt;scludam.type_utils</title>
<path fill="none" stroke="black" d="M233.92,-180.22C221.05,-189.07 207.56,-201.14 200.5,-216 193.64,-230.45 190.59,-239.44 200.5,-252 219.17,-275.67 294.31,-289.97 351.84,-297.65"/>
<polygon fill="black" stroke="black" points="362,-298.96 351.5,-302.14 357.04,-298.32 352.08,-297.68 352.08,-297.68 352.08,-297.68 357.04,-298.32 352.66,-293.22 362,-298.96 362,-298.96"/>
</g>
<!-- scludam.synthetic -->
<g id="node10" class="node">
<title>scludam.synthetic</title>
<polygon fill="none" stroke="black" points="115,-252 0,-252 0,-216 115,-216 115,-252"/>
<text text-anchor="middle" x="57.5" y="-230.3" font-family="Times,serif" font-size="14.00">scludam.synthetic</text>
</g>
<!-- scludam.masker&#45;&gt;scludam.synthetic -->
<g id="edge13" class="edge">
<title>scludam.masker&#45;&gt;scludam.synthetic</title>
<path fill="none" stroke="black" d="M59.76,-180.3C59.43,-188.02 59.03,-197.29 58.66,-205.89"/>
<polygon fill="black" stroke="black" points="58.23,-215.9 54.17,-205.71 58.45,-210.9 58.66,-205.9 58.66,-205.9 58.66,-205.9 58.45,-210.9 63.16,-206.1 58.23,-215.9 58.23,-215.9"/>
</g>
<!-- scludam.plots&#45;&gt;scludam.type_utils -->
<g id="edge14" class="edge">
<title>scludam.plots&#45;&gt;scludam.type_utils</title>
<path fill="none" stroke="black" d="M380.85,-252.3C387.26,-260.61 395.06,-270.72 402.11,-279.86"/>
<polygon fill="black" stroke="black" points="408.31,-287.9 398.63,-282.73 405.25,-283.94 402.2,-279.98 402.2,-279.98 402.2,-279.98 405.25,-283.94 405.76,-277.23 408.31,-287.9 408.31,-287.9"/>
</g>
<!-- scludam.shdbscan&#45;&gt;scludam.plots -->
<g id="edge15" class="edge">
<title>scludam.shdbscan&#45;&gt;scludam.plots</title>
<path fill="none" stroke="black" d="M434.5,-180.3C423.29,-189.12 409.5,-199.97 397.35,-209.53"/>
<polygon fill="black" stroke="black" points="389.25,-215.9 394.33,-206.18 393.18,-212.8 397.11,-209.71 397.11,-209.71 397.11,-209.71 393.18,-212.8 399.89,-213.25 389.25,-215.9 389.25,-215.9"/>
</g>
<!-- scludam.shdbscan&#45;&gt;scludam.type_utils -->
<g id="edge16" class="edge">
<title>scludam.shdbscan&#45;&gt;scludam.type_utils</title>
<path fill="none" stroke="black" d="M493.01,-180.08C507.1,-188.71 521.68,-200.65 529.5,-216 536.77,-230.25 537.96,-238.42 529.5,-252 520.36,-266.67 505.84,-277.39 490.38,-285.19"/>
<polygon fill="black" stroke="black" points="481.2,-289.45 488.37,-281.16 485.73,-287.34 490.27,-285.24 490.27,-285.24 490.27,-285.24 485.73,-287.34 492.16,-289.32 481.2,-289.45 481.2,-289.45"/>
</g>
<!-- scludam.utils -->
<g id="node12" class="node">
<title>scludam.utils</title>
<polygon fill="none" stroke="black" points="521,-252 432,-252 432,-216 521,-216 521,-252"/>
<text text-anchor="middle" x="476.5" y="-230.3" font-family="Times,serif" font-size="14.00">scludam.utils</text>
</g>
<!-- scludam.shdbscan&#45;&gt;scludam.utils -->
<g id="edge17" class="edge">
<title>scludam.shdbscan&#45;&gt;scludam.utils</title>
<path fill="none" stroke="black" d="M461.44,-180.3C463.67,-188.1 466.35,-197.49 468.83,-206.17"/>
<polygon fill="black" stroke="black" points="471.61,-215.9 464.54,-207.52 470.24,-211.09 468.87,-206.28 468.87,-206.28 468.87,-206.28 470.24,-211.09 473.19,-205.04 471.61,-215.9 471.61,-215.9"/>
</g>
<!-- scludam.stat_tests&#45;&gt;scludam.type_utils -->
<g id="edge18" class="edge">
<title>scludam.stat_tests&#45;&gt;scludam.type_utils</title>
<path fill="none" stroke="black" d="M511.7,-108.36C535.31,-139.45 577.15,-205.71 546.5,-252 533.69,-271.35 512.25,-283.65 490.71,-291.47"/>
<polygon fill="black" stroke="black" points="481.17,-294.65 489.23,-287.22 485.91,-293.07 490.66,-291.49 490.66,-291.49 490.66,-291.49 485.91,-293.07 492.08,-295.75 481.17,-294.65 481.17,-294.65"/>
</g>
<!-- scludam.synthetic&#45;&gt;scludam.type_utils -->
<g id="edge19" class="edge">
<title>scludam.synthetic&#45;&gt;scludam.type_utils</title>
<path fill="none" stroke="black" d="M115.21,-248.91C120.04,-249.98 124.85,-251.03 129.5,-252 205.19,-267.79 292.48,-283.28 351.76,-293.4"/>
<polygon fill="black" stroke="black" points="361.76,-295.1 351.15,-297.86 356.83,-294.26 351.9,-293.42 351.9,-293.42 351.9,-293.42 356.83,-294.26 352.66,-288.99 361.76,-295.1 361.76,-295.1"/>
</g>
<!-- scludam.utils&#45;&gt;scludam.type_utils -->
<g id="edge20" class="edge">
<title>scludam.utils&#45;&gt;scludam.type_utils</title>
<path fill="none" stroke="black" d="M462.9,-252.3C456.38,-260.61 448.43,-270.72 441.25,-279.86"/>
<polygon fill="black" stroke="black" points="434.94,-287.9 437.58,-277.25 438.03,-283.96 441.12,-280.03 441.12,-280.03 441.12,-280.03 438.03,-283.96 444.66,-282.81 434.94,-287.9 434.94,-287.9"/>
</g>
</g>
</svg>
